<svg width="161" height="161" viewBox="0 0 161 161" fill="none" xmlns="http://www.w3.org/2000/svg">
<path d="M67.9219 5.03125C58.5845 5.04182 49.6327 8.75578 43.0302 15.3583C36.4276 21.9607 32.7137 30.9127 32.7032 40.25V65.3056C32.7063 69.5144 33.7622 73.6555 35.7747 77.3518L44.408 93.1794L21.5086 108.064C17.9893 110.342 15.0976 113.467 13.0979 117.152C11.0983 120.836 10.0547 124.964 10.0625 129.156V155.969H98.1094V145.906H20.125V129.156C20.1203 126.641 20.7465 124.164 21.9463 121.953C23.1461 119.742 24.8811 117.867 26.9927 116.5L57.7022 96.5396L44.6083 72.5339C43.401 70.3154 42.7675 67.8306 42.7657 65.3056V40.25C42.7657 33.5782 45.416 27.1796 50.1338 22.4618C54.8515 17.7441 61.25 15.0938 67.9219 15.0938C74.594 15.0938 80.9924 17.7441 85.7103 22.4618C90.4276 27.1796 93.0781 33.5782 93.0781 40.25V65.3056C93.0761 67.8306 92.4428 70.3154 91.2353 72.5332L78.1413 96.5396L98.1094 109.519V97.517L91.4359 93.1781L100.069 77.3504C102.081 73.6542 103.137 69.5138 103.141 65.3056V40.25C103.13 30.9127 99.4161 21.9607 92.8138 15.3583C86.2114 8.75578 77.2592 5.04182 67.9219 5.03125Z" fill="#044334"/>
<path d="M151.979 111.733L144.863 104.618L129.554 119.928L114.244 104.618L107.129 111.733L122.439 127.043L107.129 142.352L114.244 149.468L129.554 134.158L144.863 149.468L151.979 142.352L136.669 127.043L151.979 111.733Z" fill="#044334"/>
</svg>
