<svg width="97" height="97" viewBox="0 0 97 97" fill="none" xmlns="http://www.w3.org/2000/svg">
<g clip-path="url(#clip0_74_92)">
<path d="M92.499 65.1778C89.626 61.7318 86.245 58.7908 83.046 55.6678C80.16 52.8528 79.978 51.2198 82.298 47.9708C84.83 44.4248 87.553 41.0148 90.108 37.4848C92.493 34.1858 94.931 30.8958 96.186 26.9458C96.982 24.4328 96.278 23.3228 93.701 22.8828C93.257 22.8058 92.798 22.8018 92.346 22.8018L77.057 22.7838C75.174 22.7558 74.133 23.5768 73.467 25.2458C72.568 27.5018 71.641 29.7558 70.57 31.9328C68.14 36.8688 65.426 41.6398 61.621 45.6798C60.782 46.5708 59.854 47.6968 58.452 47.2328C56.698 46.5928 56.181 43.7028 56.21 42.7258L56.195 25.0788C55.855 22.5578 55.296 21.4338 52.793 20.9438L36.911 20.9468C34.791 20.9468 33.728 21.7658 32.596 23.0918C31.943 23.8578 31.746 24.3548 33.088 24.6088C35.724 25.1088 37.209 26.8148 37.603 29.4578C38.235 33.6808 38.191 37.9208 37.827 42.1608C37.72 43.3988 37.507 44.6338 37.016 45.7898C36.248 47.6068 35.008 47.9768 33.379 46.8588C31.904 45.8468 30.868 44.4188 29.854 42.9848C26.045 37.6028 23.006 31.7988 20.528 25.6998C19.812 23.9378 18.577 22.8698 16.71 22.8408C12.123 22.7678 7.53499 22.7558 2.94799 22.8448C0.187994 22.8968 -0.635006 24.2368 0.488994 26.7388C5.48499 37.8518 11.046 48.6558 18.305 58.4978C22.032 63.5488 26.311 68.0078 31.839 71.1678C38.104 74.7498 44.848 75.8279 51.951 75.4958C55.277 75.3399 56.276 74.4748 56.43 71.1599C56.534 68.8918 56.791 66.6368 57.91 64.5988C59.008 62.5988 60.671 62.2178 62.588 63.4618C63.547 64.0849 64.355 64.8778 65.118 65.7138C66.99 67.7618 68.795 69.8718 70.738 71.8508C73.175 74.3308 76.062 75.7958 79.692 75.4968L93.744 75.4998C96.008 75.3518 97.182 72.5759 95.882 70.0489C94.969 68.2789 93.771 66.7029 92.499 65.1778Z" fill="white" fill-opacity="0.75"/>
</g>
<defs>
<clipPath id="clip0_74_92">
<rect width="96.496" height="96.496" fill="white"/>
</clipPath>
</defs>
</svg>
