<svg width="73" height="69" viewBox="0 0 73 69" fill="none" xmlns="http://www.w3.org/2000/svg">
<g clip-path="url(#clip0_118_204)">
<path d="M27.5305 8.61762C27.5649 3.96562 31.5773 0.22978 36.5007 0.266184C41.4241 0.302589 45.3831 4.09313 45.3487 8.74937C45.3143 13.3929 41.3064 17.133 36.3763 17.0965C31.4529 17.0601 27.4962 13.2611 27.5305 8.61762ZM27.3382 34.6353C27.3725 29.9939 31.3827 26.2475 36.3061 26.2839C41.2295 26.3203 45.1884 30.1214 45.154 34.767C45.1197 39.4127 41.1117 43.1592 36.1816 43.1227C31.2605 43.0821 27.3038 39.281 27.3382 34.6353ZM27.1522 59.7875C27.1866 55.1376 31.199 51.3976 36.1246 51.434C41.0435 51.4704 45.0025 55.263 44.9681 59.9193C44.9337 64.5606 40.9258 68.3008 36.0002 68.2643C31.0745 68.2279 27.1179 64.4289 27.1522 59.7875Z" fill="#044334"/>
</g>
<defs>
<clipPath id="clip0_118_204">
<rect width="68" height="72" fill="white" transform="matrix(-0.00739399 0.999973 0.999973 0.00739399 0.50293 0)"/>
</clipPath>
</defs>
</svg>
