<svg width="881" height="556" viewBox="0 0 881 556" fill="none" xmlns="http://www.w3.org/2000/svg">
<path d="M564.77 333.005L353.992 531.215C321.685 561.595 269.307 561.595 237.008 531.215L26.2302 333.005C-6.07674 302.624 -6.07674 253.369 26.2302 222.995L237.008 24.7855C269.315 -5.59516 321.693 -5.59516 353.992 24.7855L564.77 222.995C597.077 253.376 597.077 302.624 564.77 333.005Z" stroke="white" stroke-width="3" stroke-miterlimit="10"/>
<path d="M587.5 554C557.368 554 529.041 542.967 507.728 522.925L327.046 353.014C305.733 332.978 294 306.341 294 277.994C294 249.653 305.733 223.016 327.046 202.974L507.728 33.0749C529.035 13.0393 557.362 2 587.5 2C617.638 2 645.965 13.0332 667.272 33.0688L847.954 202.98C869.267 223.016 881 249.653 881 277.994C881 306.335 869.267 332.978 847.954 353.014L667.272 522.925C645.959 542.967 617.632 554 587.5 554Z" fill="#F2F2F2"/>
<path d="M420.76 183.554L358.083 120.712L424.502 54.1549L487.213 116.962L420.76 183.554ZM465.67 228.604L532.092 161.973L560.2 190.141L493.463 256.455L465.67 228.604ZM199.129 279.998L313.129 165.76L375.883 228.61L261.883 342.848L199.129 279.998ZM583.375 346.636L538.374 301.508L605.118 235.152L649.873 280L583.375 346.636ZM306.799 387.897L420.759 273.661L538.459 391.606L424.499 505.842L306.799 387.897Z" fill="#30E1A1" stroke="black" stroke-width="20"/>
</svg>
