<svg width="519" height="519" viewBox="0 0 519 519" fill="none" xmlns="http://www.w3.org/2000/svg">
<path d="M153.183 395H192.438L207 493H107.5L153.183 395Z" fill="white"/>
<path d="M362.586 396H413.947L433 493H293L362.586 396Z" fill="white"/>
<path d="M177 338.198C183.419 324.837 187.471 309.421 187.854 291.543C189.708 204.102 297.851 136.625 417.813 210.792C537.775 284.96 431.752 489 431.752 489" fill="white"/>
<path d="M177 338.198C183.419 324.837 187.471 309.421 187.854 291.543C189.708 204.102 297.851 136.625 417.813 210.792C537.775 284.96 431.752 489 431.752 489" stroke="white" stroke-width="4.47" stroke-miterlimit="10"/>
<path d="M110 489C102.904 485.17 38.5088 452.795 71 432C84.8829 423.125 119 414 153.196 395.084" fill="white"/>
<path d="M110 489C102.904 485.17 38.5088 452.795 71 432C84.8829 423.125 119 414 153.196 395.084" stroke="white" stroke-width="4.47" stroke-miterlimit="10"/>
<path d="M354.249 271.697C354.651 273.787 355.707 275.695 357.264 277.146" stroke="#CCDDE2" stroke-width="4.47" stroke-miterlimit="10"/>
<path d="M267.285 311.794C266.517 311.997 265.868 312.142 265.354 312.261C264.97 312.329 264.654 312.396 264.436 312.428H264.389L264.088 312.479C264.088 312.479 264.057 312.443 264.036 312.443C258.846 308.634 260.439 301.544 260.439 301.544C275.957 303.989 279.175 291.418 279.175 291.418C278.973 285.393 277.826 282.559 275.179 280.929C272.413 279.196 268.001 278.75 261.259 277.296L260.144 277.047C250.116 274.769 245.44 264.477 243.593 258.768C243.162 257.503 242.816 256.212 242.555 254.902C231.199 259.168 224.089 265.209 219.994 269.74C218.374 237.619 250.615 242.233 250.615 242.233C256.04 242.311 261.432 243.099 266.652 244.579C267.835 245.098 268.967 245.617 270.046 246.136C270.565 246.4 271.115 246.686 271.603 246.982C272.091 247.278 272.641 247.568 273.119 247.864C273.466 248.066 273.819 248.284 274.157 248.513C281.249 253.014 286.918 259.435 290.505 267.031C290.556 267.134 290.601 267.239 290.64 267.347C290.803 267.699 290.947 268.059 291.071 268.427C298.368 300.356 275.854 309.495 267.285 311.794Z" fill="#32FFDA"/>
<path d="M267.285 311.794C265.022 308.032 266.071 303.49 266.071 303.49C281.573 305.94 284.801 293.37 284.801 293.37C284.469 284.127 281.973 282.393 275.179 280.914C272.662 280.348 269.569 279.829 265.77 278.983C264.192 278.629 262.673 278.05 261.259 277.265C250.937 271.608 248.155 256.822 248.155 256.822C246.556 257.419 245.041 258.068 243.593 258.737C243.162 257.472 242.816 256.181 242.555 254.87C231.199 259.137 224.089 265.178 219.994 269.709C218.374 237.588 250.615 242.202 250.615 242.202C256.04 242.28 261.432 243.068 266.652 244.548C267.835 245.067 268.967 245.586 270.046 246.105C270.565 246.369 271.115 246.655 271.603 246.951C272.091 247.246 272.641 247.537 273.119 247.833C273.466 248.035 273.819 248.253 274.157 248.482C281.249 252.983 286.918 259.404 290.505 267C290.556 267.102 290.601 267.208 290.64 267.316C290.803 267.668 290.947 268.028 291.071 268.396C298.368 300.356 275.854 309.495 267.285 311.794Z" fill="#32FFDA"/>
<path d="M321.692 453.954C324.09 469.607 327.022 485.006 330.084 493.05H192.44C175.868 445.998 183.726 394.596 183.726 394.596L159.281 395.364C173.984 369.57 168.753 347.761 166.272 340.485C185.475 337.22 204.678 334.656 224.083 334.438C223.564 345.545 235.688 358.312 253.173 354.955C260.263 353.605 268.904 350.803 269.091 338.383L273.653 339.182C279.964 340.22 285.673 341.331 291.086 342.582C305.099 345.81 317.14 349.848 332.144 354.955C311.384 370.322 321.702 405.817 321.702 405.817L322.221 407L315.594 405.817C315.594 405.817 318.048 430.163 321.692 453.954Z" fill="#353642"/>
<path d="M178.884 111.881C192.608 111.881 203.733 100.755 203.733 87.0311C203.733 73.307 192.608 62.1814 178.884 62.1814C165.16 62.1814 154.034 73.307 154.034 87.0311C154.034 100.755 165.16 111.881 178.884 111.881Z" fill="#32FFDA"/>
<path d="M187.053 78.7375C186.703 77.9286 186.233 77.1778 185.657 76.5109C184.675 75.3429 183.3 74.5739 181.791 74.3483C180.282 74.1228 178.742 74.4563 177.462 75.2861C176.625 75.8273 175.925 76.556 175.419 77.4146C174.913 78.2731 174.613 79.2378 174.545 80.2322C173.238 79.7595 171.813 79.7237 170.484 80.1301C169.155 80.5364 167.994 81.363 167.175 82.4857C166.356 83.6084 165.923 84.9665 165.942 86.3561C165.961 87.7456 166.43 89.0916 167.279 90.1918C169.059 92.5117 172.085 94.0376 174.825 94.9251C176.263 95.3828 177.742 95.6975 179.242 95.8645C180 95.9475 184.333 96.5288 184.738 95.8645C187.385 91.645 189.305 83.8963 187.053 78.7375Z" fill="white"/>
<path d="M137.073 78.9555C135.443 78.7738 133.793 78.6597 132.148 78.5714C130.383 78.6597 128.619 78.7894 126.854 79.0074C121.281 79.6293 115.822 81.0268 110.635 83.1594C108.312 84.115 106.073 85.2625 103.94 86.59C102.401 87.5146 100.928 88.5428 99.5286 89.6676C98.4959 88.1867 97.6667 86.5738 97.0634 84.8721C96.0365 82.0005 95.6593 78.937 95.959 75.9021C96.2588 72.8672 97.2279 69.9366 98.7967 67.3214C100.366 64.7062 102.495 62.4716 105.031 60.7785C107.568 59.0854 110.448 57.976 113.465 57.5303C116.482 57.0845 119.56 57.3135 122.478 58.2008C125.396 59.088 128.08 60.6114 130.338 62.6612C132.596 64.7109 134.372 67.236 135.536 70.0546C136.701 72.8731 137.226 75.9149 137.073 78.9607V78.9555Z" fill="#32FFDA"/>
<path d="M126.854 79.0074C121.281 79.6292 115.822 81.0268 110.635 83.1594C110.334 82.3601 110.085 81.6024 110.002 81.3429C109.586 80.1638 109.285 78.9471 109.104 77.7099C108.788 75.3432 108.834 72.5199 109.935 70.366C110.449 69.3318 111.285 68.4929 112.318 67.9761C113.351 67.4593 114.524 67.2926 115.66 67.5012C116.796 67.7099 117.833 68.2826 118.614 69.1327C119.396 69.9828 119.88 71.0643 119.993 72.2137C120.764 71.913 121.594 71.7927 122.419 71.862C123.244 71.9313 124.042 72.1882 124.752 72.6133C125.805 73.2555 126.595 74.2517 126.98 75.4234C127.365 76.5951 127.321 77.8656 126.854 79.0074Z" fill="white"/>
<path d="M103.94 86.5847C102.401 87.5093 100.928 88.5376 99.5286 89.6624C98.5909 90.3884 97.6902 91.161 96.8298 91.9771C95.7273 93.0287 94.7566 94.2103 93.939 95.4959C93.174 96.6925 92.5108 97.9512 91.9564 99.2587C91.1186 101.258 90.4502 103.324 89.9583 105.435C88.9717 109.988 88.3761 114.617 88.1781 119.271C84.5287 117.448 81.5991 114.45 79.8612 110.76C78.1232 107.069 77.6781 102.901 78.5976 98.9267C79.517 94.9523 81.7474 91.4031 84.9296 88.8507C88.1117 86.2984 92.0604 84.8914 96.1396 84.8564C96.4562 84.8564 96.752 84.8564 97.0686 84.8564C99.4511 84.9706 101.787 85.5581 103.94 86.5847Z" fill="#32FFDA"/>
<path d="M93.939 95.496C93.174 96.6925 92.5108 97.9512 91.9564 99.2587C91.1186 101.258 90.4502 103.324 89.9583 105.435C88.8787 103.935 87.9601 102.139 87.8148 100.343C87.7641 99.6978 87.8471 99.0486 88.0585 98.4365C88.27 97.8243 88.6053 97.2623 89.0436 96.7855C89.4819 96.3087 90.0138 95.9274 90.606 95.6654C91.1983 95.4033 91.8382 95.2661 92.4858 95.2624C92.98 95.2562 93.4716 95.3352 93.939 95.496Z" fill="white"/>
<g opacity="0.72">
<path d="M207.61 83.9016C215.166 83.9016 221.291 77.7765 221.291 70.2208C221.291 62.665 215.166 56.5399 207.61 56.5399C200.055 56.5399 193.93 62.665 193.93 70.2208C193.93 77.7765 200.055 83.9016 207.61 83.9016Z" fill="#32FFDA"/>
<path d="M213.548 72.66C213.884 72.3126 214.168 71.9174 214.389 71.4871C214.779 70.7425 214.883 69.881 214.683 69.0647C214.482 68.2483 213.99 67.5335 213.299 67.0548C212.849 66.7449 212.335 66.5429 211.794 66.4646C211.254 66.3863 210.703 66.4337 210.185 66.6033C210.156 65.8364 209.879 65.0996 209.395 64.5042C208.91 63.9089 208.245 63.4873 207.5 63.3032C206.755 63.1192 205.971 63.1826 205.265 63.484C204.559 63.7853 203.97 64.3082 203.588 64.9736C202.778 66.3697 202.633 68.2278 202.758 69.8107C202.823 70.6385 202.973 71.4576 203.204 72.2552C203.318 72.66 203.925 74.9851 204.341 75.0578C207.039 75.5145 211.389 74.8761 213.548 72.66Z" fill="white"/>
</g>
<g opacity="0.72">
<path d="M201.512 223.393C206.907 223.393 211.28 219.02 211.28 213.626C211.28 208.231 206.907 203.858 201.512 203.858C196.118 203.858 191.745 208.231 191.745 213.626C191.745 219.02 196.118 223.393 201.512 223.393Z" fill="#32FFDA"/>
<path d="M205.747 215.385C205.988 215.137 206.189 214.853 206.344 214.544C206.622 214.014 206.697 213.4 206.555 212.818C206.412 212.236 206.062 211.726 205.571 211.384C205.248 211.16 204.878 211.015 204.49 210.959C204.102 210.903 203.706 210.938 203.334 211.062C203.311 210.516 203.111 209.993 202.766 209.57C202.42 209.147 201.947 208.848 201.417 208.716C200.887 208.585 200.329 208.629 199.826 208.841C199.323 209.053 198.902 209.423 198.626 209.894C198.098 210.964 197.891 212.165 198.03 213.351C198.077 213.941 198.185 214.526 198.351 215.094C198.434 215.38 198.87 217.046 199.161 217.093C201.102 217.404 204.206 216.942 205.747 215.385Z" fill="white"/>
</g>
<path d="M179.785 96.3717L173.284 110.119C170.925 115.107 173.056 121.063 178.045 123.422L191.792 129.923C196.78 132.282 202.736 130.15 205.094 125.162L211.596 111.415C213.954 106.427 211.823 100.471 206.835 98.1123L193.088 91.6112C188.1 89.2523 182.144 91.3836 179.785 96.3717Z" fill="#32FFDA"/>
<path d="M207.891 113.827L203.183 123.782C202.198 125.861 200.43 127.465 198.264 128.243C196.099 129.022 193.714 128.91 191.63 127.934L179.693 122.287C177.615 121.301 176.012 119.532 175.234 117.367C174.456 115.202 174.566 112.817 175.541 110.734L175.858 110.059C179.102 107.464 184.712 103.976 186.757 108.736C189.705 115.587 193.535 113.37 198.434 110.506C202.545 108.082 207.455 107.277 207.891 113.827Z" fill="white"/>
<path d="M189.388 103.239C191.418 103.239 193.063 101.594 193.063 99.5649C193.063 97.5355 191.418 95.8904 189.388 95.8904C187.359 95.8904 185.714 97.5355 185.714 99.5649C185.714 101.594 187.359 103.239 189.388 103.239Z" fill="white"/>
<path d="M225.148 141.307L216.586 159.413C213.48 165.979 216.286 173.819 222.852 176.924L240.958 185.487C247.524 188.592 255.364 185.786 258.469 179.22L267.032 161.115C270.137 154.548 267.331 146.708 260.765 143.603L242.659 135.041C236.093 131.936 228.253 134.741 225.148 141.307Z" fill="#32FFDA"/>
<path d="M262.147 164.295L255.919 177.399C254.618 180.133 252.287 182.24 249.436 183.26C246.586 184.281 243.447 184.131 240.707 182.844L225.012 175.422C222.279 174.121 220.172 171.79 219.151 168.939C218.131 166.089 218.281 162.95 219.568 160.21L219.989 159.323C224.26 155.918 231.64 151.314 234.334 157.579C238.221 166.599 243.26 163.682 249.712 159.909C255.104 156.738 261.576 155.669 262.147 164.295Z" fill="white"/>
<path d="M237.785 150.354C240.456 150.354 242.622 148.189 242.622 145.517C242.622 142.846 240.456 140.68 237.785 140.68C235.114 140.68 232.948 142.846 232.948 145.517C232.948 148.189 235.114 150.354 237.785 150.354Z" fill="white"/>
<path d="M260.325 89.7247C261.046 91.0519 261.571 92.4767 261.882 93.9545C262.435 96.6741 262.272 99.4906 261.411 102.129C260.549 104.767 259.018 107.136 256.967 109.006C255.343 110.443 253.272 111.569 251.622 113.074C250.422 114.112 249.539 115.467 249.073 116.983C248.986 117.5 248.778 117.989 248.466 118.41C247.501 119.448 246.561 117.818 245.726 117.522C244.385 117.087 242.932 117.159 241.641 117.725C238.25 119.123 234.48 119.31 230.967 118.254C227.453 117.198 224.411 114.965 222.352 111.929C220.292 108.893 219.342 105.24 219.66 101.585C219.978 97.9307 221.546 94.4972 224.099 91.863C226.642 89.268 229.974 87.6227 233.187 85.9204C236.02 84.4153 238.839 82.8064 241.911 81.9189C249.146 79.7703 256.832 83.3566 260.325 89.7247Z" fill="#32FFDA"/>
<path d="M231.303 108.492C233.215 108.492 234.764 106.942 234.764 105.03C234.764 103.118 233.215 101.568 231.303 101.568C229.391 101.568 227.841 103.118 227.841 105.03C227.841 106.942 229.391 108.492 231.303 108.492Z" fill="white"/>
<path d="M240.629 103.504C242.541 103.504 244.091 101.954 244.091 100.042C244.091 98.1306 242.541 96.5807 240.629 96.5807C238.717 96.5807 237.167 98.1306 237.167 100.042C237.167 101.954 238.717 103.504 240.629 103.504Z" fill="white"/>
<path d="M249.38 98.8228C251.291 98.8228 252.841 97.2729 252.841 95.361C252.841 93.4492 251.291 91.8993 249.38 91.8993C247.468 91.8993 245.918 93.4492 245.918 95.361C245.918 97.2729 247.468 98.8228 249.38 98.8228Z" fill="white"/>
<path d="M367.815 322.849V322.932L366.533 352.401L365.817 368.547C365.817 367.95 365.848 367.333 365.885 366.736C357.025 363.772 345.644 359.558 336.862 356.579C319.579 350.683 306.558 346.152 291.076 342.592C290.142 338.082 289.259 328.408 293.603 314.286C299.831 294.138 301.882 273.695 298.716 269.745C298.686 269.7 298.647 269.661 298.601 269.631C296.349 261.509 290.391 266.766 290.391 266.766C290.391 266.766 290.427 266.849 290.443 266.896C289.203 264.84 287.841 262.861 286.363 260.969C286.413 260.675 286.491 260.386 286.597 260.107C288.512 254.346 298.716 252.961 298.716 252.961C313.652 254.061 321.51 260.72 325.475 269.465C328.968 280.504 326.908 292.472 326.456 303.797C326.275 308.706 325.574 316.253 329.321 320.228C332.783 326.773 341.492 323.944 343.853 323.228C344.621 323.01 346.614 322.875 349.23 322.792C354.56 322.662 362.402 322.761 367.182 322.844C367.416 322.849 367.618 322.849 367.815 322.849Z" fill="#32FFDA"/>
<path d="M161.098 57.9775C160.01 58.2198 158.893 58.3037 157.781 58.2266C155.742 58.0656 153.78 57.3779 152.087 56.2306C150.394 55.0833 149.028 53.516 148.123 51.682C147.432 50.234 147.085 48.5368 146.332 47.0629C145.841 46.0044 145.062 45.1053 144.085 44.4679C143.736 44.3017 143.431 44.0543 143.197 43.7465C142.678 42.8538 144.007 42.5216 144.386 41.9923C144.964 41.1311 145.21 40.0888 145.076 39.0599C144.768 36.3672 145.399 33.6506 146.863 31.3697C148.327 29.0888 150.534 27.3836 153.11 26.5425C155.687 25.7013 158.475 25.7759 161.003 26.7537C163.531 27.7314 165.643 29.5522 166.983 31.9081C168.301 34.2384 168.784 36.932 169.334 39.553C169.822 41.8625 170.372 44.1824 170.372 46.5439C170.419 52.092 166.314 56.8045 161.098 57.9775Z" fill="#32FFDA"/>
<path d="M156.177 36.8594C157.585 36.8594 158.726 35.7185 158.726 34.3111C158.726 32.9037 157.585 31.7628 156.177 31.7628C154.77 31.7628 153.629 32.9037 153.629 34.3111C153.629 35.7185 154.77 36.8594 156.177 36.8594Z" fill="white"/>
<path d="M157.807 44.4783C159.215 44.4783 160.355 43.3374 160.355 41.93C160.355 40.5226 159.215 39.3817 157.807 39.3817C156.4 39.3817 155.259 40.5226 155.259 41.93C155.259 43.3374 156.4 44.4783 157.807 44.4783Z" fill="white"/>
<path d="M159.338 51.6301C160.746 51.6301 161.886 50.4892 161.886 49.0819C161.886 47.6745 160.746 46.5336 159.338 46.5336C157.931 46.5336 156.79 47.6745 156.79 49.0819C156.79 50.4892 157.931 51.6301 159.338 51.6301Z" fill="white"/>
<g opacity="0.72">
<path d="M313.04 150.629C323.737 150.629 332.409 141.958 332.409 131.26C332.409 120.563 323.737 111.891 313.04 111.891C302.343 111.891 293.671 120.563 293.671 131.26C293.671 141.958 302.343 150.629 313.04 150.629Z" fill="#32FFDA"/>
<path d="M313.767 140.306C314.419 140.515 315.1 140.621 315.786 140.623C316.975 140.638 318.13 140.219 319.033 139.445C319.935 138.67 320.525 137.592 320.69 136.414C320.797 135.645 320.723 134.862 320.476 134.126C320.228 133.39 319.813 132.722 319.263 132.174C320.212 131.646 320.964 130.825 321.405 129.833C321.847 128.841 321.954 127.733 321.711 126.675C321.468 125.617 320.888 124.666 320.058 123.967C319.228 123.267 318.193 122.856 317.109 122.795C314.831 122.666 312.391 123.667 310.466 124.83C309.464 125.443 308.525 126.154 307.663 126.953C307.222 127.357 304.669 129.615 304.845 130.181C305.987 133.902 309.573 139.004 313.767 140.306Z" fill="white"/>
</g>
<path d="M322.034 210.314C320.823 212.074 319.362 213.648 317.695 214.985C314.611 217.422 310.947 219.017 307.062 219.614C303.176 220.211 299.203 219.789 295.529 218.39C292.669 217.253 289.929 215.349 286.971 214.238C284.893 213.386 282.619 213.134 280.405 213.511C279.697 213.732 278.946 213.782 278.215 213.657C276.295 213.096 277.748 210.875 277.587 209.629C277.28 207.659 276.263 205.868 274.727 204.595C270.768 201.207 268.101 196.554 267.179 191.425C266.257 186.295 267.136 181.005 269.668 176.45C272.199 171.895 276.227 168.354 281.07 166.429C285.912 164.503 291.272 164.31 296.24 165.883C301.15 167.44 305.348 170.601 309.552 173.574C313.258 176.195 317.073 178.764 320.176 182.044C327.489 189.835 327.857 201.844 322.034 210.314Z" fill="#32FFDA"/>
<path d="M284.173 188.309C286.879 188.309 289.073 186.115 289.073 183.409C289.073 180.704 286.879 178.51 284.173 178.51C281.467 178.51 279.274 180.704 279.274 183.409C279.274 186.115 281.467 188.309 284.173 188.309Z" fill="white"/>
<path d="M296.427 196.914C299.133 196.914 301.326 194.72 301.326 192.014C301.326 189.309 299.133 187.115 296.427 187.115C293.721 187.115 291.527 189.309 291.527 192.014C291.527 194.72 293.721 196.914 296.427 196.914Z" fill="white"/>
<path d="M307.928 204.984C310.634 204.984 312.827 202.791 312.827 200.085C312.827 197.379 310.634 195.186 307.928 195.186C305.222 195.186 303.029 197.379 303.029 200.085C303.029 202.791 305.222 204.984 307.928 204.984Z" fill="white"/>
<g opacity="0.54">
<path d="M173.253 64.9269C173.188 65.773 173.058 66.6128 172.863 67.4389L170.694 76.8483C170.03 79.7288 169.282 82.7649 167.222 84.8825C163.381 88.8113 156.951 87.9134 151.59 86.7197L138.428 83.7978C135.407 83.1231 132.335 82.438 129.605 80.9329C126.875 79.4278 124.55 76.9833 123.896 73.9471C123.434 71.7102 123.932 69.4007 124.415 67.169L126.465 58.128C127.124 55.1697 127.871 52.0401 130.004 49.8915C133.809 46.0561 140.109 46.928 145.387 48.0698L158.845 50.9918C166.973 52.7719 173.901 56.5399 173.253 64.9269Z" fill="#32FFDA" fill-opacity="0.9"/>
<path d="M155.103 65.1812C155.666 65.7058 156.081 66.3693 156.307 67.105C156.532 67.8408 156.56 68.6229 156.387 69.3728C156.215 70.1228 155.848 70.8141 155.324 71.3775C154.8 71.9408 154.136 72.3562 153.401 72.5821L149.389 73.8122L145.382 75.037C144.645 75.2635 143.861 75.2916 143.109 75.1184C142.358 74.9451 141.665 74.5767 141.101 74.0503C140.538 73.5239 140.123 72.8582 139.898 72.1202C139.674 71.3822 139.648 70.5981 139.824 69.847L140.763 65.7573L141.703 61.6728C141.876 60.9228 142.244 60.2316 142.769 59.6686C143.294 59.1056 143.958 58.6906 144.694 58.465C145.43 58.2395 146.212 58.2114 146.962 58.3836C147.713 58.5558 148.405 58.9223 148.969 59.4462L152.036 62.3059L155.103 65.1812Z" fill="white"/>
</g>
<g opacity="0.54">
<path d="M321.157 83.04C321.092 83.886 320.962 84.7258 320.768 85.5519L318.599 94.977C317.934 97.8574 317.187 100.894 315.126 103.006C311.286 106.94 304.855 106.037 299.494 104.848L286.332 101.921C283.312 101.252 280.239 100.561 277.509 99.0615C274.779 97.5616 272.454 95.1067 271.8 92.0758C271.338 89.8389 271.837 87.5293 272.319 85.2976L274.375 76.293C275.028 73.3295 275.776 70.2051 277.909 68.0512C281.713 64.221 288.014 65.0878 293.292 66.2347L306.729 69.136C314.877 70.8954 321.806 74.6685 321.157 83.04Z" fill="#32FFDA"/>
<path d="M303.008 83.3046C303.571 83.8298 303.985 84.4937 304.211 85.2297C304.436 85.9658 304.464 86.7481 304.291 87.4983C304.119 88.2485 303.752 88.9402 303.228 89.5041C302.704 90.0679 302.041 90.484 301.305 90.7107L297.294 91.9356L293.287 93.1656C292.55 93.3921 291.766 93.4202 291.014 93.247C290.262 93.0737 289.57 92.7053 289.006 92.1789C288.442 91.6525 288.027 90.9868 287.803 90.2488C287.579 89.5108 287.553 88.7267 287.728 87.9756L288.668 83.8911L289.607 79.8065C289.781 79.0566 290.149 78.3654 290.674 77.8024C291.199 77.2394 291.862 76.8243 292.598 76.5988C293.334 76.3733 294.117 76.3452 294.867 76.5174C295.617 76.6896 296.309 77.0561 296.873 77.58L299.94 80.4397L303.008 83.3046Z" fill="white"/>
</g>
<g opacity="0.54">
<path d="M259.048 209.302C259.016 209.696 258.953 210.086 258.862 210.47L257.855 214.866C257.543 216.205 257.196 217.617 256.235 218.603C254.45 220.435 251.455 220.014 248.969 219.459L242.84 218.099C241.417 217.852 240.036 217.403 238.74 216.766C238.094 216.441 237.523 215.984 237.067 215.423C236.611 214.862 236.279 214.21 236.093 213.511C235.952 212.454 236.035 211.379 236.337 210.356L237.271 206.152C237.577 204.777 237.925 203.318 238.922 202.317C240.691 200.531 243.624 200.936 246.079 201.471L252.348 202.83C256.121 203.64 259.349 205.394 259.048 209.302Z" fill="#32FFDA"/>
<path d="M250.594 209.422C250.857 209.666 251.051 209.975 251.156 210.318C251.261 210.66 251.274 211.025 251.194 211.374C251.113 211.724 250.942 212.046 250.697 212.308C250.453 212.57 250.143 212.763 249.8 212.868L247.937 213.439L246.068 214.01C245.725 214.117 245.36 214.131 245.01 214.052C244.659 213.973 244.336 213.802 244.073 213.558C243.809 213.313 243.615 213.004 243.51 212.66C243.405 212.317 243.392 211.951 243.473 211.601L243.93 209.676L244.366 207.771C244.445 207.421 244.616 207.098 244.86 206.834C245.104 206.571 245.414 206.377 245.757 206.272C246.101 206.166 246.466 206.154 246.816 206.235C247.165 206.316 247.488 206.488 247.75 206.733L249.177 208.062L250.594 209.422Z" fill="white"/>
</g>
<g opacity="0.54">
<path d="M194.438 27.0555C194.864 27.2769 195.273 27.5284 195.663 27.808L200.023 30.9947C201.362 31.9652 202.758 33.0188 203.391 34.5446C204.569 37.3836 202.69 40.4924 200.9 42.9836L196.504 49.1078C195.563 50.5658 194.416 51.8803 193.099 53.0107C191.729 54.0487 189.954 54.7441 188.257 54.3964C187.006 54.1473 185.927 53.3584 184.889 52.637L180.685 49.6216C179.309 48.6355 177.867 47.5456 177.228 45.9886C176.092 43.186 177.924 40.1395 179.673 37.6846L184.131 31.4047C186.804 27.616 190.265 24.8809 194.438 27.0555Z" fill="#32FFDA"/>
<path d="M190.577 36.4442C190.968 36.2706 191.399 36.2027 191.825 36.2473C192.251 36.292 192.658 36.4476 193.005 36.6987C193.352 36.9497 193.628 37.2874 193.803 37.6781C193.979 38.0687 194.05 38.4987 194.007 38.925L193.758 41.2605L193.509 43.596C193.464 44.024 193.306 44.4324 193.052 44.7802C192.799 45.1279 192.458 45.4027 192.065 45.5769C191.671 45.751 191.238 45.8184 190.811 45.7723C190.383 45.7261 189.974 45.568 189.627 45.3139L187.733 43.9334L185.838 42.558C185.49 42.3049 185.214 41.9643 185.039 41.5704C184.863 41.1766 184.795 40.7436 184.841 40.315C184.887 39.8865 185.045 39.4776 185.299 39.1297C185.554 38.7817 185.895 38.5071 186.29 38.3334L188.433 37.3836L190.577 36.4442Z" fill="white"/>
</g>
<path d="M399.915 418.833C399.913 418.924 399.903 419.014 399.884 419.103C399.876 419.125 399.876 419.149 399.884 419.17C399.154 424.017 397.142 428.581 394.056 432.389C394.02 432.421 394.004 432.472 393.973 432.504C389.229 438.415 382.352 442.681 375.393 445.359C368.282 448.125 361.073 449.241 355.941 448.857H355.826C349.546 448.39 342.654 449.205 336.623 450.336C335.99 450.456 335.357 450.57 334.724 450.705C330.743 451.504 326.814 452.501 322.922 453.601L322.19 453.803L321.702 453.933C318.069 430.142 315.609 405.78 315.609 405.78L389.826 418.968C393.166 419.575 396.593 419.529 399.915 418.833Z" fill="#32FFDA"/>
<path d="M247.501 305.743C243.598 309.615 238.372 310.362 233.239 311.504C221.577 314.099 211.799 311.151 211.285 297.745C210.953 289.119 211.866 280.488 217.087 273.326C223.341 264.747 232.948 259.033 242.518 254.86C242.518 254.86 246.909 277.322 266.911 278.298C286.914 279.274 282.045 305.644 258.607 301.248" stroke="black" stroke-width="4.47" stroke-miterlimit="10"/>
<path d="M262.536 312.479C263.055 312.479 263.533 312.479 264.015 312.443C264.133 312.435 264.251 312.435 264.368 312.443H264.415L265.334 312.36" stroke="black" stroke-width="4.47" stroke-miterlimit="10"/>
<path d="M284.697 257.616C281.418 253.718 277.499 250.406 273.108 247.822C272.62 247.501 272.114 247.206 271.593 246.94C271.074 246.644 270.555 246.359 270.036 246.094C268.941 245.529 267.804 244.994 266.641 244.537C259.778 241.663 252.409 240.193 244.968 240.214C204.943 240.214 216.065 274.847 216.065 274.847" stroke="black" stroke-width="4.47" stroke-miterlimit="10"/>
<path d="M291.341 342.249C289.96 334.89 291.688 323.436 293.604 314.275C295.321 306.117 297.2 299.79 297.2 299.79C300.034 283.14 299.915 274.214 298.601 269.62C296.349 261.508 290.391 266.766 290.391 266.766" stroke="black" stroke-width="4.47" stroke-miterlimit="10"/>
<path d="M298.601 269.62C296.349 261.509 290.391 266.766 290.391 266.766C289.361 264.421 288.09 262.189 286.597 260.107C285.995 259.27 285.362 258.453 284.697 257.658C286.478 252.929 291.226 250.111 296.115 249.732C308.95 248.746 321.604 257.242 325.47 269.454C328.963 280.494 326.903 292.462 326.451 303.786C326.269 308.696 325.569 316.242 329.316 320.218C329.513 320.42 329.7 320.602 329.913 320.784C333.027 323.467 337.988 323.617 343.869 323.218C345.581 323.098 347.382 322.953 349.245 322.782C354.954 322.263 361.182 321.816 367.198 322.834L367.795 322.932C367.613 332.741 367.011 342.582 366.513 352.391C366.248 357.165 365.994 361.945 365.864 366.725C357.005 363.762 345.623 359.548 336.841 356.569L332.16 354.954C317.156 349.842 305.136 345.81 291.102 342.582C285.689 341.331 279.98 340.215 273.669 339.182L266.958 338.004C266.508 337.925 266.101 337.69 265.808 337.339C265.515 336.989 265.356 336.546 265.36 336.089V312.345C269.841 311.964 274.173 310.552 278.018 308.218C281.863 305.884 285.115 302.692 287.521 298.892C294.013 288.45 294.631 277.764 291.081 268.385C290.955 268.011 290.807 267.643 290.64 267.285C290.601 267.177 290.556 267.071 290.505 266.968C290.505 266.937 290.474 266.885 290.458 266.849" stroke="black" stroke-width="4.47" stroke-miterlimit="10"/>
<path d="M125.37 354.955C127.446 338.866 128.401 322.502 130.414 306.319" stroke="black" stroke-width="4.47" stroke-miterlimit="10"/>
<path d="M130.746 303.786C131.312 299.406 131.982 295.025 132.822 290.697C132.854 290.484 132.89 290.282 132.937 290.085C133.404 287.521 133.923 284.972 134.494 282.424C136.227 274.8 142.279 269.221 146.581 263.008L146.846 262.344C156.128 248.84 161.267 232.92 161.632 216.537C161.736 210.61 161.502 198.891 154.709 196.473C150.894 195.108 146.846 197.775 144.734 200.822C143.866 202.079 143.168 203.446 142.658 204.886" stroke="black" stroke-width="4.47" stroke-miterlimit="10"/>
<path d="M192.44 493.05C175.868 445.997 183.726 394.596 183.726 394.596L159.286 395.364L94.8161 397.409C91.0296 397.534 87.2605 396.844 83.7633 395.387C80.2661 393.93 77.1225 391.74 74.5448 388.963C71.9671 386.187 70.0155 382.889 68.8218 379.294C67.6282 375.698 67.2203 371.888 67.6257 368.122L86.7768 298.207" stroke="black" stroke-width="4.47" stroke-miterlimit="10"/>
<path d="M87.7058 294.792L89.3874 288.668L91.3388 281.724" stroke="black" stroke-width="4.47" stroke-miterlimit="10"/>
<path d="M92.9996 275.745L94.1155 271.733C95.5935 266.406 95.2277 260.736 93.0775 255.644L90.8613 250.35C89.4133 245.939 88.9618 243.805 90.7783 239.493C91.6377 237.458 92.8442 235.587 94.3438 233.965C98.719 229.139 104.88 226.741 111.227 225.921C117.574 225.101 124.581 225.739 129.688 229.855C133.155 232.647 136.435 239.295 134.167 243.639C132.521 246.8 129.039 247.719 126.075 246.587C125.038 246.199 124.104 245.578 123.346 244.771C119.847 241.107 112.447 240.307 109.852 243.873" stroke="black" stroke-width="4.47" stroke-miterlimit="10"/>
<path d="M365.719 372.554C365.719 371.251 365.765 369.959 365.817 368.64V368.537C365.817 367.94 365.848 367.322 365.885 366.725" stroke="black" stroke-width="4.47" stroke-miterlimit="10"/>
<path d="M359.06 247.89C352.982 251.139 345.519 259.308 358.11 278.511C362.262 284.838 366.648 291.678 367.265 299.489C367.841 307.294 368.024 315.124 367.815 322.948" stroke="black" stroke-width="4.47" stroke-miterlimit="10"/>
<path d="M300.117 403.055L314.566 405.619L315.604 405.801L322.232 406.984L389.811 418.989C393.156 419.597 396.588 419.551 399.915 418.854C405.694 417.637 410.901 414.525 414.71 410.012C418.519 405.499 420.712 399.843 420.94 393.942L410.955 312.194L408.744 294.745C408.042 289.258 409.22 283.694 412.086 278.963L415.049 274.032C415.049 274.032 420.208 266.507 411.183 265.956C406.32 265.671 401.26 266.994 396.864 268.987C394.352 270.103 390.823 272.101 389.406 274.847C388.83 275.886 388.635 277.094 388.856 278.262C389.894 283.623 396.641 285.886 401.094 283.623" stroke="black" stroke-width="4.47" stroke-miterlimit="10"/>
<path d="M414.162 266.346C414.162 266.346 419.264 263.309 415.812 255.841C414.588 253.184 410.877 251.341 402.889 251.85C381.61 253.205 373.275 275.086 389.432 274.847" stroke="black" stroke-width="4.47" stroke-miterlimit="10"/>
<path d="M409.315 251.814C414.037 245.305 405.682 239.077 399.594 239.29C393.854 239.493 388.046 241.615 383.017 244.272C376.021 247.968 366.99 255.125 369.575 264.181C370.338 266.849 376.374 270.145 380.318 268.24" stroke="black" stroke-width="4.47" stroke-miterlimit="10"/>
<path d="M369.128 260.964C369.128 260.964 369.128 260.964 369.128 260.995C365.833 267.29 350.232 260.995 359.039 247.89C361.096 244.991 363.563 242.405 366.362 240.214C388.326 222.267 393.236 240.515 393.205 239.43" stroke="black" stroke-width="4.47" stroke-miterlimit="10"/>
<path d="M378.688 268.385C378.688 268.385 386.722 274.094 384.257 283.608" stroke="black" stroke-width="4.47" stroke-miterlimit="10"/>
<path d="M95.8334 222.718C95.3144 220.674 95.3818 218.094 96.5963 214.793C98.3453 210.05 103.442 206.936 108.404 204.886C110.215 204.138 112.037 203.521 113.594 203.038C119.007 201.377 124.949 200.495 130.721 201.076C132.665 201.265 134.589 201.633 136.466 202.176C138.631 202.801 140.703 203.712 142.626 204.886C147.37 207.802 150.583 212.229 152.513 218.042C154.195 223.056 154.844 229.014 150.681 232.143" stroke="black" stroke-width="4.47" stroke-miterlimit="10"/>
<path d="M151.06 298.856L149.529 306.267C149.478 306.516 149.378 306.753 149.234 306.962C149.09 307.172 148.905 307.35 148.69 307.487C148.476 307.624 148.236 307.716 147.985 307.757C147.734 307.799 147.477 307.79 147.23 307.731C141.339 306.335 136.175 305.037 130.746 303.786C128.053 303.153 125.271 302.556 122.323 301.939C110.801 299.557 99.2951 296.868 87.711 294.792C82.8687 293.925 78.0213 293.173 73.1427 292.607C70.4127 292.291 67.6465 292.161 64.901 291.958C64.3008 291.945 63.7193 291.747 63.235 291.393C60.64 289.493 63.235 283.317 63.8007 280.753C63.8007 280.722 63.8007 280.686 63.8007 280.655C64.2003 278.688 75.5041 279.253 91.3077 281.719C96.8194 282.585 102.876 283.665 109.224 284.967C118.145 286.8 126.19 288.777 132.765 290.676C133.897 291.009 134.982 291.325 136.014 291.642C136.014 291.642 136.014 291.642 136.045 291.642C137.359 292.057 138.594 292.457 139.756 292.856C147.1 295.363 151.33 297.543 151.06 298.856Z" fill="#3FBDF1"/>
<path d="M151.06 298.856L149.529 306.267C149.478 306.516 149.378 306.753 149.234 306.962C149.09 307.172 148.905 307.35 148.69 307.487C148.476 307.624 148.236 307.716 147.985 307.757C147.734 307.799 147.477 307.79 147.23 307.731C141.339 306.335 136.175 305.037 130.746 303.786C128.053 303.153 125.271 302.556 122.323 301.939C110.801 299.557 99.2951 296.868 87.711 294.792C82.8687 293.925 78.0213 293.173 73.1427 292.607C70.4127 292.291 67.6465 292.161 64.901 291.958C64.3008 291.945 63.7193 291.747 63.235 291.393C60.64 289.493 63.235 283.317 63.8007 280.753C63.8007 280.722 63.8007 280.686 63.8007 280.655C64.2003 278.688 75.5041 279.253 91.3077 281.719C96.8194 282.585 102.876 283.665 109.224 284.967C118.145 286.8 126.19 288.777 132.765 290.676C133.897 291.009 134.982 291.325 136.014 291.642C136.014 291.642 136.014 291.642 136.045 291.642C137.359 292.057 138.594 292.457 139.756 292.856C147.1 295.363 151.33 297.543 151.06 298.856Z" fill="#32FFDA" stroke="black" stroke-width="4.47" stroke-miterlimit="10"/>
<path d="M134.898 239.648L136.372 242.601C138.225 244.631 140.789 245.913 144.303 245.03C151.195 243.318 151.875 237.603 150.676 232.144C150.47 231.152 150.203 230.175 149.877 229.216C148.263 224.4 145.766 220.523 142.268 217.695C139.783 215.682 136.91 214.202 133.829 213.345C131.319 212.62 128.729 212.207 126.117 212.115C120.986 211.939 115.862 212.641 110.967 214.191C106.073 215.691 99.3781 218.271 95.8178 222.698C95.0203 223.67 94.389 224.768 93.9494 225.947C92.8543 228.926 92.6674 231.339 93.0515 233.291L93.42 235.107" stroke="black" stroke-width="4.47" stroke-miterlimit="10"/>
<path d="M136.808 202.291L138.521 195.196L140.556 186.84C140.843 185.635 140.879 184.384 140.661 183.165C140.444 181.945 139.977 180.784 139.291 179.752C138.605 178.721 137.714 177.842 136.674 177.17C135.633 176.499 134.465 176.048 133.243 175.848C132.764 175.768 132.28 175.73 131.795 175.733C129.741 175.728 127.748 176.428 126.148 177.715C124.548 179.003 123.438 180.8 123.003 182.807C122.484 185.226 121.835 188.169 121.119 191.485C120.439 194.63 119.687 198.076 118.887 201.709" stroke="black" stroke-width="4.47" stroke-miterlimit="10"/>
<path d="M116.479 212.862V212.847" stroke="black" stroke-width="2.98" stroke-miterlimit="10"/>
<path d="M109.867 243.868C109.348 246.416 109.052 248.02 109.068 248.295C109.068 248.295 109.068 248.295 109.068 248.331C106.821 263.434 100.209 271.51 93.0152 275.719C88.6154 278.222 83.7016 279.687 78.6493 280" stroke="black" stroke-width="4.47" stroke-miterlimit="10"/>
<path d="M126.117 246.582C126.117 246.582 114.066 278.703 132.911 290.09C133.907 290.688 134.948 291.209 136.025 291.647C137.314 292.182 138.646 292.611 140.005 292.929" stroke="black" stroke-width="4.47" stroke-miterlimit="10"/>
<path d="M148.533 307.58C148.533 307.58 148.616 309.064 130.414 306.319C124.186 305.385 115.815 303.952 104.558 301.788C97.4993 300.439 91.6346 299.24 86.7768 298.207C61.2524 292.747 63.2298 291.398 63.2298 291.398" stroke="black" stroke-width="4.47" stroke-miterlimit="10"/>
<path d="M199.815 127.025C195.933 147.604 183.145 169.267 167.637 183.171C161.295 188.88 153.92 192.86 145.958 194.428C143.515 194.925 141.03 195.18 138.537 195.191L140.556 186.84C141.051 184.783 140.81 182.618 139.873 180.721C138.935 178.824 137.363 177.316 135.428 176.46C134.729 176.16 133.997 175.942 133.248 175.811C132.768 175.732 132.282 175.694 131.795 175.697C129.737 175.694 127.74 176.398 126.14 177.691C124.539 178.985 123.431 180.789 123.003 182.802C122.686 184.318 122.302 186.036 121.887 187.914C102.165 174.877 93.612 146.991 94.5618 124.347C94.8628 116.822 95.278 106.914 98.5737 99.2536C99.6857 96.5233 101.346 94.0504 103.452 91.9876C112.794 83.1957 125.582 79.1838 138.77 78.5818C148.892 79.0592 158.854 81.2967 168.208 85.1938C185.646 92.5585 203.842 105.616 199.815 127.025Z" fill="#32FFDA"/>
<path d="M199.815 127.025C195.933 147.604 183.145 169.267 167.637 183.171C161.295 188.88 153.92 192.86 145.958 194.428L147.801 186.84C148.088 185.635 148.124 184.384 147.906 183.165C147.689 181.945 147.223 180.784 146.537 179.752C145.851 178.721 144.959 177.842 143.919 177.17C142.878 176.499 141.71 176.048 140.488 175.848C140.01 175.768 139.525 175.73 139.04 175.733C137.789 175.728 136.551 175.988 135.407 176.496C134.708 176.196 133.977 175.979 133.227 175.848C132.747 175.768 132.261 175.73 131.774 175.733C129.725 175.733 127.737 176.434 126.141 177.72C124.545 179.006 123.438 180.799 123.003 182.802C122.686 184.318 122.302 186.036 121.887 187.914C102.165 174.877 93.612 146.991 94.5618 124.347C94.8628 116.822 95.278 106.914 98.5737 99.2536C99.6857 96.5233 101.346 94.0504 103.452 91.9876C112.794 83.1957 125.582 79.1838 138.77 78.5818C148.892 79.0592 158.854 81.2967 168.208 85.1938C185.646 92.5585 203.842 105.616 199.815 127.025Z" fill="#32FFDA"/>
<path d="M199.815 127.03C195.938 147.609 183.15 169.272 167.637 183.176C159.333 190.618 149.311 195.144 138.521 195.196L140.556 186.84C140.843 185.635 140.879 184.384 140.661 183.165C140.444 181.945 139.977 180.784 139.291 179.752C138.605 178.721 137.714 177.842 136.674 177.17C135.633 176.499 134.465 176.048 133.243 175.848C132.764 175.768 132.28 175.73 131.795 175.733C129.741 175.728 127.748 176.428 126.148 177.715C124.548 179.003 123.438 180.8 123.003 182.807C122.484 185.226 121.835 188.169 121.119 191.485C96.7779 180.695 86.2682 149.342 87.3218 124.352C87.6176 116.827 88.0328 106.919 91.3336 99.2588C92.4437 96.5275 94.1044 94.0541 96.2122 91.9928C114.59 74.7101 146.213 75.9038 168.208 85.199C185.641 92.5637 203.842 105.616 199.815 127.03Z" stroke="black" stroke-width="4.47" stroke-miterlimit="10"/>
<path d="M199.711 127.773C203.91 132.797 207.849 141.215 204.382 153.723C203.849 155.696 203.086 157.6 202.109 159.395C196.597 169.256 185.958 170.985 178.785 170.881" stroke="black" stroke-width="4.47" stroke-miterlimit="10"/>
<path d="M196.514 138.293C200.147 142.642 203.505 149.529 202.104 159.406C201.881 160.991 201.553 162.56 201.123 164.103C195.933 182.745 176.88 181.826 170.341 180.918" stroke="black" stroke-width="4.47" stroke-miterlimit="10"/>
<path d="M94.7642 164.004C90.7056 164.84 67.7399 160.127 67.4596 140.981C67.3773 138.386 67.8663 135.805 68.8921 133.419C72.4887 125.313 81.976 122.749 87.4411 121.913" stroke="black" stroke-width="4.47" stroke-miterlimit="10"/>
<path d="M90.633 154.408C86.481 154.662 64.4183 146.789 66.8109 127.788C67.0962 125.215 67.9412 122.735 69.2865 120.522C73.9575 112.992 83.7355 111.782 89.2576 111.699" stroke="black" stroke-width="4.47" stroke-miterlimit="10"/>
<path d="M183.726 394.601C183.726 394.601 184.198 390.994 186.793 382.845" stroke="black" stroke-width="4.47" stroke-miterlimit="10"/>
<path d="M269.081 338.352V338.388C268.894 350.797 260.258 353.61 253.163 354.96C235.678 358.302 223.538 345.55 224.073 334.444" stroke="black" stroke-width="4.47" stroke-miterlimit="10"/>
<path d="M227.389 270.072C227.389 270.072 227.908 275.781 222.942 283.146C221.613 285.128 226.211 285.943 227.306 286.312" stroke="black" stroke-width="4.47" stroke-miterlimit="10"/>
<path d="M247.414 282.427C250.364 277.319 249.388 271.233 245.235 268.836C241.082 266.438 235.325 268.636 232.375 273.744C229.426 278.853 230.401 284.938 234.554 287.336C238.707 289.734 244.465 287.536 247.414 282.427Z" stroke="black" stroke-width="4.47" stroke-miterlimit="10"/>
<path d="M226.811 275.82C229.761 270.687 228.77 264.583 224.598 262.186C220.426 259.788 214.653 262.005 211.703 267.137C208.754 272.269 209.745 278.373 213.917 280.771C218.089 283.168 223.862 280.952 226.811 275.82Z" stroke="black" stroke-width="4.48539" stroke-miterlimit="10"/>
<path d="M219.625 264.918C220.492 264.91 221.345 265.134 222.096 265.567C222.794 265.996 223.386 266.577 223.827 267.268C224.269 267.958 224.548 268.739 224.644 269.553C224.926 271.582 224.503 273.647 223.445 275.402C221.888 278.075 219.293 279.798 216.724 279.798C215.858 279.808 215.005 279.586 214.254 279.154C213.556 278.725 212.965 278.143 212.523 277.453C212.082 276.763 211.802 275.982 211.705 275.169C211.423 273.137 211.847 271.071 212.904 269.314C214.461 266.647 217.056 264.918 219.625 264.918ZM219.625 263.361C216.625 263.361 213.444 265.271 211.565 268.551C208.97 273.046 209.827 278.412 213.48 280.488C214.466 281.056 215.586 281.352 216.724 281.345C219.724 281.345 222.905 279.43 224.789 276.155C227.384 271.665 226.523 266.294 222.869 264.218C221.882 263.653 220.763 263.359 219.625 263.367V263.361Z" fill="white"/>
<path d="M224.787 276.163C227.381 271.67 226.523 266.318 222.872 264.21C219.22 262.102 214.157 264.035 211.563 268.528C208.969 273.021 209.826 278.373 213.478 280.481C217.129 282.589 222.192 280.656 224.787 276.163Z" fill="#32FFDA"/>
<path d="M247.642 280.95C250.236 276.436 249.365 271.068 245.697 268.96C242.029 266.851 236.952 268.801 234.358 273.315C231.764 277.829 232.635 283.197 236.303 285.305C239.971 287.413 245.048 285.463 247.642 280.95Z" fill="#32FFDA"/>
<path d="M227.322 271.956C227.322 271.956 228.879 269.636 232.393 273.741" stroke="black" stroke-width="4.47" stroke-miterlimit="10"/>
<path d="M242.6 277.626C243.445 276.519 243.369 275.041 242.431 274.324C241.492 273.607 240.046 273.924 239.2 275.031C238.355 276.139 238.431 277.617 239.369 278.334C240.308 279.05 241.754 278.734 242.6 277.626Z" fill="#353642"/>
<path d="M225.091 272.586C225.936 271.479 225.86 270 224.922 269.283C223.983 268.567 222.537 268.884 221.691 269.991C220.846 271.098 220.922 272.577 221.86 273.293C222.799 274.01 224.245 273.693 225.091 272.586Z" fill="#353642"/>
<path d="M237.977 295.565C227.348 304.596 221.769 296.552 221.769 296.552" stroke="black" stroke-width="4.47" stroke-miterlimit="10"/>
<path d="M125.37 347.476C134.561 345.831 143.836 344.543 152.944 342.862C157.387 342.045 161.826 341.253 166.262 340.485C186.025 337.122 205.758 334.506 225.739 334.423C226.704 334.423 227.636 334.075 228.364 333.441C229.092 332.808 229.566 331.932 229.699 330.977L230.068 328.211L232.398 310.964" stroke="black" stroke-width="4.47" stroke-miterlimit="10"/>
<path d="M265.334 312.345V312.262V311.846" stroke="black" stroke-width="4.47" stroke-miterlimit="10"/>
<path d="M63.1934 493.05H177.036H189.912H300.216H320.882H458.645" stroke="black" stroke-width="4.47" stroke-miterlimit="10"/>
<path d="M315.599 405.801C315.599 405.801 318.048 430.163 321.692 453.954C324.09 469.607 327.022 485.005 330.084 493.05" stroke="black" stroke-width="4.47" stroke-miterlimit="10"/>
<path d="M321.692 453.954L322.174 453.824L322.911 453.622C326.804 452.521 330.733 451.546 334.713 450.726C335.347 450.591 335.98 450.476 336.613 450.357C341.052 449.539 345.552 449.099 350.065 449.044C352.064 449.044 353.979 448.977 355.811 448.878H355.925C363.601 448.442 370.016 447.212 375.377 445.38C384.133 442.401 390.044 437.823 393.957 432.524C393.988 432.493 394.004 432.441 394.04 432.41C396.887 428.46 398.873 423.957 399.869 419.191C399.861 419.169 399.861 419.145 399.869 419.124L399.921 418.875" stroke="black" stroke-width="4.47" stroke-miterlimit="10"/>
</svg>
