<svg width="527" height="527" viewBox="0 0 527 527" fill="none" xmlns="http://www.w3.org/2000/svg">
<rect x="149" y="292" width="160" height="169" rx="13" fill="white"/>
<rect x="254" y="190" width="166" height="271" fill="white"/>
<path d="M46.376 292.754C46.0071 288.064 45.7225 283.368 45.4959 278.683" stroke="black" stroke-width="4.05" stroke-miterlimit="10"/>
<path d="M313.112 461.462H179.243" stroke="white" stroke-width="4.05" stroke-miterlimit="10"/>
<path d="M352.194 126.106C352.194 126.106 391.645 107.477 425.115 143.824C436.05 155.702 443.513 171.465 444.04 187.728C444.279 195.663 443 203.571 440.272 211.027C437.494 218.637 432.509 223.675 428.678 230.452C422.802 240.902 435.086 242.752 441.679 247.817C446.061 251.211 450.217 254.886 454.121 258.82C462.921 267.608 470.664 277.394 477.193 287.979C490.122 309.063 497.907 332.893 499.917 357.543C501.904 381.849 500.381 408.241 487.918 429.832C481.92 440.23 472.888 450.427 461.778 455.275C447.022 461.71 430.448 461.468 414.68 461.468H381.126" fill="white"/>
<path d="M352.194 126.106C352.194 126.106 391.645 107.477 425.115 143.824C436.05 155.702 443.513 171.465 444.04 187.728C444.279 195.663 443 203.571 440.272 211.027C437.494 218.637 432.509 223.675 428.678 230.452C422.802 240.902 435.086 242.752 441.679 247.817C446.061 251.211 450.217 254.886 454.121 258.82C462.921 267.608 470.664 277.394 477.193 287.979C490.122 309.063 497.907 332.893 499.917 357.543C501.904 381.849 500.381 408.241 487.918 429.832C481.92 440.23 472.888 450.427 461.778 455.275C447.022 461.71 430.448 461.468 414.68 461.468H381.126" stroke="white" stroke-width="4.05" stroke-miterlimit="10"/>
<path d="M187.744 368.974C186.421 378.386 184.45 389.184 182.274 399.993L179.707 400.726C171.493 403.033 162.771 402.777 154.706 399.993L158.068 388.568L137.6 329.017C137.6 329.017 153.246 323.957 166.095 320.2L167.57 320.137C174.59 321.618 189.056 327.177 189.509 347.999C189.541 349.001 189.509 350.055 189.509 351.203C191.549 357.923 190.737 363.846 187.744 368.974Z" fill="#32FFDA"/>
<path d="M139.565 142.29C139.364 141.776 138.969 141.362 138.465 141.137C137.962 140.911 137.39 140.892 136.872 141.083C136.582 141.171 136.314 141.32 136.087 141.521C135.276 142.179 135.091 143.333 135.065 144.43C134.991 146.933 134.849 149.441 134.664 151.934C134.664 152.103 134.638 152.292 134.638 152.461C134.522 154.469 134.606 156.904 133.753 158.653C133.698 158.787 133.604 158.901 133.484 158.98C133.199 159.112 132.899 158.827 132.714 158.569C132.187 157.8 131.66 157.046 131.133 156.261C130.717 155.634 130.248 154.954 129.521 154.754C128.44 154.453 127.413 155.407 126.817 156.377C124.894 159.539 124.709 164.719 127.687 167.37C130.664 170.021 123.998 175.233 119.223 177.425C118.424 177.875 117.586 178.252 116.72 178.553C116.678 178.553 118.443 178.948 118.401 178.964C114.686 180.257 110.816 181.053 106.891 181.33C102.233 181.641 97.69 181.056 94.3857 179.032C94.528 178.505 95.6557 174.816 95.7243 174.289C95.9667 172.45 96.1406 170.627 96.2513 168.777C96.4515 165.304 96.4357 161.826 96.304 158.363C95.8244 145.905 98.0431 135.439 103.187 133.842C103.593 133.72 103.982 133.549 104.346 133.331C106.665 132.05 107.903 129.347 106.839 126.796C106.765 126.622 106.681 126.454 106.607 126.269C106.524 126.087 106.429 125.911 106.322 125.742C116.367 122.622 123.186 124.788 130.079 128.562C131.391 129.61 132.624 130.753 133.768 131.982C136.466 134.911 138.451 138.425 139.565 142.248V142.29Z" fill="#32FFDA"/>
<path d="M381.021 262.072H346.766V180.197C346.766 180.197 340.442 251.337 323.114 291.642H217.024C229.53 283.695 239.558 271.689 246.236 258.767C248.871 253.656 253.087 246.067 260.096 248.059C261.761 248.528 264.212 248.828 265.45 247.305C265.877 246.721 266.12 246.021 266.146 245.297C266.746 237.835 259.01 231.553 252.633 229.572C246.257 227.59 238.805 228.518 233.73 233.15C230.072 236.496 227.78 240.939 225.103 245.055C223.496 247.494 221.591 249.723 219.432 251.69C222.183 234.984 224.634 219.016 224.987 213.14C231.696 207.843 236.623 199.206 238.373 191.564C240.296 183.217 241.993 175.053 244.981 167.238L269.439 167.322C270.36 167.322 271.244 166.956 271.895 166.305C272.546 165.654 272.912 164.771 272.912 163.849V123.228C272.914 122.316 272.554 121.439 271.911 120.791C271.268 120.144 270.394 119.777 269.482 119.771L252.828 119.629C258.88 118.364 265.017 117.545 271.189 117.178C271.315 117.178 271.431 117.178 271.542 117.178C275.605 116.91 282.725 116.794 286.825 116.751C281.94 119.386 278.92 124.983 279.447 129.926C279.54 130.979 279.809 132.009 280.243 132.973C284.417 142.142 295.41 144.851 304.485 142.184C314.582 139.239 322.002 129.953 321.56 119.271C327.884 120.198 334.144 121.375 340.342 122.801C349.759 124.967 358.945 127.887 366.392 134.253C372.884 139.781 378.386 146.901 380.931 154.948C391.861 189.356 388.499 227.753 381.021 262.072Z" fill="#2E2E2E"/>
<path d="M225.261 213.14C224.491 225.714 222.51 238.278 220.36 250.81" stroke="black" stroke-width="4.05" stroke-miterlimit="10"/>
<path d="M245.255 167.238C242.262 175.054 240.57 183.217 238.647 191.565C236.881 199.18 231.964 207.844 225.261 213.14C219.633 217.583 212.739 219.675 205.361 216.871C195.464 213.098 191.991 202.189 190.779 192.571C189.204 180.595 189.108 168.471 190.495 156.472C191.891 159.576 197.599 169.02 215.301 166.537C215.776 166.892 216.347 167.096 216.94 167.122L245.255 167.238Z" fill="#2E2E2E"/>
<path d="M235.316 140.219C239.437 139.165 241.946 143.128 241.334 146.143C240.338 151.06 233.266 152.994 229.055 153.083C225.683 153.152 217.461 152.261 214.11 151.871" stroke="black" stroke-width="4.05" stroke-miterlimit="10"/>
<path d="M212.724 142.653C217.822 144.127 223.221 144.216 228.365 142.912C232.692 141.8 237.803 139.75 240.07 135.634C241.392 133.241 240.338 129.426 237.577 128.583C234.389 127.618 231.437 130.791 228.549 131.592C226.686 132.099 224.784 132.452 222.863 132.646C222.336 132.704 221.841 132.746 221.329 132.788C218.64 133.003 215.937 132.984 213.251 132.73C212.965 132.73 212.686 132.64 212.454 132.473C212.223 132.305 212.05 132.069 211.96 131.798C211.87 131.526 211.868 131.234 211.954 130.961C212.04 130.689 212.21 130.45 212.439 130.279L212.924 129.926" stroke="black" stroke-width="4.05" stroke-miterlimit="10"/>
<path d="M245.255 167.238C242.262 175.054 240.57 183.217 238.647 191.564C235.4 205.577 221.556 223.037 205.361 216.86C195.464 213.087 191.991 202.178 190.779 192.56C188.882 177.667 189.04 162.369 191.833 147.602C194.152 135.439 198.268 122.664 210.104 116.683L215.659 113.906C216.984 113.236 218.518 113.112 219.933 113.559C221.348 114.006 222.532 114.989 223.232 116.298C223.658 117.112 223.884 118.015 223.891 118.933C223.896 119.068 223.885 119.202 223.859 119.334" stroke="black" stroke-width="4.05" stroke-miterlimit="10"/>
<path d="M358.075 281.555C360.937 281.467 363.801 281.539 366.655 281.771C368.984 281.961 371.398 282.072 373.617 282.941C375.445 283.669 377.353 285.402 377.258 287.521C377.084 291.674 371.646 291.642 368.663 291.642" stroke="black" stroke-width="4.05" stroke-miterlimit="10"/>
<path opacity="0.54" d="M306.893 277.597L331.694 214.057C332.001 212.825 332.023 211.54 331.758 210.299C331.494 209.057 330.949 207.893 330.167 206.894C329.384 205.895 328.384 205.087 327.242 204.533C326.1 203.979 324.847 203.693 323.578 203.696H225.092C222.885 203.701 220.743 204.448 219.012 205.817C217.28 207.185 216.058 209.096 215.543 211.242L188.36 274.767C188.066 275.993 188.053 277.271 188.323 278.503C188.593 279.735 189.139 280.89 189.919 281.88C190.7 282.871 191.695 283.672 192.83 284.222C193.965 284.773 195.21 285.059 196.471 285.059H297.339C299.535 285.058 301.668 284.323 303.399 282.971C305.13 281.619 306.36 279.728 306.893 277.597Z" fill="white"/>
<path d="M306.893 277.597L331.694 214.057C332.001 212.825 332.023 211.54 331.758 210.299C331.494 209.057 330.949 207.893 330.167 206.894C329.384 205.895 328.384 205.087 327.242 204.533C326.1 203.979 324.847 203.693 323.578 203.696H225.092C222.885 203.701 220.743 204.448 219.012 205.817C217.28 207.185 216.058 209.096 215.543 211.242L188.36 274.767C188.066 275.993 188.053 277.271 188.323 278.503C188.593 279.735 189.139 280.89 189.919 281.88C190.7 282.871 191.695 283.672 192.83 284.222C193.965 284.773 195.21 285.059 196.471 285.059H297.339C299.535 285.058 301.668 284.323 303.399 282.971C305.13 281.619 306.36 279.728 306.893 277.597Z" fill="#32FFDA"/>
<path d="M306.893 277.597L331.694 214.057C332.001 212.825 332.023 211.54 331.758 210.299C331.494 209.057 330.949 207.893 330.167 206.894C329.384 205.895 328.384 205.087 327.242 204.533C326.1 203.979 324.847 203.693 323.578 203.696H225.092C222.885 203.701 220.743 204.448 219.012 205.817C217.28 207.185 216.058 209.096 215.543 211.242L188.36 274.767C188.066 275.993 188.053 277.271 188.323 278.503C188.593 279.735 189.139 280.89 189.919 281.88C190.7 282.871 191.695 283.672 192.83 284.222C193.965 284.773 195.21 285.059 196.471 285.059H297.339C299.535 285.058 301.668 284.323 303.399 282.971C305.13 281.619 306.36 279.728 306.893 277.597Z" stroke="black" stroke-width="4.05" stroke-linecap="square" stroke-linejoin="round"/>
<path d="M303.262 275.026L326.144 216.407C326.428 215.273 326.449 214.089 326.206 212.945C325.964 211.801 325.463 210.727 324.743 209.805C324.023 208.884 323.103 208.138 322.052 207.626C321.001 207.113 319.846 206.847 318.677 206.848H227.796C225.755 206.847 223.774 207.534 222.172 208.797C220.57 210.059 219.439 211.825 218.963 213.809L193.936 272.417C193.666 273.548 193.656 274.725 193.906 275.86C194.156 276.996 194.66 278.06 195.38 278.972C196.1 279.885 197.018 280.623 198.064 281.13C199.11 281.638 200.257 281.902 201.419 281.903H294.451C296.476 281.904 298.444 281.228 300.041 279.982C301.638 278.736 302.772 276.991 303.262 275.026Z" fill="#32FFDA"/>
<path d="M234.352 217.651C235.558 215.843 237.514 215.016 238.757 215.854C240.001 216.692 240.001 218.8 238.8 220.597C238.61 220.873 238.398 221.134 238.167 221.377L247.095 240.228C248.517 239.279 250.083 239.042 251.21 239.79C251.572 240.054 251.871 240.393 252.088 240.785C252.305 241.176 252.433 241.61 252.465 242.056L258.567 240.001L263.901 238.204L265.64 237.635C265.86 236.98 266.164 236.356 266.546 235.78C268.238 233.234 271.005 232.091 272.728 233.25C274.451 234.41 274.472 237.334 272.828 239.859L282.999 253.745C285.218 251.927 287.826 251.363 289.634 252.565C292.095 254.204 292.132 258.478 289.718 262.103C289.618 262.251 289.507 262.367 289.407 262.504L296.174 271.758L296.237 271.848C296.583 272.37 296.708 273.008 296.583 273.622C296.459 274.235 296.095 274.774 295.573 275.12C295.051 275.466 294.413 275.591 293.799 275.466C293.186 275.342 292.647 274.978 292.301 274.456L286.293 265.387C284.39 266.488 282.367 266.699 280.886 265.713C278.535 264.132 278.419 260.19 280.517 256.675L270.783 241.983C269.344 242.958 267.758 243.205 266.62 242.452C265.987 242.002 265.556 241.323 265.418 240.56L264.691 240.76L259.268 242.241L252.322 244.117C252.106 244.949 251.749 245.739 251.268 246.452C249.577 248.992 246.81 250.141 245.087 248.981C243.363 247.822 243.337 244.844 245.029 242.299C245.277 241.925 245.555 241.573 245.861 241.245L237.361 222.041C236.338 222.742 235.205 222.921 234.394 222.378C233.171 221.567 233.15 219.438 234.352 217.651Z" fill="#D7E8F0"/>
<path d="M299.02 218.663H312.195C312.797 218.662 313.386 218.486 313.89 218.157C314.395 217.827 314.792 217.359 315.035 216.808C315.107 216.641 315.147 216.462 315.151 216.281C315.15 215.921 315.006 215.576 314.751 215.323C314.496 215.069 314.151 214.926 313.792 214.926H299.789C300.448 216.028 300.116 217.572 299.02 218.663Z" fill="#D7E8F0"/>
<path d="M290.503 217.314C290.505 217.672 290.648 218.015 290.902 218.268C291.156 218.521 291.5 218.663 291.858 218.663H299.02C300.116 217.572 300.448 216.028 299.789 214.916H293.465C292.863 214.916 292.274 215.091 291.77 215.419C291.266 215.747 290.868 216.215 290.625 216.766C290.547 216.938 290.506 217.125 290.503 217.314Z" fill="#32FFDA"/>
<path d="M293.797 218.663C293.836 218.735 293.88 218.804 293.929 218.868C294.867 220.154 296.907 220.276 298.488 219.121C298.675 218.983 298.851 218.829 299.015 218.663C300.111 217.572 300.443 216.028 299.784 214.916C299.75 214.843 299.707 214.774 299.658 214.71C298.725 213.419 296.685 213.309 295.104 214.452C294.917 214.593 294.741 214.748 294.577 214.916C293.481 216.012 293.149 217.546 293.797 218.663Z" fill="white"/>
<path d="M287.215 225.582C287.218 225.941 287.362 226.284 287.617 226.537C287.872 226.79 288.216 226.932 288.575 226.932H302.398C301.729 225.814 302.061 224.297 303.157 223.185H290.156C289.553 223.185 288.963 223.361 288.458 223.69C287.952 224.019 287.554 224.488 287.31 225.04C287.244 225.213 287.211 225.397 287.215 225.582Z" fill="#32FFDA"/>
<path d="M302.377 226.931H308.88C309.481 226.931 310.069 226.757 310.573 226.43C311.078 226.103 311.476 225.636 311.721 225.087C311.795 224.921 311.836 224.742 311.842 224.56C311.842 224.382 311.808 224.205 311.74 224.041C311.672 223.876 311.572 223.727 311.447 223.601C311.321 223.475 311.171 223.375 311.006 223.307C310.842 223.239 310.665 223.205 310.487 223.206H303.136C302.04 224.281 301.708 225.814 302.377 226.931Z" fill="#D7E8F0"/>
<path d="M302.377 226.931C302.407 227.004 302.446 227.073 302.493 227.137C303.426 228.428 305.465 228.544 307.046 227.395C307.233 227.254 307.409 227.099 307.573 226.931C308.659 225.835 308.991 224.296 308.343 223.185C308.304 223.114 308.262 223.045 308.216 222.979C307.273 221.693 305.233 221.577 303.652 222.731C303.465 222.868 303.289 223.02 303.125 223.185C302.04 224.281 301.708 225.814 302.377 226.931Z" fill="white"/>
<path d="M297.755 235.142H306.029C306.631 235.141 307.22 234.966 307.725 234.638C308.23 234.31 308.63 233.842 308.875 233.292C308.947 233.126 308.986 232.947 308.991 232.765C308.991 232.404 308.848 232.058 308.593 231.802C308.338 231.546 307.992 231.402 307.631 231.4H298.54C299.194 232.512 298.856 234.046 297.755 235.142Z" fill="#32FFDA"/>
<path d="M284.359 233.798C284.359 233.975 284.395 234.15 284.463 234.314C284.532 234.477 284.632 234.626 284.757 234.75C284.883 234.875 285.032 234.974 285.196 235.041C285.36 235.108 285.536 235.143 285.713 235.142H297.755C298.841 234.046 299.178 232.507 298.524 231.39H287.32C286.717 231.389 286.127 231.565 285.622 231.895C285.117 232.226 284.72 232.697 284.48 233.25C284.402 233.422 284.361 233.609 284.359 233.798Z" fill="#D7E8F0"/>
<path d="M292.548 235.142C292.586 235.214 292.631 235.283 292.68 235.348C293.613 236.639 295.647 236.749 297.233 235.601C297.42 235.462 297.597 235.308 297.76 235.142C298.846 234.046 299.183 232.507 298.53 231.39C298.495 231.317 298.453 231.248 298.403 231.184C297.46 229.904 295.426 229.793 293.839 230.937C293.653 231.075 293.477 231.227 293.312 231.39C292.227 232.486 291.889 234.03 292.548 235.142Z" fill="white"/>
<path d="M244.27 273.866H252.549C253.15 273.865 253.739 273.69 254.243 273.362C254.747 273.033 255.145 272.566 255.389 272.017C255.462 271.85 255.501 271.671 255.505 271.49C255.505 271.129 255.362 270.783 255.107 270.528C254.852 270.273 254.506 270.13 254.146 270.13H245.055C245.693 271.237 245.355 272.77 244.27 273.866Z" fill="#32FFDA"/>
<path d="M211.417 272.522C211.417 272.699 211.453 272.875 211.521 273.038C211.59 273.202 211.69 273.35 211.815 273.475C211.941 273.599 212.09 273.698 212.254 273.765C212.418 273.833 212.594 273.867 212.771 273.866H244.27C245.355 272.77 245.693 271.231 245.039 270.119H214.378C213.776 270.119 213.186 270.294 212.682 270.623C212.177 270.953 211.78 271.422 211.538 271.974C211.463 272.147 211.421 272.333 211.417 272.522Z" fill="#D7E8F0"/>
<path d="M239.047 273.866C239.085 273.938 239.13 274.007 239.179 274.072C240.112 275.363 242.146 275.474 243.732 274.33C243.918 274.188 244.094 274.033 244.259 273.866C245.345 272.77 245.682 271.231 245.029 270.119C244.994 270.046 244.952 269.977 244.902 269.914C243.959 268.628 241.925 268.517 240.338 269.661C240.151 269.799 239.975 269.953 239.811 270.119C238.731 271.21 238.388 272.754 239.047 273.866Z" fill="white"/>
<path d="M35.9309 294.161C35.9309 294.161 18.5399 372.721 63.2769 389.132C108.014 405.542 228.86 390.128 178.637 333.443C128.414 276.759 35.9309 294.161 35.9309 294.161Z" fill="#2E2E2E"/>
<path d="M253.002 119.629C259.082 118.361 265.247 117.539 271.447 117.168C271.579 117.168 271.69 117.168 271.806 117.168C275.879 116.899 283.015 116.783 287.089 116.741" stroke="black" stroke-width="4.05" stroke-miterlimit="10"/>
<path d="M222.864 132.63C222.821 132.656 222.795 132.688 222.752 132.714" stroke="black" stroke-width="4.05" stroke-miterlimit="10"/>
<path d="M292.195 99.6032C289.086 101.237 285.513 100.13 284.143 97.3477" stroke="black" stroke-width="4.05" stroke-miterlimit="10"/>
<path d="M274.145 59.8937C274.005 62.3116 274.625 64.7126 275.919 66.7599C277.213 68.8072 279.116 70.3978 281.36 71.3086C281.835 70.4376 282.515 69.6959 283.342 69.1479C286.836 66.887 286.214 72.9264 295.7 71.3349C308.848 69.1162 312.2 73.6959 312.2 73.6959C312.49 74.0964 311.673 76.7103 311.557 77.1899C311.03 79.9988 310.503 82.7919 310.024 85.6219C309.714 87.3364 309.402 89.0403 309.086 90.7338C309.325 90.502 309.578 90.2856 309.844 90.0856C312.005 86.7128 315.172 82.9289 318.624 86.0171C319.317 86.6604 319.848 87.4586 320.174 88.3465C321.755 92.6415 318.73 95.403 315.194 97.0578C314.261 97.6222 313.269 98.0834 312.237 98.4332C312.411 99.5189 313.133 103.846 313.133 103.856C313.207 104.299 321.987 98.8865 322.719 98.2277C324.043 96.4778 325.063 94.5183 325.739 92.4307C328.469 83.8195 328.005 72.6893 322.508 65.6064C321.143 63.8515 322.055 62.8397 322.45 61.1322C322.469 61.0403 322.46 60.9449 322.424 60.8583C322.388 60.7716 322.327 60.6977 322.249 60.6461C322.171 60.5944 322.079 60.5675 321.985 60.5686C321.891 60.5698 321.8 60.5991 321.723 60.6526C318.761 62.5129 313.402 60.6105 313.402 60.6105C296.011 50.1653 287.099 56.6263 282.836 56.9531C281.106 57.0718 279.39 56.5835 277.982 55.5723C277.734 56.0613 277.358 56.4737 276.894 56.7652C276.43 57.0568 275.895 57.2164 275.347 57.2271L275.178 58.1336C275.049 58.8225 274.684 59.445 274.145 59.8937Z" fill="#32FFDA"/>
<path d="M281.371 71.3296C279.126 70.4188 277.224 68.8282 275.93 66.7809C274.636 64.7336 274.016 62.3326 274.156 59.9147C274.207 58.9859 274.341 58.0635 274.556 57.1585L274.709 57.1901C274.917 57.2369 275.13 57.2529 275.342 57.2376C275.89 57.2269 276.425 57.0672 276.889 56.7757C277.353 56.4842 277.729 56.0718 277.977 55.5828C278.122 55.3106 278.223 55.0171 278.277 54.7132L279.089 50.3022C279.089 50.3022 281.724 53.87 285.94 53.538C290.156 53.206 299.067 46.745 316.506 57.1954C316.506 57.1954 320.69 58.7395 323.652 56.8792C323.729 56.8257 323.82 56.7964 323.914 56.7952C324.008 56.7941 324.1 56.821 324.178 56.8727C324.256 56.9243 324.317 56.9982 324.353 57.0849C324.389 57.1715 324.398 57.2669 324.379 57.3588C323.984 59.061 324.247 60.4365 325.612 62.1914C331.109 69.2742 331.573 80.4045 328.843 89.0157C327.648 92.5842 325.525 95.7708 322.693 98.2487C321.96 98.9075 313.18 104.32 313.107 103.877C313.107 103.877 312.385 99.5399 312.211 98.4542L312.168 98.2066L312.416 98.1328C313.355 97.8421 314.274 97.49 315.167 97.0788C318.703 95.424 321.744 92.6625 320.147 88.3675C319.822 87.4796 319.291 86.6814 318.598 86.0381C315.146 82.9499 311.979 86.7338 309.818 90.1066C309.4 90.7469 309.057 91.4329 308.796 92.1513C308.88 91.6876 308.964 91.2343 309.054 90.7706C309.37 89.0736 309.683 87.3697 309.992 85.6587C310.519 82.8445 311.009 80.0514 311.526 77.2267C311.62 76.7471 312.458 74.1332 312.168 73.7327C312.168 73.7327 308.817 69.153 295.668 71.3717C286.182 72.9527 286.804 66.9238 283.31 69.1847C282.483 69.7327 281.803 70.4744 281.328 71.3454C281.181 71.6291 281.051 71.9212 280.938 72.2202C280.92 72.2575 280.904 72.2962 280.891 72.3361C280.654 72.9896 280.438 73.6483 280.227 74.2913C278.256 80.5573 276.954 87.324 277.65 93.9062C278.498 101.885 284.311 111.266 293.56 110.47C296.47 110.129 299.309 109.332 301.971 108.109" stroke="black" stroke-width="4.05" stroke-miterlimit="10"/>
<path d="M282.38 88.3346C283.285 88.309 283.993 87.4014 283.962 86.3075C283.931 85.2136 283.173 84.3475 282.268 84.3731C281.363 84.3987 280.655 85.3062 280.686 86.4002C280.716 87.4941 281.475 88.3601 282.38 88.3346Z" fill="black"/>
<path d="M294.764 91.6617C295.669 91.6361 296.377 90.7286 296.346 89.6346C296.315 88.5407 295.557 87.6747 294.652 87.7002C293.747 87.7258 293.039 88.6334 293.07 89.7273C293.101 90.8212 293.859 91.6873 294.764 91.6617Z" fill="black"/>
<path d="M289.418 92.3934C289.418 92.3934 284.627 93.4474 285.112 90.9916C285.26 90.2222 286.461 82.665 286.461 82.665C286.461 82.665 284.227 78.1644 278.382 79.2131" stroke="black" stroke-width="4.05" stroke-miterlimit="10"/>
<path d="M291.568 81.9906C291.568 81.9906 299.162 80.6995 302.071 86.7652" stroke="black" stroke-width="4.05" stroke-miterlimit="10"/>
<path d="M287.173 116.678C281.191 119.84 277.998 127.45 280.501 132.957C284.675 142.132 295.663 144.83 304.743 142.179C314.84 139.228 322.261 129.921 321.818 119.249" stroke="black" stroke-width="4.05" stroke-miterlimit="10"/>
<path d="M323.388 291.637C340.732 251.332 347.029 180.192 347.029 180.192V279.447C347.029 281.048 347.344 282.634 347.956 284.113C348.568 285.592 349.466 286.936 350.598 288.068C351.73 289.2 353.074 290.098 354.553 290.71C356.033 291.323 357.618 291.637 359.219 291.637H397.69C399.132 291.659 400.532 291.148 401.62 290.202C402.709 289.256 403.409 287.94 403.587 286.509C403.664 285.72 403.576 284.925 403.327 284.172C403.077 283.42 402.673 282.729 402.141 282.142C401.608 281.556 400.958 281.088 400.233 280.768C399.509 280.448 398.725 280.284 397.932 280.285H382.175C381.547 280.283 380.927 280.138 380.363 279.86C379.8 279.582 379.307 279.18 378.923 278.682C378.538 278.185 378.273 277.607 378.146 276.991C378.019 276.376 378.035 275.74 378.191 275.131C387.677 237.714 393.543 193.794 381.195 154.928C378.644 146.907 373.148 139.761 366.655 134.238C359.203 127.871 350.018 124.952 340.605 122.791C334.397 121.368 328.135 120.191 321.818 119.26C321.799 119.267 321.779 119.267 321.76 119.26C321.718 119.26 321.676 119.26 321.649 119.26H321.607H321.549H321.465" stroke="black" stroke-width="4.05" stroke-miterlimit="10"/>
<path d="M317.844 101.353L317.149 113.943C317.082 115.173 317.468 116.385 318.234 117.35C319 118.315 320.093 118.966 321.307 119.181H321.465C321.492 119.173 321.521 119.173 321.549 119.181H321.575H321.649" stroke="black" stroke-width="4.05" stroke-miterlimit="10"/>
<path d="M321.76 119.239H321.649H321.607H321.575H321.549H321.465H321.307C320.093 119.025 319 118.373 318.234 117.408C317.468 116.443 317.082 115.231 317.149 114.001L317.844 101.411" stroke="black" stroke-width="4.05" stroke-miterlimit="10"/>
<path d="M288.169 109.685C287.826 109.548 288.169 123.745 279.7 129.911" stroke="black" stroke-width="4.05" stroke-miterlimit="10"/>
<path d="M174.785 291.642H147.655" stroke="black" stroke-width="4.05" stroke-miterlimit="10"/>
<path d="M439.829 291.642H217.024" stroke="black" stroke-width="4.05" stroke-miterlimit="10"/>
<path d="M96.3092 158.348C96.5707 163.663 96.3803 168.991 95.7401 174.274C94.918 180.482 89.1789 188.371 87.9352 194.511C86.1592 203.343 88.8469 212.471 92.5359 220.671C96.9943 230.584 104.019 240.555 103.334 251.906C102.983 256.85 101.512 261.649 99.0323 265.94C96.5525 270.232 93.129 273.903 89.0208 276.675C83.3939 280.44 76.9663 282.84 70.2491 283.684C69.311 283.795 68.3572 283.885 67.4033 283.911C66.8763 283.911 66.3493 283.853 65.8223 283.811C47.957 282.298 29.6332 268.67 29.6754 249.698C29.6754 237.577 38.8873 228.091 40.442 216.328C41.3958 209.135 39.2878 201.662 41.2377 194.679C44.3997 183.528 56.6209 177.446 61.9752 167.18C65.9171 159.602 66.5601 150.759 69.6799 142.812C74.0224 131.745 80.9577 119.097 90.4437 118.043C93.1964 118.355 95.8571 119.223 98.2644 120.594C104.146 123.756 105.642 123.956 106.839 126.775C108.061 129.721 106.238 132.867 103.192 133.811C98.0483 135.439 95.8297 145.89 96.3092 158.348Z" fill="#32FFDA"/>
<path d="M101.479 122.306C116.92 117.832 126.733 124.414 133.753 132.003C140.772 139.592 140.446 148.208 140.446 148.208" stroke="black" stroke-width="4.05" stroke-miterlimit="10"/>
<path d="M149.373 270.73C149.14 282.794 147.611 294.798 144.814 306.535" stroke="black" stroke-width="4.05" stroke-miterlimit="10"/>
<path d="M187.744 368.974C182.089 378.702 168.677 385.611 152.266 389.911C123.144 397.542 84.5887 396.947 63.2874 389.126C18.524 372.721 35.9256 294.161 35.9256 294.161C35.9256 294.161 113.347 279.589 164.972 320.511C169.904 324.409 174.482 328.735 178.653 333.438C184.36 339.894 187.865 345.801 189.52 351.198C191.549 357.922 190.737 363.846 187.744 368.974Z" stroke="black" stroke-width="4.05" stroke-miterlimit="10"/>
<path d="M158.068 388.583C158.068 388.583 130.944 463.876 176.513 483.106C222.083 502.336 9.16981 504.898 56.1677 483.106C103.166 461.315 76.1515 393.184 76.1515 393.184" stroke="black" stroke-width="4.05" stroke-miterlimit="10"/>
<path d="M213.245 132.714C212.681 130.991 212.913 124.999 213.098 121.616C213.133 120.977 213.416 120.377 213.886 119.943C214.356 119.509 214.977 119.276 215.617 119.292L269.756 119.766C270.668 119.774 271.541 120.143 272.183 120.791C272.826 121.44 273.186 122.316 273.186 123.228V163.855C273.186 164.311 273.096 164.762 272.921 165.184C272.746 165.605 272.49 165.987 272.167 166.309C271.843 166.631 271.46 166.885 271.038 167.058C270.616 167.231 270.164 167.319 269.708 167.317L216.95 167.122C216.186 167.091 215.463 166.765 214.934 166.213C214.404 165.661 214.109 164.926 214.11 164.161V161.062C217.862 162.811 224.955 163.349 224.955 163.349C227.48 163.28 231.469 162.975 233.656 161.721C235.659 160.572 238.188 158.922 238.531 156.424C238.663 155.458 238.407 154.479 237.82 153.701C237.232 152.923 236.361 152.409 235.395 152.271C234.815 152.156 234.214 152.198 233.656 152.393" stroke="black" stroke-width="4.05" stroke-miterlimit="10"/>
<path d="M266.082 245.297C266.057 246.022 265.813 246.722 265.381 247.305C264.143 248.828 261.692 248.528 260.027 248.059C253.023 246.067 248.818 253.656 246.172 258.767C239.49 271.689 229.466 283.695 216.961 291.642C216.149 292.169 215.322 292.664 214.484 293.149C202.263 300.2 186.426 298.888 174.606 291.568L189.72 254.441L191.217 255.637C200.344 262.841 211.58 258.799 219.359 251.69C221.518 249.723 223.423 247.494 225.029 245.055C227.706 240.939 229.999 236.496 233.661 233.15C238.731 228.518 246.151 227.611 252.56 229.572C258.968 231.532 266.662 237.835 266.082 245.297Z" fill="white"/>
<path d="M266.019 242.668C266.019 242.668 264.301 233.572 248.812 240.671" stroke="black" stroke-width="4.05" stroke-miterlimit="10"/>
<path d="M257.403 231.748C257.403 231.748 247.748 228.66 242.373 236.038" stroke="black" stroke-width="4.05" stroke-miterlimit="10"/>
<path d="M62.5127 283.826C65.0906 284.056 67.6854 284.014 70.2544 283.7C76.9698 282.844 83.3944 280.439 89.0208 276.675C93.129 273.902 96.5525 270.231 99.0323 265.94C101.512 261.649 102.983 256.85 103.334 251.906C104.019 240.549 97.0102 230.578 92.5359 220.665C88.8469 212.46 86.1592 203.332 87.9405 194.51C89.1789 188.366 94.9074 180.482 95.7348 174.268C96.3785 168.986 96.5724 163.658 96.3145 158.342C95.8349 145.879 98.0483 135.418 103.192 133.826C106.238 132.883 108.067 129.732 106.839 126.791C105.663 123.966 104.151 123.797 98.2644 120.599C82.9182 112.251 72.2464 127.813 66.3546 142.817C63.2295 150.769 62.5971 159.602 58.6498 167.18C53.2955 177.451 41.048 183.517 37.9176 194.69C35.9625 201.667 38.0705 209.145 37.1219 216.328C35.5725 228.086 26.3763 237.566 26.35 249.698C26.3078 268.665 44.6527 282.303 62.5127 283.826Z" stroke="black" stroke-width="4.05" stroke-miterlimit="10"/>
<path d="M187.744 368.974C186.421 378.386 184.45 389.184 182.279 399.993C176.123 430.627 168.292 461.446 168.292 461.446" stroke="black" stroke-width="4.05" stroke-miterlimit="10"/>
<path d="M189.499 351.198C189.525 350.049 189.541 348.995 189.499 347.994C189.03 326.387 173.494 321.222 166.811 319.984C165.814 319.789 164.806 319.66 163.792 319.599" stroke="black" stroke-width="4.05" stroke-miterlimit="10"/>
<path d="M170.611 452.103C171.471 451.576 172.456 451.288 173.464 451.269C174.473 451.25 175.468 451.5 176.347 451.993C177.227 452.487 177.959 453.206 178.468 454.076C178.977 454.947 179.245 455.938 179.243 456.946C179.243 457.02 179.243 457.11 179.243 457.215C179.159 459.817 178.473 462.365 177.24 464.658C176.007 466.951 174.259 468.927 172.134 470.432L164.809 475.644" stroke="black" stroke-width="4.05" stroke-miterlimit="10"/>
<path d="M87.3977 201.477C88.4201 201.061 89.4635 200.692 90.5175 200.35C92.7362 196.249 92.3937 187.275 92.1829 184.013L94.4015 179.011C100.525 182.774 108.631 181.362 116.151 178.743C117.207 178.374 118.234 177.926 119.223 177.404C123.998 175.212 130.691 170.026 127.687 167.349C124.683 164.672 124.894 159.518 126.817 156.356C127.402 155.386 128.44 154.432 129.521 154.732C130.248 154.933 130.717 155.612 131.133 156.24C131.66 157.025 132.187 157.778 132.714 158.548C132.899 158.806 133.199 159.075 133.484 158.959C133.604 158.88 133.698 158.766 133.753 158.632C134.68 156.724 134.506 153.989 134.664 151.897C134.849 149.404 134.991 146.896 135.065 144.393C135.107 143.012 135.392 141.531 136.872 141.046C137.171 140.931 137.493 140.885 137.812 140.913C138.131 140.94 138.44 141.04 138.715 141.204C138.989 141.369 139.223 141.594 139.398 141.862C139.573 142.131 139.684 142.436 139.724 142.754C140.801 148.81 140.959 154.995 140.193 161.099C139.465 167.491 138.153 174.274 134.053 179.428C131.717 182.401 128.587 184.652 125.026 185.92C121.579 187.117 121.69 191.275 121.69 194.921V200.977C132.288 203.127 142.243 205.72 150.474 213.098C155.918 218.074 161.041 223.392 165.81 229.018C180.824 246.636 184.071 249.94 191.301 255.637C200.429 262.841 211.67 258.799 219.443 251.69C221.598 249.722 223.499 247.493 225.103 245.055C227.78 240.939 230.072 236.496 233.73 233.15C238.805 228.518 246.225 227.611 252.633 229.572C259.042 231.532 266.746 237.835 266.135 245.297C266.109 246.021 265.867 246.721 265.439 247.305C264.201 248.828 261.75 248.528 260.085 248.059C253.076 246.067 248.876 253.656 246.225 258.767C239.548 271.689 229.519 283.695 217.013 291.642C216.202 292.169 215.38 292.664 214.536 293.149C200.566 301.212 181.836 298.335 169.821 288.063L140.836 263.458" stroke="black" stroke-width="4.05" stroke-miterlimit="10"/>
<path d="M90.5175 200.35C90.5175 200.35 104.362 196.071 121.69 200.993" stroke="black" stroke-width="4.05" stroke-miterlimit="10"/>
<path d="M214.11 161.062C214.11 161.062 214.215 178.98 218.489 185.878" stroke="black" stroke-width="4.05" stroke-miterlimit="10"/>
<path d="M228.154 79.05C224.866 84.6625 225.019 88.6466 225.872 95.1129C225.943 95.6637 225.856 96.2232 225.623 96.7269C225.389 97.2306 225.018 97.658 224.552 97.9599C224.086 98.2617 223.544 98.4257 222.989 98.433C222.434 98.4403 221.888 98.2905 221.414 98.0009C202.442 87.0815 184.687 95.719 162.037 90.3699C153.721 88.4148 143.355 84.3727 136.245 77.8642C133.887 74.3617 132.628 70.2346 132.63 66.012C132.63 48.3101 156.814 33.9546 186.632 33.9546C205.746 33.9546 222.536 39.8517 232.138 48.7369C232.138 48.7369 232.138 48.7369 232.165 48.7686C234.574 52.2321 235.888 56.3388 235.938 60.5576C235.938 66.929 231.216 73.78 228.154 79.05Z" fill="#D7E8F0"/>
<path d="M235.854 60.5679V61.0159C235.743 67.2187 232.639 72.984 228.955 77.9747C226.489 81.3159 223.564 85.0207 224.26 89.1155C224.565 90.9179 225.572 92.5568 225.841 94.3855C226.109 96.2142 225.129 98.454 223.3 98.5488C222.141 98.6068 221.15 97.7794 220.233 97.0679C214.789 92.8519 207.717 91.2709 200.84 90.9969C193.962 90.7229 187.096 91.624 180.213 91.819C170.295 92.1036 160.219 90.8651 151.054 87.076C142.817 83.64 135.307 78.0538 130.364 70.6178C125.51 63.2872 128.382 52.6524 133.558 46.2809C138.417 40.3048 145.447 36.4787 152.661 33.7858C172.06 26.5395 194.205 26.7134 213.34 34.6448C219.021 36.9741 224.502 40.0518 228.771 44.4891C232.934 48.8158 235.817 54.5812 235.854 60.5679Z" stroke="black" stroke-width="4.05" stroke-miterlimit="10"/>
<path d="M156.245 67.6194C160.361 67.6194 163.697 64.2831 163.697 60.1676C163.697 56.0521 160.361 52.7158 156.245 52.7158C152.129 52.7158 148.793 56.0521 148.793 60.1676C148.793 64.2831 152.129 67.6194 156.245 67.6194Z" fill="white"/>
<path d="M180.339 67.6194C184.455 67.6194 187.791 64.2831 187.791 60.1676C187.791 56.0521 184.455 52.7158 180.339 52.7158C176.224 52.7158 172.888 56.0521 172.888 60.1676C172.888 64.2831 176.224 67.6194 180.339 67.6194Z" fill="white"/>
<path d="M204.903 67.6194C209.018 67.6194 212.355 64.2831 212.355 60.1676C212.355 56.0521 209.018 52.7158 204.903 52.7158C200.787 52.7158 197.451 56.0521 197.451 60.1676C197.451 64.2831 200.787 67.6194 204.903 67.6194Z" fill="white"/>
<g opacity="0.54">
<path d="M348.094 372.589L345.064 416.33C343.678 418.971 341.947 421.415 339.915 423.597C339.694 423.518 339.472 423.434 339.256 423.334C338.85 423.197 338.45 423.034 338.07 422.875C331.931 420.182 327.267 415.165 325.907 409.479C324.679 404.499 325.786 399.118 323.415 394.439C320.521 388.673 312.653 385.058 311.689 378.555C310.782 372.468 316.263 366.887 315.378 360.921C314.324 354.176 306.076 350.176 304.532 343.588C303.568 339.493 304.432 334.793 304.068 330.577C303.667 325.861 302.876 321.186 301.702 316.601C313.913 315.715 326.339 322.445 330.297 332.084C333.528 339.989 331.583 349.196 336.621 356.384C339.372 360.278 343.952 363.193 346.323 367.266C347.055 368.538 347.588 369.913 347.904 371.345C347.904 371.446 347.904 371.546 347.941 371.625C347.941 371.788 347.983 371.904 348.004 372.025C348.057 372.389 348.094 372.589 348.094 372.589Z" fill="#32FFDA"/>
<path d="M348.115 372.552C348.115 372.552 348.078 372.373 348.036 372.025C348.072 372.164 348.098 372.305 348.115 372.447C348.123 372.464 348.127 372.482 348.127 372.5C348.127 372.518 348.123 372.536 348.115 372.552Z" fill="#32FFDA"/>
</g>
<path d="M388.457 355.483C386.876 361.164 378.217 364.615 377.174 370.439C376.252 375.603 381.954 380.42 381.01 385.664C380.004 391.287 371.809 394.396 368.8 399.366C366.349 403.403 367.493 408.046 366.228 412.341C364.763 417.221 359.904 421.579 353.496 423.887C353.095 424.029 352.716 424.166 352.31 424.288C352.089 424.351 351.846 424.43 351.625 424.488C349.517 422.744 347.066 419.671 345.08 416.356L348.094 372.589C350.444 370.597 353.132 368.773 355.003 366.56C357.032 364.173 357.975 361.564 358.576 358.829H358.639V358.529C359.519 354.212 359.598 349.691 361.627 345.596C365.743 337.264 378.66 331.457 391.371 332.221C390.172 336.156 389.351 340.197 388.921 344.289C388.557 347.91 389.453 351.967 388.457 355.483Z" fill="#32FFDA"/>
<path d="M358.66 358.492V358.792H358.597L358.66 358.492Z" fill="#3FBDF1"/>
<path d="M358.66 358.492L358.597 358.792C357.996 361.527 357.053 364.136 355.024 366.523C353.153 368.737 350.466 370.56 348.115 372.552C348.125 372.525 348.125 372.495 348.115 372.468C348.098 372.326 348.072 372.185 348.036 372.046C348.036 371.925 347.994 371.809 347.973 371.646C347.973 371.567 347.973 371.467 347.936 371.366C347.62 369.934 347.087 368.559 346.355 367.287C343.983 363.214 339.404 360.299 336.653 356.405C336.653 356.405 337.897 335.878 348.4 329.633C358.36 323.731 358.66 355.077 358.66 358.492Z" fill="#32FFDA" fill-opacity="0.670588"/>
<path d="M358.66 358.492V358.792H358.597L358.66 358.492Z" fill="#3FBDF1"/>
<path d="M348.094 372.468V372.589C348.094 372.589 348.057 372.41 348.015 372.062C348.05 372.195 348.077 372.331 348.094 372.468Z" fill="#3FBDF1"/>
<path d="M347.156 372.589C349.496 370.597 352.215 368.747 354.091 366.539C359.361 360.326 357.327 352.384 360.705 345.57C364.816 337.248 377.743 331.446 390.449 332.205C389.243 336.139 388.42 340.18 387.993 344.273C387.614 347.92 388.52 351.973 387.524 355.503C385.906 361.185 377.279 364.631 376.231 370.454C375.298 375.614 381.016 380.431 380.072 385.669C379.066 391.297 370.876 394.407 367.862 399.371C365.401 403.413 366.555 408.045 365.28 412.351C363.735 417.542 358.36 422.127 351.356 424.293C351.135 424.367 350.892 424.446 350.666 424.504C348.558 422.759 346.107 419.687 344.115 416.367" stroke="black" stroke-width="4.05" stroke-miterlimit="10"/>
<path d="M382.692 338.724C363.746 359.114 354.834 402.101 351.367 424.298C351.082 426.169 350.84 427.882 350.608 429.426" stroke="black" stroke-width="4.05" stroke-miterlimit="10"/>
<path d="M384.441 441.926L375.751 493.356C375.545 494.765 374.846 496.055 373.779 496.997C372.712 497.94 371.346 498.474 369.922 498.505H324.347C322.91 498.472 321.532 497.927 320.461 496.967C319.39 496.008 318.698 494.697 318.508 493.272L310.471 441.921L384.441 441.926Z" stroke="black" stroke-width="4.05" stroke-miterlimit="10"/>
<path d="M392.72 436.182C392.642 437.707 391.991 439.147 390.896 440.212C389.802 441.277 388.345 441.89 386.818 441.926H308.237C306.727 441.89 305.285 441.29 304.195 440.245C303.105 439.199 302.445 437.784 302.345 436.277C302.013 432.588 304.743 429.426 308.237 429.426H386.818C390.28 429.431 393 432.546 392.72 436.182Z" stroke="black" stroke-width="4.05" stroke-miterlimit="10"/>
<path d="M338.982 423.587C342.355 420.24 346.487 412.778 348.315 406.686C349.823 401.664 347.172 396.494 346.56 391.34C345.612 383.271 349.617 374.597 345.396 367.282C343.04 363.203 338.46 360.305 335.71 356.4C330.645 349.206 332.59 340.005 329.354 332.115C325.396 322.466 312.975 315.736 300.769 316.632C301.936 321.219 302.727 325.893 303.136 330.608C303.499 334.824 302.609 339.525 303.589 343.615C305.133 350.202 313.417 354.191 314.435 360.942C315.33 366.908 309.844 372.494 310.746 378.57C311.715 385.084 319.573 388.684 322.477 394.46C324.838 399.145 323.731 404.52 324.953 409.495C326.487 415.713 331.92 421.178 338.982 423.587Z" stroke="black" stroke-width="4.05" stroke-miterlimit="10"/>
<path d="M308.221 324.189C326.408 347.82 334.966 397.616 338.334 423.323C338.619 425.553 338.861 427.597 339.077 429.426" stroke="black" stroke-width="4.05" stroke-miterlimit="10"/>
<path d="M335.699 356.4C335.699 356.4 336.948 335.873 347.446 329.633C357.944 323.394 357.722 358.36 357.722 358.36" stroke="black" stroke-width="4.05" stroke-miterlimit="10"/>
<path d="M347.156 372.589C347.156 372.589 345.011 360.847 348.774 349.301" stroke="black" stroke-width="4.05" stroke-miterlimit="10"/>
</svg>
