<svg width="1343" height="475" viewBox="0 0 1343 475" fill="none" xmlns="http://www.w3.org/2000/svg">
<path d="M1343 237.5C1343 347.129 1288 436 816.5 436C28.5 436 290 347.129 290 237.5C290 127.871 18.5 39 816.5 39C1343 39 1343 127.871 1343 237.5Z" fill="white"/>
<path d="M33.5682 296.587L33.5673 296.586C16.6851 280.712 7.5 259.745 7.5 237.495C7.5 215.25 16.6848 194.283 33.568 178.403C33.568 178.403 33.5681 178.403 33.5681 178.403L189.01 32.2034L189.01 32.2033C205.904 16.3134 228.418 7.5 252.5 7.5C276.583 7.5 299.097 16.3089 315.99 32.1981L471.432 178.408L471.433 178.409C488.315 194.283 497.5 215.25 497.5 237.495C497.5 259.74 488.315 280.712 471.433 296.586L471.432 296.587L315.99 442.797C299.091 458.691 276.577 467.5 252.5 467.5C228.423 467.5 205.909 458.691 189.01 442.797L33.5682 296.587Z" fill="white" stroke="#044334" stroke-width="15"/>
<path d="M583.805 208.818H599.6V239.273H600.055L620.737 208.818H634.146V267H618.35V236.432H618.009L596.987 267H583.805V208.818ZM641.617 267V208.818H657.413V231.545H678.322V208.818H694.117V267H678.322V244.273H657.413V267H641.617ZM700.026 221.545V208.818H750.594V221.545H733.094V267H717.526V221.545H700.026ZM756.539 267V208.818H798.471V221.545H772.335V231.545H796.312V244.273H772.335V254.273H798.357V267H756.539ZM806.305 267V208.818H831.418C835.737 208.818 839.515 209.67 842.754 211.375C845.992 213.08 848.511 215.475 850.31 218.562C852.11 221.65 853.009 225.258 853.009 229.386C853.009 233.553 852.081 237.161 850.225 240.21C848.388 243.259 845.803 245.608 842.469 247.256C839.155 248.903 835.282 249.727 830.85 249.727H815.85V237.455H827.668C829.524 237.455 831.106 237.133 832.413 236.489C833.738 235.826 834.752 234.888 835.452 233.676C836.172 232.464 836.532 231.034 836.532 229.386C836.532 227.72 836.172 226.299 835.452 225.125C834.752 223.932 833.738 223.023 832.413 222.398C831.106 221.754 829.524 221.432 827.668 221.432H822.1V267H806.305ZM858.805 267V208.818H900.737V221.545H874.6V231.545H898.577V244.273H874.6V254.273H900.623V267H858.805ZM962.888 230.636H946.866C946.752 229.311 946.449 228.108 945.957 227.028C945.483 225.949 944.82 225.021 943.968 224.244C943.135 223.449 942.121 222.843 940.928 222.426C939.735 221.991 938.381 221.773 936.866 221.773C934.214 221.773 931.97 222.417 930.133 223.705C928.315 224.992 926.932 226.839 925.985 229.244C925.057 231.65 924.593 234.538 924.593 237.909C924.593 241.47 925.067 244.453 926.013 246.858C926.979 249.244 928.371 251.044 930.19 252.256C932.008 253.449 934.195 254.045 936.752 254.045C938.21 254.045 939.517 253.866 940.673 253.506C941.828 253.127 942.832 252.587 943.684 251.886C944.536 251.186 945.228 250.343 945.758 249.358C946.307 248.354 946.676 247.227 946.866 245.977L962.888 246.091C962.699 248.553 962.008 251.062 960.815 253.619C959.621 256.157 957.926 258.506 955.729 260.665C953.551 262.805 950.853 264.528 947.633 265.835C944.413 267.142 940.673 267.795 936.411 267.795C931.07 267.795 926.279 266.65 922.036 264.358C917.813 262.066 914.47 258.695 912.008 254.244C909.565 249.794 908.343 244.348 908.343 237.909C908.343 231.432 909.593 225.977 912.093 221.545C914.593 217.095 917.964 213.733 922.207 211.46C926.449 209.169 931.184 208.023 936.411 208.023C940.085 208.023 943.466 208.525 946.553 209.528C949.64 210.532 952.349 212 954.678 213.932C957.008 215.845 958.883 218.203 960.303 221.006C961.724 223.809 962.585 227.019 962.888 230.636ZM970.055 267V208.818H985.85V231.545H1006.76V208.818H1022.55V267H1006.76V244.273H985.85V267H970.055ZM1086.42 237.909C1086.42 244.386 1085.16 249.85 1082.64 254.301C1080.12 258.733 1076.72 262.095 1072.44 264.386C1068.16 266.659 1063.39 267.795 1058.12 267.795C1052.82 267.795 1048.03 266.65 1043.75 264.358C1039.49 262.047 1036.1 258.676 1033.58 254.244C1031.08 249.794 1029.83 244.348 1029.83 237.909C1029.83 231.432 1031.08 225.977 1033.58 221.545C1036.1 217.095 1039.49 213.733 1043.75 211.46C1048.03 209.169 1052.82 208.023 1058.12 208.023C1063.39 208.023 1068.16 209.169 1072.44 211.46C1076.72 213.733 1080.12 217.095 1082.64 221.545C1085.16 225.977 1086.42 231.432 1086.42 237.909ZM1070.17 237.909C1070.17 234.424 1069.7 231.489 1068.78 229.102C1067.87 226.697 1066.51 224.879 1064.71 223.648C1062.93 222.398 1060.74 221.773 1058.12 221.773C1055.51 221.773 1053.3 222.398 1051.5 223.648C1049.72 224.879 1048.37 226.697 1047.44 229.102C1046.53 231.489 1046.08 234.424 1046.08 237.909C1046.08 241.394 1046.53 244.339 1047.44 246.744C1048.37 249.131 1049.72 250.949 1051.5 252.199C1053.3 253.43 1055.51 254.045 1058.12 254.045C1060.74 254.045 1062.93 253.43 1064.71 252.199C1066.51 250.949 1067.87 249.131 1068.78 246.744C1069.7 244.339 1070.17 241.394 1070.17 237.909ZM1105.43 248.818V247.455C1105.43 244.33 1105.68 241.839 1106.17 239.983C1106.66 238.127 1107.39 236.64 1108.36 235.523C1109.32 234.386 1110.51 233.364 1111.91 232.455C1113.12 231.659 1114.2 230.892 1115.15 230.153C1116.11 229.415 1116.87 228.629 1117.42 227.795C1117.99 226.962 1118.27 226.015 1118.27 224.955C1118.27 224.008 1118.04 223.174 1117.59 222.455C1117.14 221.735 1116.52 221.176 1115.74 220.778C1114.97 220.381 1114.11 220.182 1113.16 220.182C1112.14 220.182 1111.19 220.419 1110.32 220.892C1109.47 221.366 1108.77 222.019 1108.24 222.852C1107.73 223.686 1107.48 224.652 1107.48 225.75H1092.93C1092.97 221.583 1093.92 218.203 1095.77 215.608C1097.63 212.994 1100.09 211.081 1103.16 209.869C1106.23 208.638 1109.6 208.023 1113.27 208.023C1117.33 208.023 1120.94 208.619 1124.12 209.812C1127.31 210.987 1129.82 212.767 1131.65 215.153C1133.49 217.521 1134.41 220.485 1134.41 224.045C1134.41 226.337 1134.01 228.354 1133.22 230.097C1132.44 231.82 1131.35 233.345 1129.95 234.67C1128.57 235.977 1126.95 237.17 1125.09 238.25C1123.73 239.045 1122.58 239.869 1121.65 240.722C1120.72 241.555 1120.02 242.511 1119.55 243.591C1119.08 244.652 1118.84 245.939 1118.84 247.455V248.818H1105.43ZM1112.36 267.909C1110.17 267.909 1108.28 267.142 1106.71 265.608C1105.16 264.055 1104.39 262.17 1104.41 259.955C1104.39 257.795 1105.16 255.949 1106.71 254.415C1108.28 252.881 1110.17 252.114 1112.36 252.114C1114.45 252.114 1116.28 252.881 1117.87 254.415C1119.48 255.949 1120.3 257.795 1120.32 259.955C1120.3 261.432 1119.91 262.777 1119.15 263.989C1118.41 265.182 1117.45 266.138 1116.25 266.858C1115.06 267.559 1113.76 267.909 1112.36 267.909Z" fill="#0B3324"/>
<rect x="116" y="115" width="263" height="245" stroke="white"/>
<path d="M311.742 291.396C311.502 291.353 311.254 291.328 311 291.328H309.623H302.329H288.909V288.785C288.909 285.883 286.374 283.521 283.258 283.521H280.971V268.981C283.698 267.692 286.275 266.112 288.635 264.248C290.258 262.966 290.457 260.701 289.081 259.189C287.704 257.678 285.274 257.492 283.651 258.774C277.922 263.301 270.621 265.794 263.095 265.794H262.982C245.449 265.794 231.186 252.507 231.186 236.174V226.147C231.88 225.817 232.519 225.384 233.062 224.85C234.374 223.559 235.065 221.797 234.96 220.015C234.408 210.59 238.585 202.995 241.823 201.698C242.269 201.519 242.509 201.459 243.071 202.013C249.999 208.844 260.933 208.61 263.038 208.495C265.144 208.61 276.082 208.844 283.004 202.014C283.567 201.459 283.807 201.52 284.253 201.698C287.491 202.995 291.669 210.59 291.116 220.014C291.011 221.796 291.703 223.558 293.013 224.849C293.556 225.383 294.194 225.815 294.89 226.145V236.174C294.89 237.304 294.819 238.423 294.686 239.53C294.682 239.56 294.676 239.589 294.673 239.619C294.299 242.648 293.435 245.584 292.076 248.378C291.199 250.183 292.059 252.31 293.998 253.127C294.513 253.344 295.053 253.447 295.584 253.447C297.05 253.447 298.452 252.663 299.096 251.337C300.344 248.77 301.25 246.106 301.832 243.374C309.306 242.266 315.037 236.219 315.037 228.948V225.9C315.037 221.266 311.491 217.391 306.794 216.503C307.267 212.833 307.56 208.283 307.188 203.403C306.526 194.714 303.944 187.38 299.514 181.604C294.757 175.401 287.983 171.135 279.334 168.871C281.177 165.699 282.226 162.072 282.226 158.221C282.226 146.209 272.036 136.365 259.265 135.761C256.816 123.875 245.569 115 232.185 115C226.375 115 220.781 116.686 216.118 119.798C211.454 116.686 205.86 115 200.051 115C186.667 115 175.416 123.879 172.968 135.769C160.268 136.444 150.159 146.257 150.159 158.222C150.159 170.415 160.658 180.373 173.697 180.704C177.205 191.337 187.797 198.767 200.051 198.767C205.86 198.767 211.454 197.081 216.117 193.969C217.341 194.785 218.63 195.501 219.968 196.117C218.26 203.649 218.591 211.129 219.282 216.504C214.585 217.392 211.04 221.267 211.04 225.901V228.949C211.04 236.219 216.771 242.265 224.245 243.374C226.638 254.566 234.498 263.936 245.111 268.975V283.521H242.82C239.705 283.521 237.17 285.883 237.17 288.785V291.328H224.123H216.407H215.077C214.826 291.328 214.581 291.352 214.343 291.395C195.733 292.394 181.236 306.649 181.236 324.092C181.236 326.074 182.961 327.681 185.089 327.681C187.217 327.681 188.941 326.074 188.941 324.092C188.941 311.611 198.442 301.215 211.224 298.962V352.822H188.941V337.988C188.941 336.006 187.217 334.399 185.089 334.399C182.961 334.399 181.236 336.006 181.236 337.988V356.411C181.236 358.393 182.961 360 185.089 360H215.077H224.123H283.029C285.157 360 286.882 358.393 286.882 356.411C286.882 354.429 285.157 352.822 283.029 352.822H224.123H218.93V298.506H224.123H237.265C237.744 300.959 240.05 302.826 242.819 302.826H252.617V337.142C252.617 342.49 257.288 346.84 263.028 346.84H263.049C268.79 346.84 273.461 342.49 273.461 337.142V302.827H283.258C286.028 302.827 288.334 300.96 288.813 298.506H302.329H307.148V352.822H302.329H298.744C296.616 352.822 294.891 354.429 294.891 356.411C294.891 358.393 296.616 360 298.744 360H302.329H311H340.988C343.116 360 344.841 358.393 344.841 356.411V324.044C344.841 306.653 330.344 292.418 311.742 291.396ZM302.596 225.596C303.492 225.045 304.266 224.336 304.871 223.501C306.239 223.565 307.333 224.612 307.333 225.9V228.949C307.333 231.972 305.383 234.575 302.596 235.734V225.596ZM293.246 185.777C301.018 195.913 300.02 210.352 298.865 217.591C298.66 207.152 293.943 197.766 287.296 195.105C283.788 193.7 280.089 194.439 277.404 197.086C272.469 201.955 263.457 201.329 263.379 201.324C263.161 201.307 262.929 201.307 262.711 201.323C262.619 201.33 253.611 201.955 248.671 197.084C247.893 196.317 247.028 195.716 246.108 195.275C251.964 192.097 256.474 186.957 258.536 180.707C264.47 180.591 269.881 178.477 274.032 175.067C282.537 176.639 288.996 180.236 293.246 185.777ZM223.481 235.733C220.694 234.573 218.745 231.971 218.745 228.949V225.901C218.745 224.611 219.839 223.564 221.207 223.501C221.811 224.333 222.585 225.041 223.481 225.591V235.733ZM218.723 186.71C217.986 186.08 217.052 185.764 216.117 185.764C215.183 185.764 214.248 186.08 213.512 186.71C209.833 189.857 205.052 191.589 200.051 191.589C190.389 191.589 182.162 185.189 180.488 176.372C180.134 174.504 178.276 173.216 176.26 173.431C175.609 173.499 174.972 173.534 174.366 173.534C165.267 173.534 157.864 166.665 157.864 158.222C157.864 149.779 165.267 142.909 174.366 142.909C174.895 142.909 175.441 142.935 175.99 142.984C177.041 143.078 178.077 142.771 178.873 142.134C179.67 141.496 180.152 140.583 180.209 139.606C180.778 129.834 189.494 122.178 200.051 122.178C205.052 122.178 209.833 123.911 213.512 127.057C214.985 128.318 217.25 128.318 218.723 127.057C222.402 123.911 227.182 122.178 232.185 122.178C242.749 122.178 251.464 129.838 252.027 139.618C252.083 140.6 252.57 141.517 253.373 142.155C254.175 142.794 255.222 143.095 256.275 142.995C266.152 142.034 274.521 149.247 274.521 158.221C274.521 166.665 267.118 173.534 258.019 173.534C257.37 173.534 256.712 173.495 256.006 173.416C253.97 173.185 252.104 174.479 251.75 176.357C250.082 185.183 241.853 191.589 232.184 191.589C227.182 191.589 222.401 189.856 218.723 186.71ZM227.344 198.367C228.929 198.629 230.548 198.767 232.185 198.767C232.721 198.767 233.253 198.748 233.782 198.72C229.878 203.022 227.36 210.032 227.213 217.598C226.461 212.917 225.838 205.651 227.344 198.367ZM252.817 271.731C256.062 272.537 259.468 272.972 262.982 272.972H263.096C266.552 272.972 269.97 272.546 273.266 271.728V283.521H252.817V271.731ZM263.049 339.663H263.028C261.537 339.663 260.322 338.532 260.322 337.142V302.827H265.755V337.142H265.756C265.756 338.532 264.542 339.663 263.049 339.663ZM281.204 294.881C281.204 294.893 281.202 294.905 281.202 294.918C281.202 294.93 281.204 294.942 281.204 294.954V295.649H269.608H256.47H244.875V294.927C244.875 294.923 244.875 294.92 244.875 294.918C244.875 294.915 244.875 294.911 244.875 294.908V290.699H248.909C248.927 290.699 248.945 290.702 248.963 290.702C248.981 290.702 249 290.699 249.018 290.699H277.063C277.082 290.699 277.1 290.702 277.118 290.702C277.136 290.702 277.154 290.699 277.172 290.699H281.204V294.881ZM337.136 352.822H314.853V298.965C327.628 301.227 337.136 311.604 337.136 324.044V352.822Z" fill="#044334"/>
<path d="M230.574 143.708C230.086 137.113 224.379 131.797 217.299 131.342C213.284 131.084 209.457 132.346 206.524 134.896C203.633 137.41 201.975 140.964 201.975 144.647C201.975 146.629 203.7 148.236 205.828 148.236C207.956 148.236 209.68 146.629 209.68 144.647C209.68 142.921 210.427 141.321 211.782 140.142C213.136 138.966 214.902 138.383 216.77 138.503C220.032 138.712 222.662 141.163 222.887 144.202C223.051 146.407 221.986 148.471 220.04 149.722C215.28 152.781 212.439 157.731 212.439 162.963V163.59C212.439 165.572 214.164 167.179 216.292 167.179C218.42 167.179 220.144 165.572 220.144 163.59V162.963C220.144 160.09 221.741 157.349 224.416 155.63C228.624 152.925 230.926 148.468 230.574 143.708Z" fill="#044334"/>
<path d="M216.294 176.571C218.422 176.571 220.147 174.964 220.147 172.982C220.147 171 218.422 169.393 216.294 169.393C214.167 169.393 212.442 171 212.442 172.982C212.442 174.964 214.167 176.571 216.294 176.571Z" fill="#044334"/>
</svg>
