<svg width="528" height="463" viewBox="0 0 528 463" fill="none" xmlns="http://www.w3.org/2000/svg">
<g clip-path="url(#clip0_63_2435)">
<path d="M198.264 6.23267H416.982C448.27 6.23267 473.634 31.5966 473.634 62.8847V88.1102C473.634 102.679 462.66 114.909 448.176 116.482L441.275 117.231C438.608 117.521 436.147 118.801 434.378 120.818C432.664 122.772 431.72 125.282 431.72 127.88V311.443C431.72 326.48 437.461 340.949 447.771 351.895L471.081 376.643C480.711 386.867 486.073 400.382 486.073 414.426V434.468C486.073 447.905 476.951 459.626 463.926 462.925C461.395 463.566 458.79 463.866 456.181 463.818L101.367 457.315H98.623C66.0382 457.315 39.623 430.9 39.623 398.315V371.416V113.717V65.2327C39.623 32.6479 66.0382 6.23267 98.623 6.23267H109.029H198.264Z" fill="white"/>
<path d="M436.466 368.599H373.634V374.474C373.634 381.781 376.944 388.788 382.835 393.954C388.727 399.12 396.718 402.023 405.05 402.023C413.382 402.023 421.373 399.12 427.264 393.954C433.156 388.788 436.466 381.781 436.466 374.474V368.599Z" fill="#044334"/>
<path d="M196.326 401.611C190.69 401.617 185.157 400.288 180.312 397.763" stroke="#044334" stroke-width="4.52" stroke-miterlimit="10"/>
<path d="M165.005 69.0795L164.905 50.703C164.906 43.3959 168.217 36.3883 174.11 31.2214C180.002 26.0544 187.993 23.1511 196.326 23.1499H405.045" stroke="#044334" stroke-width="4.52" stroke-miterlimit="10"/>
<path d="M373.639 374.058V368.594V100.79V50.7031" stroke="#044334" stroke-width="4.52" stroke-miterlimit="10"/>
<path d="M373.639 94.401H436.471V50.703C436.471 43.3967 433.161 36.3897 427.27 31.2233C421.378 26.057 413.387 23.1545 405.055 23.1545C396.723 23.1545 388.732 26.057 382.841 31.2233C376.949 36.3897 373.639 43.3967 373.639 50.703V100.79" fill="#044334"/>
<path d="M373.639 94.401H436.471V50.703C436.471 43.3967 433.161 36.3897 427.27 31.2233C421.378 26.057 413.387 23.1545 405.055 23.1545C396.723 23.1545 388.732 26.057 382.841 31.2233C376.949 36.3897 373.639 43.3967 373.639 50.703V100.79" stroke="#044334" stroke-width="4.52" stroke-miterlimit="10"/>
<path d="M373.634 368.599V374.062C373.634 381.369 376.944 388.376 382.835 393.542C388.727 398.708 396.718 401.611 405.05 401.611" stroke="#044334" stroke-width="4.52" stroke-miterlimit="10"/>
<path d="M210.936 401.611H196.326" stroke="#044334" stroke-width="4.52" stroke-miterlimit="10"/>
<path d="M373.639 368.594H436.471V374.058C436.468 381.364 433.157 388.371 427.265 393.538C421.373 398.705 413.383 401.608 405.05 401.611H253.377" stroke="#044334" stroke-width="4.52" stroke-miterlimit="10"/>
<path d="M338.485 144.285H287.728" stroke="#044334" stroke-width="4.52" stroke-miterlimit="10"/>
<path d="M338.485 161.541H287.728" stroke="#044334" stroke-width="4.52" stroke-miterlimit="10"/>
<path d="M338.485 178.801H287.728" stroke="#044334" stroke-width="4.52" stroke-miterlimit="10"/>
<path d="M338.485 196.057H287.728" stroke="#044334" stroke-width="4.52" stroke-miterlimit="10"/>
<path d="M338.485 213.313H287.728" stroke="#044334" stroke-width="4.52" stroke-miterlimit="10"/>
<path d="M338.485 230.569H287.728" stroke="#044334" stroke-width="4.52" stroke-miterlimit="10"/>
<path d="M338.485 288.222H287.728" stroke="#044334" stroke-width="4.52" stroke-miterlimit="10"/>
<path d="M338.485 296.269H287.728" stroke="#044334" stroke-width="4.52" stroke-miterlimit="10"/>
<path d="M338.485 304.316H287.728" stroke="#044334" stroke-width="4.52" stroke-miterlimit="10"/>
<path d="M338.485 312.363H287.728" stroke="#044334" stroke-width="4.52" stroke-miterlimit="10"/>
<path d="M349.483 121.658H275.885C269.884 121.658 265.019 125.924 265.019 131.186V326.193C265.019 331.455 269.884 335.721 275.885 335.721H349.483C355.484 335.721 360.349 331.455 360.349 326.193V131.186C360.349 125.924 355.484 121.658 349.483 121.658Z" stroke="#044334" stroke-width="4.52" stroke-miterlimit="10"/>
<path d="M280.574 158.291C280.574 158.291 308.674 201.072 297.671 220.758C297.671 220.758 289.587 234.588 271.698 233.213C253.81 231.838 262.944 200.238 246.851 191.872C230.757 183.505 255.964 148.813 256.212 149.086C256.46 149.359 280.574 158.291 280.574 158.291Z" fill="white"/>
<path d="M287.728 104.458H247.579" stroke="#044334" stroke-width="4.52" stroke-miterlimit="10"/>
<path d="M287.728 84.1826H254.058" stroke="#044334" stroke-width="4.52" stroke-miterlimit="10"/>
<path d="M287.728 94.3223H249.353" stroke="#044334" stroke-width="4.52" stroke-miterlimit="10"/>
<path d="M287.728 74.0476H242.304" stroke="#044334" stroke-width="4.52" stroke-miterlimit="10"/>
<path d="M282.823 162.416C255.494 158.448 247.975 181.936 247.975 181.936C247.975 181.936 255.99 195.474 256.191 196.21C256.877 204.354 248.324 204.804 248.324 204.804L218.111 210.36L205.751 193.358C205.751 193.358 196.548 138.97 194.135 139.002C191.722 139.034 193.079 138.164 193.079 138.164C195.455 136.474 194.209 128.52 194.209 128.52C193.86 125.121 200.344 123.843 206.971 122.107C213.597 120.371 210.329 123.927 209.22 128.52C208.111 133.113 206.902 143.336 220.107 144.289C233.313 145.243 234.49 139.854 237.779 135.029C240.05 131.7 238.92 127.205 238.012 124.746C244.204 126.635 250.156 129.08 255.774 132.043C256.65 132.506 257.49 132.969 258.319 133.502C270.188 140.641 276.888 151.207 282.823 162.416Z" fill="#2E2E2E"/>
<path d="M135.21 231.843C135.21 231.843 133.991 232.417 138.088 232.44C142.185 232.463 189.13 229.468 226.311 246.992C226.311 246.992 237.658 252.085 241.829 259.826C241.829 259.826 242.965 260.789 245.23 256.09C247.495 251.391 253.086 236.487 253.086 236.487C253.086 236.487 254.57 235.241 251.434 235.098C248.297 234.954 210.25 231.056 194.235 227.069C178.221 223.083 161.42 221.087 159.16 216.8L159.688 214.096C159.688 214.096 140.179 212.98 139.672 215.758C139.165 218.536 135.21 231.843 135.21 231.843Z" fill="#2E2E2E"/>
<path d="M226.181 94.7209C228.647 92.6904 228.723 89.2492 226.352 87.0347C223.98 84.8202 220.059 84.6711 217.593 86.7016C215.127 88.7321 215.051 92.1734 217.422 94.3878C219.794 96.6023 223.715 96.7514 226.181 94.7209Z" fill="#D7E8F0"/>
<path d="M208.638 92.3741C211.106 90.3419 211.183 86.8977 208.809 84.6814C206.436 82.4651 202.511 82.3158 200.043 84.3481C197.575 86.3804 197.499 89.8245 199.872 92.0409C202.246 94.2572 206.17 94.4064 208.638 92.3741Z" fill="#D7E8F0"/>
<path d="M212.699 114.051C212.699 114.051 212.14 116.796 210.962 121.491C208.053 121.445 204.558 123.806 201.696 123.769C200.482 116.579 202.266 111.023 204.262 107.342C206.448 112.115 209.949 113.639 212.699 114.051Z" fill="#32FFDA"/>
<path d="M259.655 134.136C253.942 131.186 248.081 127.469 241.586 125.885L237.89 124.413C237.89 124.413 237.611 123.797 237.6 123.788C236.914 122.107 235.757 119.871 235.435 118.116C235.04 116.038 235.001 113.921 235.319 111.833C235.847 108.731 237.721 102.203 240.779 100.207C243.329 98.5542 244.343 98.9431 245.853 96.2948C246.909 94.4057 247.437 91.2018 245.536 89.7341C243.424 88.1228 242.442 88.9007 239.823 89.0581C229.86 89.6554 224.405 83.2335 221.005 75.895C220.519 74.6608 219.842 73.4909 218.993 72.4179C217.937 71.2372 216.454 70.9363 215.255 69.9686C214.983 69.7765 214.782 69.5172 214.68 69.2242C214.577 68.9312 214.577 68.618 214.68 68.3249C214.839 68.0578 215.062 67.824 215.334 67.6397C217.726 65.8231 220.568 64.5201 223.634 63.8338C228.485 62.7481 233.568 62.7481 238.418 63.8338C243.638 65.4319 248.052 68.5863 250.89 72.7466C254.945 78.7656 255.753 84.9559 253.155 91.012C250.515 97.2208 247.511 104.513 251.882 110.671C257.706 118.852 261.196 124.589 259.655 134.136Z" fill="#32FFDA"/>
<path d="M216.739 113.93C215.416 114.21 214.041 114.251 212.699 114.051C209.949 113.639 206.443 112.115 204.251 107.342C203.806 106.367 203.452 105.362 203.195 104.337C202.139 100.425 201.817 94.989 202.778 87.4514C202.963 86.0068 203.217 84.5391 203.549 83.076C204.104 80.5286 204.942 78.035 206.052 75.631C206.052 75.631 206.052 75.631 206.052 75.6032C208.813 69.7462 213.481 64.8662 221.105 63.1439C226.82 61.8609 232.841 62.0978 238.403 63.8245C243.622 65.4225 248.036 68.5769 250.874 72.7372C254.929 78.7562 255.737 84.9465 253.139 91.0026C250.499 97.2114 247.495 104.504 251.867 110.662C257.675 118.852 261.18 124.589 259.665 134.136" stroke="black" stroke-width="4.52" stroke-miterlimit="10"/>
<path d="M199.368 124.001C197.472 114.611 200.703 107.888 203.185 104.337" stroke="black" stroke-width="4.52" stroke-miterlimit="10"/>
<path d="M203.544 83.0714C203.544 83.0714 208.555 78.7469 213.94 85.9327" stroke="black" stroke-width="4.52" stroke-miterlimit="10"/>
<path d="M214.685 105.508C216.543 106.897 219.41 106.504 221.185 104.902C223.106 103.156 224.152 100.651 224.881 98.3504C224.933 98.1883 224.981 98.0217 225.023 97.855C222.019 100.989 217.071 101.249 212.768 101.096C212.76 102.234 213.074 103.355 213.682 104.36C213.93 104.795 214.27 105.185 214.685 105.508Z" stroke="black" stroke-width="4.52" stroke-linecap="round" stroke-linejoin="round"/>
<path d="M219.157 82.1177C219.157 82.1177 220.894 79.8027 226.475 81.6964C232.056 83.5901 232.03 86.4005 232.03 86.4005" stroke="black" stroke-width="4.52" stroke-miterlimit="10"/>
<path d="M206.126 87.6042C206.126 87.6042 208.766 86.5208 210.778 87.7292" stroke="black" stroke-width="4.52" stroke-miterlimit="10"/>
<path d="M220.144 89.0489C220.144 89.0489 222.784 87.9609 224.796 89.1693" stroke="black" stroke-width="4.52" stroke-miterlimit="10"/>
<path d="M212.699 114.051C212.699 114.051 211.538 119.236 210.36 123.931C210.191 124.598 210.033 125.255 209.875 125.904C209.099 129.066 208.47 131.876 208.417 132.733C208 139.84 215.53 144.155 222.943 144.285C233.339 144.461 239.712 136.14 239.031 127.617C238.439 126.052 237.843 124.482 237.257 122.917C236.502 120.908 235.499 118.945 235.108 116.838C234.771 114.765 234.8 112.658 235.192 110.592C235.72 107.504 236.565 102.902 239.622 100.906C242.167 99.2579 244.812 98.1976 246.323 95.5539C247.405 93.6649 247.442 91.1924 245.52 89.7294C243.408 88.1181 239.928 88.2153 237.304 88.3728C220.408 89.433 218.111 74.3948 213.623 72.1678C209.927 70.3389 207.008 74.1448 206.078 75.5615L206.041 75.6217C206.044 75.6276 206.046 75.6339 206.046 75.6403C206.046 75.6466 206.044 75.6529 206.041 75.6588C205.872 75.9227 205.788 76.0801 205.788 76.0801" stroke="black" stroke-width="4.52" stroke-miterlimit="10"/>
<path d="M213.106 89.521C213.106 89.521 211.168 94.5307 211.279 95.29C211.39 96.0493 213.465 95.577 213.465 95.577" stroke="black" stroke-width="4.52" stroke-miterlimit="10"/>
<path d="M226.73 95.2339C229.511 92.9443 229.596 89.0634 226.921 86.5656C224.246 84.0678 219.824 83.899 217.044 86.1886C214.263 88.4782 214.178 92.3591 216.852 94.8569C219.527 97.3547 223.95 97.5235 226.73 95.2339Z" stroke="black" stroke-width="4.52" stroke-miterlimit="10"/>
<path d="M209.184 92.8838C211.965 90.5942 212.05 86.7133 209.375 84.2155C206.7 81.7177 202.278 81.5489 199.498 83.8385C196.717 86.1281 196.632 90.009 199.306 92.5068C201.981 95.0046 206.404 95.1734 209.184 92.8838Z" stroke="black" stroke-width="4.52" stroke-miterlimit="10"/>
<path d="M204.183 83.9835C204.437 83.9845 204.691 84.0015 204.943 84.0344C206.261 84.2144 207.447 84.8358 208.253 85.7676C209.059 86.6995 209.42 87.8691 209.262 89.0302C209.132 90.0532 208.574 90.9978 207.697 91.6817C206.819 92.3656 205.684 92.7405 204.51 92.7342C204.256 92.7332 204.002 92.7161 203.75 92.6832C202.433 92.501 201.247 91.8785 200.441 90.9461C199.636 90.0138 199.274 88.8443 199.431 87.6828C199.569 86.6648 200.129 85.727 201.006 85.0488C201.883 84.3705 203.014 83.9995 204.183 84.0066M204.183 82.9602C202.722 82.9569 201.31 83.422 200.213 84.268C199.116 85.1139 198.41 86.2823 198.227 87.5532C198.114 88.3323 198.191 89.1236 198.454 89.8744C198.717 90.6252 199.16 91.3182 199.752 91.9071C200.345 92.496 201.074 92.9673 201.891 93.2896C202.708 93.6118 203.593 93.7776 204.489 93.7759C205.949 93.7804 207.361 93.3163 208.458 92.4711C209.555 91.6259 210.262 90.458 210.445 89.1876C210.644 87.7555 210.2 86.3117 209.206 85.1616C208.213 84.0115 206.749 83.2453 205.123 83.0251C204.812 82.9809 204.498 82.9592 204.183 82.9602Z" fill="white"/>
<path d="M214.949 89.7664L211.269 89.2756" stroke="black" stroke-width="4.52" stroke-miterlimit="10"/>
<path d="M166.093 181.76V165.814H125.368C125.242 165.814 125.125 165.814 124.999 165.814L124.766 165.837C124.762 165.836 124.758 165.835 124.753 165.835C124.749 165.835 124.744 165.836 124.74 165.837C124.661 165.837 124.587 165.865 124.508 165.879C124.435 165.889 124.364 165.906 124.297 165.93C124.227 165.946 124.159 165.97 124.096 165.999C124.064 165.999 124.038 165.999 124.006 166.023C123.974 166.046 123.842 166.083 123.763 166.12C123.664 166.161 123.568 166.209 123.478 166.263C123.395 166.3 123.317 166.345 123.246 166.398C123.124 166.469 123.011 166.551 122.908 166.643C122.792 166.725 122.688 166.818 122.596 166.921C122.503 167.018 122.417 167.12 122.338 167.226C122.258 167.328 122.188 167.435 122.126 167.546C122.058 167.656 122.003 167.772 121.963 167.893C121.915 168.011 121.877 168.132 121.847 168.254C121.794 168.463 121.766 168.675 121.762 168.889L121.556 178.482C121.545 178.59 121.545 178.698 121.556 178.806C121.545 178.853 121.545 178.902 121.556 178.95V178.991C121.554 179.022 121.554 179.053 121.556 179.084C121.565 179.141 121.581 179.197 121.604 179.25C121.613 179.327 121.636 179.402 121.672 179.473C121.745 179.693 121.844 179.905 121.968 180.107C122.081 180.284 122.212 180.451 122.359 180.607C122.434 180.687 122.515 180.763 122.602 180.834C122.684 180.906 122.77 180.974 122.86 181.038L123.024 181.153C123.114 181.204 123.198 181.255 123.299 181.306C123.415 181.371 123.537 181.428 123.663 181.477C123.794 181.532 123.93 181.577 124.069 181.612C124.411 181.705 124.767 181.754 125.125 181.755H132.95L135.353 180.908C136.884 180.908 138.6 180.204 140.137 180.204L141.673 181.931L166.093 181.76Z" fill="#D7E8F0"/>
<path d="M231.048 168.995V178.598C231.048 179.439 230.666 180.245 229.988 180.84C229.31 181.435 228.39 181.769 227.431 181.769H166.098V165.819H227.431C227.906 165.819 228.377 165.901 228.816 166.061C229.255 166.22 229.654 166.454 229.99 166.749C230.326 167.044 230.592 167.395 230.774 167.78C230.955 168.165 231.048 168.578 231.048 168.995Z" fill="#32FFDA"/>
<path d="M166.093 181.76H172.26V214.244H134.967C133.624 214.299 132.279 214.19 130.97 213.92C130.838 213.888 130.701 213.846 130.564 213.804L130.49 213.776C129.456 213.469 128.575 212.857 127.998 212.045C128.001 212.036 128.001 212.026 127.998 212.017L127.882 211.85C128.969 212.077 130.073 212.262 131.171 212.406C131.387 212.447 131.606 212.476 131.826 212.494C132.354 212.559 132.882 212.61 133.436 212.661C133.504 212.67 133.574 212.67 133.642 212.661L134.497 212.725C134.783 212.753 135.071 212.767 135.358 212.767C135.371 212.772 135.384 212.774 135.398 212.774C135.411 212.774 135.425 212.772 135.437 212.767C135.754 212.767 136.066 212.795 136.382 212.804C136.449 212.815 136.517 212.815 136.583 212.804C136.676 212.818 136.77 212.818 136.863 212.804C137.454 212.832 138.051 212.832 138.648 212.804C139.482 212.804 140.311 212.772 141.129 212.73C141.774 212.7 142.416 212.635 143.051 212.536C143.272 212.508 143.491 212.467 143.706 212.415C143.885 212.384 144.061 212.342 144.234 212.29L144.324 212.262C144.661 212.161 144.987 212.031 145.295 211.874C146.541 211.239 147.486 210.022 147.243 208.762C147.112 208.182 146.775 207.652 146.282 207.248C146.24 207.216 146.203 207.179 146.156 207.146L146.119 207.123C145.867 206.929 145.591 206.761 145.295 206.623C144.434 206.244 143.511 205.981 142.56 205.845L142.212 205.785C142.386 205.808 142.565 205.827 142.74 205.855H142.856C144.232 206.063 145.635 206.094 147.022 205.947L147.286 205.924L147.391 205.896C148.138 205.779 148.849 205.525 149.477 205.151C150.105 204.777 150.635 204.291 151.034 203.725C151.107 203.607 151.168 203.485 151.219 203.359C151.251 203.309 151.277 203.256 151.298 203.202C151.421 202.862 151.477 202.506 151.462 202.151C151.463 202.023 151.452 201.897 151.43 201.771C151.365 201.319 151.198 200.884 150.937 200.49C150.677 200.097 150.33 199.753 149.915 199.479C149.777 199.384 149.628 199.302 149.472 199.234C148.871 198.976 148.221 198.819 147.555 198.771H147.428C147.074 198.734 146.694 198.72 146.34 198.701C143.579 198.576 140.828 198.437 138.072 198.312H137.771L133.711 198.127L131.261 198.007H131.097L128.916 197.905C129.159 197.905 129.402 197.928 129.64 197.946H129.846L130.685 197.988C133.045 198.113 135.411 198.234 137.771 198.308H138.072C138.072 198.308 138.072 198.308 138.12 198.308C138.595 198.308 139.075 198.335 139.55 198.349H139.656C140.881 198.377 142.095 198.391 143.32 198.391C144.571 198.448 145.822 198.309 147.016 197.979C147.58 197.796 148.096 197.514 148.532 197.15C148.591 197.109 148.642 197.061 148.685 197.007C149.099 196.646 149.385 196.188 149.508 195.687C149.627 195.116 149.538 194.526 149.255 194.002C149.23 193.933 149.194 193.868 149.149 193.807C148.887 193.371 148.528 192.986 148.093 192.673C147.045 191.989 145.825 191.536 144.535 191.353C143.79 191.219 143.051 191.108 142.296 191.034C142.281 191.029 142.264 191.029 142.248 191.034C141.253 190.934 140.252 190.88 139.249 190.872H138.98C138.452 190.872 137.871 190.872 137.317 190.872C134.677 190.941 132.1 191.372 129.487 191.335C129.46 191.264 129.46 191.188 129.487 191.117C129.515 191.067 129.548 191.019 129.587 190.974C129.687 190.876 129.812 190.8 129.951 190.751C130.798 190.517 131.658 190.321 132.528 190.163C133.412 189.923 134.274 189.623 135.105 189.265C135.384 189.145 135.664 189.011 135.944 188.886C135.965 188.875 135.985 188.863 136.002 188.849C137.068 188.327 138.066 187.706 138.98 186.997L139.212 186.821C139.355 186.709 139.503 186.598 139.635 186.483C140.397 185.887 141.012 185.161 141.441 184.348C141.539 184.141 141.613 183.925 141.662 183.705C141.683 183.636 141.699 183.567 141.71 183.496C141.731 183.375 141.742 183.253 141.742 183.13C141.742 183.015 141.678 182.01 141.657 181.894" fill="#D7E8F0"/>
<path d="M223.999 181.76V208.702C224 208.903 223.987 209.104 223.962 209.304L212.256 211.424C208.766 212.068 207.287 211.559 206.548 209.989C203.829 204.253 196.59 204.433 196.59 204.433L190.872 204.41C189.953 204.41 189.05 204.308 188.142 204.257C187.576 204.228 187.008 204.3 186.474 204.469C185.94 204.637 185.451 204.9 185.037 205.24C184.622 205.58 184.291 205.99 184.064 206.446C183.836 206.902 183.716 207.394 183.712 207.892C183.713 208.652 183.984 209.393 184.487 210.012C184.991 210.631 185.702 211.097 186.521 211.346L190.919 212.114C191.096 212.144 191.262 212.21 191.405 212.306C191.548 212.402 191.663 212.526 191.742 212.668C191.821 212.81 191.861 212.966 191.86 213.124C191.858 213.281 191.814 213.437 191.733 213.577C191.47 213.866 191.131 214.093 190.745 214.239H172.265V181.76H223.999Z" fill="#32FFDA"/>
<path d="M159.736 165.814H166.093H172.26" stroke="black" stroke-width="4.52" stroke-miterlimit="10"/>
<path d="M141.43 181.769H227.425C227.91 181.772 228.391 181.685 228.835 181.515C229.265 181.355 229.654 181.122 229.981 180.829C230.317 180.535 230.583 180.186 230.764 179.801C230.946 179.417 231.038 179.005 231.037 178.588V168.995C231.037 168.579 230.943 168.166 230.762 167.781C230.58 167.397 230.313 167.047 229.978 166.752C229.642 166.458 229.243 166.224 228.804 166.065C228.365 165.906 227.895 165.823 227.42 165.823H125.368C125.242 165.823 125.125 165.823 124.999 165.823L124.766 165.847C124.417 165.898 124.078 165.997 123.763 166.138C123.668 166.18 123.573 166.231 123.478 166.282C123.395 166.319 123.317 166.364 123.246 166.416C123.126 166.491 123.013 166.573 122.908 166.662C122.797 166.748 122.693 166.841 122.596 166.939C122.503 167.037 122.417 167.139 122.338 167.245C122.258 167.347 122.195 167.458 122.126 167.564C122.058 167.671 122.01 167.796 121.963 167.912C121.915 168.03 121.876 168.15 121.847 168.273C121.794 168.481 121.766 168.694 121.762 168.907L121.567 178.51V178.662C121.561 178.716 121.561 178.771 121.567 178.825C121.567 178.889 121.567 178.95 121.567 179.01C121.564 179.041 121.564 179.071 121.567 179.102C121.567 179.153 121.598 179.218 121.614 179.269C121.63 179.32 121.656 179.422 121.683 179.491C121.753 179.705 121.849 179.911 121.968 180.107C122.081 180.284 122.212 180.451 122.359 180.607C122.438 180.681 122.517 180.76 122.602 180.834C122.684 180.906 122.77 180.974 122.86 181.038L123.024 181.153C123.114 181.204 123.198 181.255 123.299 181.306C123.416 181.369 123.538 181.426 123.663 181.478C123.794 181.532 123.93 181.577 124.069 181.612C124.42 181.714 124.787 181.765 125.157 181.765H132.913" stroke="black" stroke-width="4.52" stroke-miterlimit="10"/>
<path d="M127.829 211.832C127.876 211.887 127.924 211.948 127.982 212.008C128.155 212.219 128.347 212.417 128.557 212.6C128.695 212.729 128.843 212.848 129.001 212.957C129.159 213.063 129.323 213.175 129.487 213.267C129.65 213.377 129.828 213.47 130.015 213.545C130.173 213.624 130.326 213.689 130.49 213.758L130.564 213.786C130.75 213.864 130.945 213.926 131.145 213.971C131.317 214.02 131.494 214.059 131.673 214.087C131.745 214.107 131.819 214.121 131.894 214.128C132.06 214.161 132.227 214.184 132.396 214.198C132.606 214.223 132.818 214.234 133.03 214.23H190.719C191.105 214.084 191.444 213.857 191.706 213.568C191.787 213.427 191.83 213.272 191.831 213.115C191.832 212.957 191.792 212.802 191.713 212.66C191.634 212.518 191.519 212.395 191.377 212.298C191.235 212.202 191.069 212.136 190.893 212.105L186.495 211.336C185.675 211.088 184.965 210.622 184.461 210.003C183.958 209.384 183.687 208.643 183.686 207.882C183.69 207.385 183.809 206.893 184.037 206.437C184.265 205.981 184.596 205.571 185.011 205.231C185.425 204.891 185.914 204.628 186.448 204.459C186.982 204.29 187.549 204.218 188.116 204.248C189.024 204.299 189.927 204.391 190.846 204.401L196.564 204.424C196.564 204.424 203.803 204.239 206.522 209.98C207.261 211.549 208.74 212.059 212.23 211.415L223.962 209.295C223.987 209.095 224 208.894 223.999 208.693V181.769H166.093" stroke="black" stroke-width="4.52" stroke-miterlimit="10"/>
<path d="M227.177 140.849V147.039C227.177 147.582 226.931 148.103 226.494 148.487C226.056 148.87 225.462 149.086 224.843 149.086H169.831V138.803H224.843C225.462 138.803 226.056 139.018 226.494 139.402C226.931 139.786 227.177 140.306 227.177 140.849Z" fill="#32FFDA"/>
<path d="M169.831 138.803V149.086H143.431C143.122 149.085 142.816 149.031 142.53 148.926C142.245 148.821 141.986 148.667 141.769 148.474C141.552 148.28 141.381 148.051 141.266 147.799C141.151 147.548 141.093 147.278 141.098 147.007L141.224 140.808C141.235 140.272 141.486 139.761 141.923 139.386C142.359 139.011 142.947 138.801 143.558 138.803H169.831Z" fill="#D7E8F0"/>
<path d="M222.631 149.086V162.24C222.628 163.188 222.197 164.097 221.433 164.768C220.668 165.438 219.631 165.816 218.55 165.819H173.812V149.086H222.631Z" fill="#32FFDA"/>
<path d="M173.812 149.086V165.819H148.5C147.418 165.818 146.381 165.44 145.616 164.769C144.85 164.098 144.42 163.189 144.419 162.24V149.086H173.812Z" fill="#D7E8F0"/>
<path d="M166.093 165.819V181.765" stroke="black" stroke-width="4.52" stroke-miterlimit="10"/>
<path d="M172.26 181.765V214.249" stroke="black" stroke-width="4.52" stroke-miterlimit="10"/>
<path d="M227.177 140.849V147.039C227.177 147.582 226.931 148.103 226.494 148.487C226.056 148.87 225.462 149.086 224.843 149.086H169.831V138.803H224.843C225.462 138.803 226.056 139.018 226.494 139.402C226.931 139.786 227.177 140.306 227.177 140.849Z" stroke="black" stroke-width="4.52" stroke-miterlimit="10"/>
<path d="M169.831 138.803V149.086H143.431C143.122 149.085 142.816 149.031 142.53 148.926C142.245 148.821 141.986 148.667 141.769 148.474C141.552 148.28 141.381 148.051 141.266 147.799C141.151 147.548 141.093 147.278 141.098 147.007L141.224 140.808C141.235 140.272 141.486 139.761 141.923 139.386C142.359 139.011 142.947 138.801 143.558 138.803H169.831Z" stroke="black" stroke-width="4.52" stroke-miterlimit="10"/>
<path d="M222.631 149.086V162.24C222.628 163.188 222.197 164.097 221.433 164.768C220.668 165.438 219.631 165.816 218.55 165.819H173.812V149.086H222.631Z" stroke="black" stroke-width="4.52" stroke-miterlimit="10"/>
<path d="M173.812 149.086V165.819H148.5C147.418 165.818 146.381 165.44 145.616 164.769C144.85 164.098 144.42 163.189 144.419 162.24V149.086H173.812Z" stroke="black" stroke-width="4.52" stroke-miterlimit="10"/>
<path d="M199.119 109.805V115.995C199.123 116.266 199.065 116.535 198.949 116.786C198.834 117.037 198.662 117.265 198.445 117.457C198.228 117.65 197.97 117.803 197.685 117.907C197.4 118.011 197.094 118.065 196.786 118.065H157.186V107.759H196.786C197.404 107.759 197.998 107.974 198.436 108.358C198.873 108.742 199.119 109.262 199.119 109.805Z" fill="#32FFDA" fill-opacity="0.992157"/>
<path d="M157.207 107.754H132.301V118.042H157.207V107.754Z" fill="#D7E8F0"/>
<path d="M194.579 118.065V135.446C194.576 136.394 194.145 137.303 193.38 137.974C192.615 138.645 191.579 139.023 190.497 139.025H161.193V118.065H194.579Z" fill="#32FFDA"/>
<path d="M161.193 118.065V139.025H135.881C135.772 139.034 135.662 139.034 135.553 139.025V118.065H161.193Z" fill="#D7E8F0"/>
<path d="M199.119 109.805V115.995C199.123 116.266 199.065 116.535 198.949 116.786C198.834 117.037 198.662 117.265 198.445 117.457C198.228 117.65 197.97 117.803 197.685 117.907C197.4 118.011 197.094 118.065 196.786 118.065H157.186V107.759H196.786C197.404 107.759 197.998 107.974 198.436 108.358C198.873 108.742 199.119 109.262 199.119 109.805Z" stroke="black" stroke-width="4.52" stroke-miterlimit="10"/>
<path d="M157.207 107.759V118.065H130.807C130.497 118.065 130.191 118.011 129.905 117.906C129.619 117.801 129.36 117.648 129.143 117.454C128.926 117.261 128.755 117.031 128.64 116.779C128.525 116.527 128.468 116.258 128.473 115.986L128.6 109.782C128.611 109.246 128.862 108.736 129.299 108.362C129.735 107.988 130.323 107.779 130.933 107.782L157.207 107.759Z" stroke="black" stroke-width="4.52" stroke-miterlimit="10"/>
<path d="M194.579 118.065V135.446C194.576 136.394 194.145 137.303 193.38 137.974C192.615 138.645 191.579 139.023 190.497 139.025H161.193V118.065H194.579Z" stroke="black" stroke-width="4.52" stroke-miterlimit="10"/>
<path d="M161.193 118.065V139.025H135.881C134.799 139.024 133.761 138.646 132.996 137.975C132.231 137.304 131.801 136.395 131.799 135.446V118.065H161.193Z" stroke="black" stroke-width="4.52" stroke-miterlimit="10"/>
<path d="M190.37 88.5024V92.5675C190.37 92.7442 190.331 92.9192 190.253 93.0824C190.176 93.2456 190.063 93.3938 189.92 93.5186C189.777 93.6433 189.608 93.7421 189.422 93.8093C189.235 93.8765 189.035 93.9108 188.834 93.9102H162.851V87.1597H188.834C189.035 87.1591 189.235 87.1933 189.422 87.2605C189.608 87.3278 189.777 87.4266 189.92 87.5513C190.063 87.676 190.176 87.8243 190.253 87.9875C190.331 88.1507 190.37 88.3257 190.37 88.5024Z" fill="#32FFDA"/>
<path d="M162.851 87.1597H146.494V93.9102H162.851V87.1597Z" fill="#D7E8F0"/>
<path d="M187.387 93.9104V105.323C187.384 105.946 187.101 106.542 186.598 106.982C186.096 107.422 185.415 107.67 184.705 107.671H165.47V93.9104H187.387Z" fill="#32FFDA"/>
<path d="M165.47 93.9058H148.885V107.666H165.47V93.9058Z" fill="#D7E8F0"/>
<path d="M190.37 88.5024V92.5675C190.37 92.7442 190.331 92.9192 190.253 93.0824C190.176 93.2456 190.063 93.3938 189.92 93.5186C189.777 93.6433 189.608 93.7421 189.422 93.8093C189.235 93.8765 189.035 93.9108 188.834 93.9102H162.851V87.1597H188.834C189.035 87.1591 189.235 87.1933 189.422 87.2605C189.608 87.3278 189.777 87.4266 189.92 87.5513C190.063 87.676 190.176 87.8243 190.253 87.9875C190.331 88.1507 190.37 88.3257 190.37 88.5024Z" stroke="black" stroke-width="4.52" stroke-miterlimit="10"/>
<path d="M162.851 87.1599V93.9104H145.517C145.311 93.9099 145.108 93.8732 144.919 93.8027C144.73 93.7321 144.559 93.629 144.417 93.4995C144.274 93.37 144.162 93.2167 144.088 93.0487C144.014 92.8807 143.979 92.7014 143.986 92.5214L144.07 88.4516C144.078 88.1004 144.243 87.7659 144.53 87.5201C144.816 87.2743 145.201 87.1366 145.601 87.1367L162.851 87.1599Z" stroke="black" stroke-width="4.52" stroke-miterlimit="10"/>
<path d="M187.387 93.9104V105.323C187.384 105.946 187.101 106.542 186.598 106.982C186.096 107.422 185.415 107.67 184.705 107.671H165.47V93.9104H187.387Z" stroke="black" stroke-width="4.52" stroke-miterlimit="10"/>
<path d="M165.47 93.9104V107.671H148.848C148.139 107.67 147.459 107.422 146.957 106.982C146.455 106.542 146.173 105.946 146.172 105.323V93.9104H165.47Z" stroke="black" stroke-width="4.52" stroke-miterlimit="10"/>
<path d="M185.808 71.1446V74.543C185.807 74.8411 185.671 75.1265 185.431 75.3373C185.191 75.548 184.865 75.6669 184.525 75.6681H162.819V70.0195H184.525C184.694 70.0195 184.861 70.0486 185.016 70.1052C185.172 70.1617 185.314 70.2446 185.433 70.3491C185.552 70.4535 185.646 70.5776 185.711 70.7141C185.775 70.8506 185.808 70.9969 185.808 71.1446Z" fill="#32FFDA"/>
<path d="M162.825 70.0195H149.667V75.6635H162.825V70.0195Z" fill="#D7E8F0"/>
<path d="M183.316 75.6636V85.1921C183.314 85.712 183.077 86.2099 182.658 86.5776C182.238 86.9452 181.67 87.1528 181.078 87.1552H165.005V75.6636H183.316Z" fill="#32FFDA"/>
<path d="M165.005 75.6636V87.1599H151.124C150.782 87.1611 150.444 87.0928 150.137 86.9602C149.83 86.8277 149.563 86.6345 149.355 86.3959H151.594V75.6636H165.005Z" fill="#D7E8F0"/>
<path d="M185.808 71.1446V74.543C185.807 74.8411 185.671 75.1265 185.431 75.3373C185.191 75.548 184.865 75.6669 184.525 75.6681H162.819V70.0195H184.525C184.694 70.0195 184.861 70.0486 185.016 70.1052C185.172 70.1617 185.314 70.2446 185.433 70.3491C185.552 70.4535 185.646 70.5776 185.711 70.7141C185.775 70.8506 185.808 70.9969 185.808 71.1446Z" stroke="black" stroke-width="4.52" stroke-miterlimit="10"/>
<path d="M162.819 70.0195V75.6635H148.336C148.166 75.6629 147.998 75.6328 147.842 75.5748C147.686 75.5168 147.544 75.4322 147.425 75.3258C147.306 75.2194 147.212 75.0934 147.15 74.9551C147.087 74.8167 147.056 74.6688 147.059 74.5199L147.127 71.1215C147.133 70.8275 147.27 70.5473 147.509 70.3411C147.748 70.135 148.07 70.0195 148.405 70.0195H162.819Z" stroke="black" stroke-width="4.52" stroke-miterlimit="10"/>
<path d="M183.316 75.6636V85.1921C183.314 85.712 183.077 86.2099 182.658 86.5776C182.238 86.9452 181.67 87.1528 181.078 87.1552H165.005V75.6636H183.316Z" stroke="black" stroke-width="4.52" stroke-miterlimit="10"/>
<path d="M165.005 75.6636V87.1599H151.119C150.527 87.155 149.962 86.9455 149.546 86.577C149.129 86.2085 148.896 85.7108 148.896 85.1921V75.6636H165.005Z" stroke="black" stroke-width="4.52" stroke-miterlimit="10"/>
<path d="M158.696 428.46C152.613 428.914 146.529 429.363 140.443 429.807C139.002 429.906 137.658 430.478 136.68 431.41C135.701 432.342 135.161 433.564 135.168 434.831C135.168 435.491 135.316 436.144 135.605 436.754C135.893 437.363 136.316 437.917 136.848 438.383C137.381 438.849 138.013 439.219 138.709 439.471C139.404 439.722 140.15 439.851 140.902 439.85L189.552 439.804C189.744 439.804 189.934 439.764 190.106 439.689C190.279 439.614 190.429 439.505 190.545 439.37C190.661 439.236 190.74 439.079 190.776 438.914C190.811 438.748 190.803 438.577 190.751 438.415C179.373 401.999 173.178 364.489 172.308 326.739" stroke="black" stroke-width="4.52" stroke-miterlimit="10"/>
<path d="M250.325 204.262V204.252" stroke="black" stroke-width="4.52" stroke-miterlimit="10"/>
<path d="M239.068 255.502C238.429 257.947 237.774 260.387 237.083 262.822C236.898 263.479 236.702 264.142 236.512 264.79C229.178 289.949 218.244 315.197 223.74 340.657C231.264 375.493 256.798 412.533 275.616 438.35C276.049 438.952 269.697 439.855 268.884 439.85C254.348 439.739 234.448 439.632 219.067 439.521C217.617 439.512 216.229 439 215.206 438.099C214.183 437.197 213.607 435.978 213.602 434.706V434.623C213.597 433.478 214.056 432.369 214.898 431.493C215.739 430.618 216.908 430.034 218.196 429.845C223.946 429.007 231.977 428.169 235.583 427.335L228.423 420.168C215.952 407.019 202.224 393.55 193.095 378.317C178.781 354.385 170.581 327.804 168.147 300.885C166.816 286.259 167.867 271.54 171.843 257.289" stroke="black" stroke-width="4.52" stroke-miterlimit="10"/>
<path d="M194.579 126.061C196.864 125.048 199.226 124.174 201.649 123.445C204.118 122.7 206.647 122.118 209.215 121.704C209.215 121.704 209.241 121.704 209.262 121.704L209.885 121.602C210.091 121.57 210.292 121.542 210.498 121.519C210.704 121.496 210.815 121.468 210.968 121.449" stroke="black" stroke-width="4.52" stroke-miterlimit="10"/>
<path d="M140.115 214.249C138.746 218.841 137.44 223.451 136.198 228.078C134.494 234.458 132.935 240.862 131.519 247.288C124.655 278.717 121.709 311.094 126.841 342.898C129.292 358.15 133.289 373.179 138.785 387.809C141.534 395.115 144.653 402.302 148.141 409.371C149.134 411.366 156.758 428.469 158.675 428.469" stroke="black" stroke-width="4.52" stroke-miterlimit="10"/>
<path d="M230.625 233.107C230.735 233.113 230.845 233.127 230.952 233.148L231.48 233.213C235.572 233.773 239.765 234.255 243.973 234.602C273.24 237.037 302.692 233.19 300.105 206.716C298.521 190.145 292.185 180.593 284.576 165.763C283.995 164.64 283.413 163.524 282.828 162.416C276.894 151.206 270.193 140.655 258.366 133.487C257.537 132.978 256.698 132.497 255.821 132.029C250.203 129.066 244.251 126.621 238.059 124.732L237.97 124.709" stroke="black" stroke-width="4.52" stroke-miterlimit="10"/>
<path d="M241.75 171.426L255.304 194.247C256.017 195.428 256.32 196.766 256.177 198.096C256.033 199.427 255.449 200.691 254.496 201.734C252.22 204.262 248.72 204.702 245.341 205.438L223.957 209.304L212.256 211.424C208.766 212.068 207.288 211.559 206.548 209.989C203.829 204.252 196.59 204.433 196.59 204.433L190.872 204.41C189.953 204.41 189.05 204.308 188.142 204.257C187.576 204.228 187.008 204.299 186.474 204.468C185.94 204.637 185.451 204.9 185.037 205.24C184.623 205.58 184.291 205.99 184.064 206.446C183.836 206.902 183.716 207.394 183.712 207.892C183.713 208.652 183.984 209.393 184.487 210.012C184.991 210.631 185.702 211.097 186.521 211.346L190.92 212.114C191.096 212.145 191.261 212.211 191.403 212.308C191.546 212.404 191.661 212.528 191.739 212.669C191.818 212.811 191.858 212.966 191.857 213.124C191.856 213.281 191.813 213.437 191.733 213.577C191.471 213.866 191.131 214.093 190.745 214.239H161.114C160.781 214.265 160.46 214.356 160.172 214.505C159.885 214.653 159.638 214.856 159.451 215.099C159.264 215.341 159.141 215.617 159.091 215.907C159.04 216.196 159.064 216.492 159.16 216.772C159.688 218.768 162.302 219.883 164.34 220.397C179.388 224.222 194.494 227.301 209.896 229.824C217.073 231 224.266 232.127 231.475 233.204" stroke="black" stroke-width="4.52" stroke-miterlimit="10"/>
<path d="M132.929 181.769C128.262 183.621 123.726 183.538 121.556 187.751C119.335 192.31 118.323 197.25 118.594 202.201C119.006 208.258 123.573 211.536 130.738 212.346C133.683 212.78 136.673 212.935 139.656 212.809C141.441 212.725 143.352 212.735 144.994 212.073C147.175 211.211 148.262 208.688 146.15 207.183C145.052 206.396 143.547 206.109 142.159 205.864C143.7 205.933 145.168 205.984 146.383 206.007C148.891 206.068 151.43 204.554 151.43 202.192C151.43 199.655 149.054 198.835 146.589 198.724L128.869 197.923L140.569 198.419C143.278 198.539 148.236 198.951 149.297 196.016C149.521 195.386 149.509 194.71 149.264 194.086C149.019 193.462 148.554 192.923 147.935 192.548C145.823 191.256 142.961 191.071 140.49 190.951C136.888 190.704 133.266 190.785 129.682 191.191C130.015 191.113 129.075 191.191 129.381 191.113C132.269 190.316 133.737 190.187 136.245 188.742" stroke="black" stroke-width="4.52" stroke-miterlimit="10"/>
<path d="M132.929 181.769C133.399 181.584 133.985 181.338 134.608 181.102C134.788 181.033 134.983 180.968 135.173 180.899C135.363 180.829 135.543 180.774 135.733 180.713L136.293 180.551L136.573 180.477C136.689 180.44 136.815 180.417 136.932 180.389L137.132 180.357C137.359 180.307 137.588 180.266 137.819 180.237C138.168 180.193 138.522 180.183 138.875 180.204L139.117 180.232C139.177 180.231 139.236 180.239 139.292 180.255C139.408 180.255 139.524 180.297 139.635 180.324C139.766 180.355 139.893 180.397 140.015 180.449C140.217 180.532 140.405 180.638 140.575 180.764C140.631 180.801 140.682 180.843 140.728 180.889C140.895 181.039 141.044 181.203 141.171 181.38C141.171 181.38 144.123 184.899 136.002 188.89" stroke="black" stroke-width="4.52" stroke-miterlimit="10"/>
<path d="M142.365 205.91C142.365 205.91 133.415 205.118 132.084 205.035" stroke="black" stroke-width="4.52" stroke-miterlimit="10"/>
<path d="M134.994 232.681C134.994 232.681 208.56 228.444 239.068 255.502C240.615 256.618 245.763 262.151 236.512 264.794" stroke="black" stroke-width="4.52" stroke-miterlimit="10"/>
<path d="M253.477 235.204C253.477 235.204 247.342 255.576 241.206 262.151" stroke="black" stroke-width="4.52" stroke-miterlimit="10"/>
<path d="M238.323 254.854C238.323 254.854 244.807 258.197 240.161 263.165L236.238 264.794L238.994 255.78L238.323 254.854Z" fill="black"/>
<path d="M260.367 243.705C263.414 215.73 255.705 207.017 249.86 204.35L250.325 204.239C270.853 201.812 275.141 236.255 275.859 244.246L260.367 243.705Z" fill="#D7E8F0"/>
<path d="M260.035 245.904C263.081 217.93 255.705 207.012 249.86 204.364L250.325 204.253C270.853 201.826 275.273 237.908 275.986 245.923L260.035 245.904Z" fill="#D7E8F0"/>
<path d="M230.768 246.158H214.12V331.059H230.768V246.158Z" fill="white"/>
<path d="M250.325 204.252C273.557 201.512 275.986 245.922 275.986 245.922H260.035C262.728 202.498 241.84 206.104 241.84 206.104C242.547 206.007 250.325 204.252 250.325 204.252Z" stroke="black" stroke-width="4.52" stroke-miterlimit="10"/>
<path d="M312.708 249.923H235.15V330.804H312.708V249.923Z" fill="#3FBDF1"/>
<path d="M312.708 245.64H231.047V330.804H312.708V245.64Z" fill="white"/>
<path d="M313.701 249.094V327.633C313.701 329.86 311.219 331.665 308.151 331.665H218.956C215.889 331.665 213.402 329.86 213.402 327.633V249.094C213.402 246.867 215.889 245.061 218.956 245.061H308.151C311.219 245.043 313.701 246.848 313.701 249.094Z" fill="#32FFDA"/>
<path d="M308.933 252.835V324.383C308.937 324.861 308.834 325.336 308.629 325.779C308.424 326.223 308.121 326.626 307.738 326.967C307.355 327.308 306.899 327.58 306.397 327.766C305.894 327.953 305.355 328.05 304.809 328.054H238.582C238.036 328.05 237.497 327.953 236.994 327.766C236.492 327.58 236.036 327.308 235.653 326.967C235.27 326.626 234.968 326.223 234.763 325.779C234.558 325.336 234.454 324.861 234.458 324.383V252.835C234.454 252.357 234.558 251.882 234.763 251.439C234.968 250.995 235.27 250.591 235.653 250.25C236.036 249.909 236.492 249.638 236.994 249.452C237.497 249.265 238.036 249.167 238.582 249.164H304.809C305.355 249.167 305.894 249.265 306.397 249.452C306.899 249.638 307.355 249.909 307.738 250.25C308.121 250.591 308.424 250.995 308.629 251.439C308.834 251.882 308.937 252.357 308.933 252.835Z" fill="#32FFDA" fill-opacity="0.9"/>
<path d="M312.708 245.904H231.042V330.804H312.708V245.904Z" stroke="black" stroke-width="4.52" stroke-miterlimit="10"/>
<path d="M230.704 245.904H214.4V330.804H230.704V245.904Z" stroke="black" stroke-width="4.52" stroke-miterlimit="10"/>
<path d="M214.4 330.804L222.446 320.669L230.704 330.804" stroke="black" stroke-width="4.52" stroke-miterlimit="10"/>
<path d="M222.552 245.904L222.446 320.669" stroke="black" stroke-width="4.52" stroke-miterlimit="10"/>
<path d="M246.851 234.602V245.904" stroke="black" stroke-width="4.52" stroke-miterlimit="10"/>
<path d="M260.214 235.204C260.214 235.204 247.928 235.019 245.684 234.459C245.684 234.459 246.851 233.195 246.851 237.741C246.851 242.288 246.391 245.885 247.484 245.885C248.577 245.885 259.486 245.621 259.486 245.621C259.486 245.621 260.357 244.936 260.193 242.843C260.029 240.751 260.214 235.204 260.214 235.204Z" fill="black"/>
<path d="M91.5341 439.827H436.466" stroke="black" stroke-width="4.52" stroke-miterlimit="10"/>
<path d="M324.319 86.3216C327.754 86.3216 330.539 83.8797 330.539 80.8675C330.539 77.8552 327.754 75.4133 324.319 75.4133C320.884 75.4133 318.099 77.8552 318.099 80.8675C318.099 83.8797 320.884 86.3216 324.319 86.3216Z" fill="#044334"/>
<path d="M308.568 103.087C308.568 99.4239 310.228 95.911 313.182 93.3209C316.135 90.7307 320.142 89.2756 324.319 89.2756C328.496 89.2756 332.502 90.7307 335.456 93.3209C338.41 95.911 340.069 99.4239 340.069 103.087H308.568Z" fill="#044334"/>
<path d="M340.571 70.6956H308.067C305.355 70.6956 303.156 72.6234 303.156 75.0015V103.504C303.156 105.882 305.355 107.81 308.067 107.81H340.571C343.283 107.81 345.481 105.882 345.481 103.504V75.0015C345.481 72.6234 343.283 70.6956 340.571 70.6956Z" stroke="#044334" stroke-width="4.52" stroke-miterlimit="10"/>
<path d="M325.855 350.722L330.459 358.904C330.583 359.122 330.766 359.311 330.991 359.453C331.216 359.596 331.478 359.689 331.753 359.723L342.044 361.033C342.36 361.074 342.657 361.192 342.902 361.372C343.146 361.553 343.328 361.791 343.427 362.057C343.526 362.324 343.537 362.61 343.461 362.882C343.385 363.154 343.223 363.402 342.994 363.598L335.544 369.965C335.346 370.136 335.198 370.346 335.112 370.579C335.027 370.811 335.006 371.058 335.053 371.298L336.811 380.285C336.865 380.561 336.83 380.846 336.71 381.106C336.59 381.366 336.389 381.591 336.13 381.756C335.872 381.921 335.565 382.02 335.246 382.041C334.927 382.061 334.608 382.003 334.324 381.873L325.116 377.627C324.872 377.515 324.6 377.456 324.324 377.456C324.048 377.456 323.776 377.515 323.532 377.627L314.324 381.873C314.04 382.003 313.721 382.061 313.402 382.041C313.083 382.02 312.777 381.921 312.518 381.756C312.259 381.591 312.058 381.366 311.938 381.106C311.818 380.846 311.783 380.561 311.837 380.285L313.595 371.298C313.643 371.058 313.624 370.81 313.538 370.578C313.452 370.346 313.303 370.135 313.104 369.965L305.654 363.598C305.425 363.402 305.264 363.154 305.187 362.882C305.111 362.61 305.122 362.324 305.221 362.057C305.32 361.791 305.502 361.553 305.746 361.372C305.991 361.192 306.288 361.074 306.604 361.033L316.9 359.723C317.175 359.689 317.436 359.596 317.66 359.453C317.885 359.31 318.066 359.122 318.189 358.904L322.793 350.722C322.936 350.474 323.155 350.266 323.425 350.12C323.696 349.974 324.007 349.897 324.324 349.897C324.641 349.897 324.952 349.974 325.223 350.12C325.493 350.266 325.712 350.474 325.855 350.722Z" fill="#044334"/>
<path d="M256.212 371.28H291.176" stroke="#044334" stroke-width="4.52" stroke-miterlimit="10"/>
</g>
<defs>
<clipPath id="clip0_63_2435">
<rect width="528" height="463" fill="white"/>
</clipPath>
</defs>
</svg>
