<svg width="529" height="491" viewBox="0 0 529 491" fill="none" xmlns="http://www.w3.org/2000/svg">
<path d="M57.7357 48.6607C61.5516 21.21 85.8724 1.33423 113.533 3.06103L450.625 24.1049C477.164 25.7617 498.367 46.8275 500.197 73.3554L524.888 431.376C527.075 463.084 501.054 489.574 469.312 487.954L57.7561 466.948C26.7054 465.363 3.68171 437.515 7.96249 406.719L57.7357 48.6607Z" fill="white"/>
<path d="M333.986 95.6134C336.771 93.8646 340.007 92.9174 343.32 92.881C343.894 92.881 344.455 92.9118 345.006 92.9602C344.771 92.001 344.477 90.8746 344.102 89.6514C342.914 89.0716 341.882 88.23 341.087 87.1934C340.292 86.1569 339.757 84.954 339.523 83.6806C339.098 83.7524 338.667 83.7892 338.235 83.7906C336.696 83.7956 335.188 83.3645 333.896 82.5498C333.579 82.4828 333.267 82.3976 332.96 82.2946C332.556 82.3643 332.146 82.4011 331.735 82.4046C329.646 82.4161 327.635 81.6257 326.14 80.2046L322.221 81.5246C322.221 81.5246 332.273 86.4614 333.986 95.6134Z" fill="#32FFDA"/>
<path d="M335.157 382.172C335.155 389.19 332.29 395.92 327.193 400.883C322.096 405.845 315.183 408.635 307.974 408.638H178.566C171.356 408.636 164.442 405.847 159.344 400.884C154.246 395.921 151.381 389.191 151.378 382.172V107.282C151.376 103.805 152.077 100.362 153.443 97.1482C154.808 93.9349 156.81 91.015 159.335 88.5552C161.86 86.0954 164.858 84.1439 168.157 82.8123C171.457 81.4807 174.994 80.795 178.566 80.7944H195.86C198.972 80.7955 201.956 81.9981 204.158 84.1384C206.177 86.0911 207.387 88.6989 207.557 91.4644C207.583 91.6938 207.595 91.9245 207.594 92.1552C207.594 92.3532 207.594 92.5468 207.594 92.7404C207.678 94.4183 208.124 96.06 208.904 97.5584C208.927 97.5936 208.941 97.642 208.963 97.6772C209.909 99.4803 211.349 100.993 213.124 102.047C214.9 103.101 216.941 103.655 219.02 103.648H267.19C268.734 103.65 270.263 103.356 271.689 102.781C273.116 102.206 274.411 101.363 275.502 100.3C276.336 99.4886 277.033 98.5546 277.568 97.532C277.59 97.5131 277.607 97.4889 277.617 97.4616C278.411 95.9958 278.855 94.3744 278.915 92.7184C278.915 92.5732 278.915 92.4412 278.915 92.2784C278.951 85.982 283.887 80.7812 290.364 80.7812H304.968L320.336 80.5964C320.648 77.7364 321.9 74.7268 323.193 72.0692C323.623 71.1492 324.133 70.2661 324.716 69.4292H179.674C174.991 69.4286 170.354 70.3261 166.027 72.0703C161.701 73.8145 157.769 76.3713 154.458 79.5947C151.147 82.8181 148.52 86.6449 146.728 90.8566C144.937 95.0682 144.015 99.5823 144.015 104.141V388.288C144.014 392.847 144.936 397.361 146.727 401.573C148.519 405.785 151.145 409.612 154.457 412.836C157.768 416.059 161.7 418.616 166.026 420.36C170.353 422.104 174.991 423.001 179.674 423H310.799C315.482 423.001 320.119 422.103 324.446 420.359C328.773 418.615 332.704 416.058 336.016 412.835C339.328 409.611 341.955 405.785 343.747 401.573C345.539 397.361 346.462 392.847 346.462 388.288V368.722L335.162 374.992L335.157 382.172Z" fill="#32FFDA"/>
<path d="M339.099 164.355C337.743 162.995 336.432 165.107 335.157 163.664V268.221C335.954 265.366 336.937 262.564 338.1 259.83C338.362 259.232 338.624 258.629 338.895 258.035C339.469 256.808 340.07 255.598 340.703 254.396C340.875 254.053 341.051 253.728 341.236 253.402C341.422 253.076 341.648 252.658 341.86 252.306C342.222 251.664 342.611 251.022 343.008 250.392C343.28 249.917 343.582 249.46 343.881 248.998C344.102 248.632 344.333 248.28 344.577 247.942C344.839 247.528 345.124 247.119 345.399 246.718C345.738 246.221 346.095 245.724 346.448 245.236V170.757C345.092 169.727 343.736 168.645 342.461 167.532C341.3 166.511 340.179 165.455 339.099 164.355Z" fill="#32FFDA"/>
<path d="M345.381 91.6802C343.817 93.5986 341.878 91.9882 339.356 91.9882C337.06 91.9882 335.74 95.605 334.285 94.1486C334.366 94.3422 333.548 97.2286 333.616 97.4222C333.837 98.003 334.036 98.6102 334.212 99.2174V99.2394C334.438 100.018 334.61 100.793 334.759 101.593C334.795 101.774 334.836 101.972 334.859 102.165C334.922 102.575 334.985 103.001 335.021 103.424C335.071 103.815 335.099 104.209 335.107 104.603C335.148 105.043 335.157 105.523 335.157 105.998V136.798C335.526 137.098 335.833 137.464 336.061 137.876C337.869 141.088 339.6 138.681 341.535 141.836C342.565 143.464 344.699 144.735 345.793 143.556C346.195 143.116 346.444 141.233 346.444 140.529V103.314C346.443 101.547 346.309 99.7817 346.041 98.0338C345.96 97.3694 345.526 92.3534 345.381 91.6802Z" fill="#32FFDA"/>
<path d="M207.607 91.5522C208.426 93.0346 208.875 94.6835 208.918 96.3658C208.138 94.8688 207.692 93.2286 207.607 91.5522Z" fill="#3FBDF1"/>
<path d="M278.915 91.5259C278.855 93.1819 278.411 94.8033 277.617 96.2691C277.705 94.6172 278.147 93.0014 278.915 91.5259Z" fill="#3FBDF1"/>
<path d="M451.954 225.774C408.77 238.9 386.446 206.753 386.446 206.753C388.077 204.399 385.609 199.973 385.609 199.973L384.109 192.493C365.03 191.582 347.768 173.48 347.768 173.48C372.452 169.221 361.812 154.829 361.812 154.829L378.829 167.8L380.673 167.642C380.899 145.202 395.413 134.721 399.96 131.17C404.507 127.619 405.285 131.144 405.285 131.144C405.285 131.144 403.287 138.324 411.812 139.319C420.336 140.313 426.579 132.538 426.579 132.538C429.503 126.158 432.87 130.114 432.87 130.114C447.484 137.682 450.128 156.408 453.265 169.494C455.43 178.461 459.552 197.786 462.305 207.202C463.268 210.461 463.075 213.941 461.758 217.08C460.879 219.141 459.546 220.988 457.851 222.491C456.157 223.994 454.143 225.115 451.954 225.774Z" fill="#353642"/>
<path d="M451.954 225.774C408.77 238.9 386.446 206.753 386.446 206.753C388.077 204.399 385.609 199.973 385.609 199.973L384.109 192.493C365.03 191.582 347.768 173.48 347.768 173.48C364.121 165.521 361.812 154.829 361.812 154.829L378.829 167.8L380.673 167.642C380.899 145.202 395.413 134.721 399.96 131.17C404.507 127.619 405.285 131.144 405.285 131.144C405.285 131.144 403.287 138.324 411.812 139.319C420.336 140.313 426.579 132.538 426.579 132.538C429.503 126.158 432.87 130.114 432.87 130.114C447.484 137.682 450.128 156.408 453.265 169.494C455.43 178.461 459.552 197.786 462.305 207.202C463.268 210.461 463.075 213.941 461.758 217.08C460.879 219.141 459.546 220.988 457.851 222.491C456.157 223.994 454.143 225.115 451.954 225.774Z" fill="#353642"/>
<path d="M401.054 112.457C403.753 112.457 405.94 110.327 405.94 107.7C405.94 105.073 403.753 102.944 401.054 102.944C398.356 102.944 396.168 105.073 396.168 107.7C396.168 110.327 398.356 112.457 401.054 112.457Z" fill="#D7E8F0"/>
<path d="M407.712 117.279C407.287 120.324 404.634 122.313 401.868 121.873" stroke="black" stroke-width="4.13" stroke-miterlimit="10"/>
<path d="M374.96 90.7562C375.425 92.8258 376.545 94.7012 378.163 96.1182C379.781 97.5351 381.814 98.4222 383.978 98.6542C384.176 97.8081 384.582 97.0214 385.162 96.3618C387.63 93.6294 388.565 98.8566 396.376 95.2706C407.224 90.2854 411.215 93.339 411.215 93.339C411.568 93.6074 411.477 96.0098 411.518 96.419C411.753 98.905 411.97 101.382 412.237 103.868C412.39 105.382 412.539 106.887 412.689 108.391C412.84 108.14 413.006 107.898 413.186 107.665C414.234 104.317 417.15 100.397 420.87 102.183C421.626 102.558 422.28 103.102 422.777 103.771C425.205 107.01 423.229 110.055 420.594 112.285C419.925 112.98 419.181 113.603 418.375 114.142C418.786 115.022 420.472 118.481 420.472 118.494C420.644 118.846 426.913 112.211 427.383 111.485C428.104 109.695 428.509 107.8 428.581 105.879C428.843 97.9854 425.729 88.719 419.247 84.0726C417.643 82.9198 417.082 81.8286 416.987 80.3018C416.982 80.2196 416.951 80.1407 416.9 80.0757C416.848 80.0106 416.777 79.9623 416.696 79.9371C416.616 79.9119 416.529 79.911 416.448 79.9344C416.367 79.9579 416.295 80.0047 416.241 80.0686C414.135 82.339 409.041 82.009 409.041 82.009C391.413 77.3538 385.329 84.8954 381.74 86.1846C380.279 86.6926 378.682 86.6926 377.22 86.1846C377.125 86.6583 376.898 87.0974 376.564 87.4543C376.23 87.8111 375.802 88.072 375.326 88.2086L375.403 89.0094C375.468 89.624 375.311 90.2415 374.96 90.7562Z" fill="#32FFDA"/>
<path d="M412.784 123.091C411.622 123.971 408.377 126.506 407.079 127.258C406.128 127.818 405.128 128.296 404.092 128.688C396.29 131.553 388.977 125.041 386.296 118.524C384.091 113.152 383.584 107.15 383.743 101.413C383.77 100.819 383.792 100.211 383.842 99.6042C383.836 99.5678 383.836 99.5306 383.842 99.4942C383.866 99.2176 383.908 98.9427 383.969 98.6714C384.165 97.8246 384.572 97.0375 385.153 96.379C387.616 93.651 388.552 98.8782 396.362 95.2878C407.21 90.3026 411.206 93.3562 411.206 93.3562C411.554 93.6246 411.464 96.027 411.504 96.4362C411.739 98.9266 411.956 101.399 412.228 103.885C412.377 105.403 412.526 106.904 412.68 108.409C412.716 108.822 412.756 109.223 412.793 109.632C412.848 108.966 412.976 108.308 413.177 107.669C414.225 104.321 417.141 100.405 420.861 102.187C421.617 102.562 422.271 103.106 422.768 103.775C425.195 107.014 423.22 110.059 420.585 112.289C419.916 112.848 419.209 113.363 418.47 113.829L418.271 113.953L418.37 114.146C418.782 115.026 420.463 118.489 420.463 118.498C420.635 118.85 426.904 112.219 427.379 111.489C429.011 109.035 430.034 106.245 430.366 103.34C430.407 102.975 430.43 102.623 430.443 102.257C430.705 94.3638 427.591 85.0974 421.109 80.451C419.5 79.2982 418.94 78.207 418.849 76.6802C418.844 76.598 418.814 76.5192 418.762 76.4541C418.71 76.389 418.639 76.3407 418.558 76.3155C418.478 76.2903 418.391 76.2894 418.31 76.3128C418.229 76.3363 418.157 76.3831 418.104 76.447C415.997 78.7174 410.899 78.3874 410.899 78.3874C393.293 73.7322 387.187 81.2738 383.602 82.563C380.018 83.8522 376.872 81.4718 376.872 81.4718L377.247 85.3746C377.272 85.6425 377.255 85.9124 377.198 86.1754C377.102 86.6491 376.875 87.0882 376.541 87.4451C376.207 87.8019 375.779 88.0628 375.304 88.1994C375.124 88.2634 374.935 88.3004 374.743 88.3094H374.603C374.637 89.1225 374.746 89.9309 374.929 90.725C375.395 92.7979 376.518 94.6757 378.14 96.093C379.763 97.5102 381.801 98.3953 383.969 98.623" stroke="black" stroke-width="4.13" stroke-miterlimit="10"/>
<path d="M386.45 111.99C389.149 111.99 391.336 109.861 391.336 107.234C391.336 104.607 389.149 102.478 386.45 102.478C383.752 102.478 381.564 104.607 381.564 107.234C381.564 109.861 383.752 111.99 386.45 111.99Z" fill="#D7E8F0"/>
<path d="M403.093 109.478C403.095 109.865 402.98 110.244 402.761 110.567C402.542 110.89 402.23 111.142 401.863 111.292C401.497 111.442 401.093 111.483 400.703 111.409C400.312 111.335 399.954 111.15 399.672 110.877C399.39 110.604 399.197 110.256 399.119 109.877C399.04 109.498 399.079 109.104 399.23 108.747C399.382 108.389 399.639 108.083 399.969 107.868C400.3 107.652 400.688 107.538 401.086 107.538C401.281 107.533 401.475 107.562 401.66 107.621C401.563 107.71 401.486 107.817 401.433 107.936C401.379 108.055 401.35 108.182 401.348 108.312C401.35 108.561 401.454 108.8 401.636 108.975C401.818 109.151 402.064 109.249 402.32 109.249C402.449 109.249 402.577 109.222 402.695 109.171C402.813 109.121 402.919 109.047 403.007 108.954C403.066 109.123 403.095 109.3 403.093 109.478Z" fill="black"/>
<path d="M388.886 108.84C388.885 109.224 388.768 109.6 388.548 109.919C388.328 110.238 388.016 110.486 387.651 110.633C387.286 110.78 386.885 110.818 386.498 110.743C386.11 110.667 385.755 110.482 385.476 110.211C385.197 109.939 385.007 109.593 384.929 109.216C384.852 108.839 384.891 108.448 385.042 108.093C385.193 107.738 385.448 107.434 385.776 107.22C386.104 107.006 386.489 106.892 386.884 106.891C387.145 106.889 387.403 106.938 387.643 107.036C387.507 107.124 387.395 107.243 387.316 107.382C387.238 107.522 387.195 107.678 387.191 107.837C387.192 107.96 387.218 108.082 387.267 108.196C387.316 108.31 387.388 108.413 387.478 108.5C387.568 108.586 387.675 108.655 387.793 108.701C387.911 108.747 388.036 108.771 388.163 108.769C388.288 108.771 388.412 108.748 388.528 108.702C388.644 108.656 388.749 108.588 388.837 108.501C388.867 108.612 388.884 108.725 388.886 108.84Z" fill="black"/>
<path d="M393.845 107.625C393.845 107.625 392.593 113.042 392.444 113.587C391.992 115.347 395.58 114.802 395.58 114.802" stroke="black" stroke-width="4.13" stroke-miterlimit="10"/>
<path d="M398.437 97.4001C398.437 97.4001 404.336 95.2485 407.617 99.5605" stroke="black" stroke-width="4.13" stroke-miterlimit="10"/>
<path d="M378.829 101.708C378.829 101.708 381.867 96.3353 387.237 97.5277" stroke="black" stroke-width="4.13" stroke-miterlimit="10"/>
<path d="M401.054 113.319C404.242 113.319 406.826 110.804 406.826 107.7C406.826 104.597 404.242 102.082 401.054 102.082C397.866 102.082 395.282 104.597 395.282 107.7C395.282 110.804 397.866 113.319 401.054 113.319Z" stroke="black" stroke-width="4.13" stroke-miterlimit="10"/>
<path d="M386.45 112.853C389.638 112.853 392.222 110.337 392.222 107.234C392.222 104.131 389.638 101.615 386.45 101.615C383.262 101.615 380.678 104.131 380.678 107.234C380.678 110.337 383.262 112.853 386.45 112.853Z" stroke="black" stroke-width="4.13" stroke-miterlimit="10"/>
<path d="M386.446 103.415H386.577C387.616 103.431 388.606 103.849 389.329 104.576C390.052 105.303 390.449 106.279 390.432 107.291C390.415 108.303 389.986 109.267 389.24 109.971C388.493 110.675 387.489 111.061 386.45 111.044H386.328C385.289 111.028 384.299 110.611 383.576 109.884C382.852 109.157 382.456 108.18 382.472 107.168C382.489 106.156 382.918 105.192 383.665 104.489C384.412 103.785 385.415 103.399 386.455 103.415M386.455 102.504C385.167 102.484 383.924 102.962 382.999 103.834C382.074 104.705 381.542 105.899 381.521 107.153C381.5 108.406 381.991 109.616 382.887 110.517C383.782 111.417 385.009 111.935 386.296 111.955H386.459C387.747 111.976 388.99 111.497 389.915 110.626C390.84 109.754 391.372 108.56 391.393 107.307C391.414 106.053 390.922 104.843 390.027 103.943C389.131 103.042 387.905 102.524 386.617 102.504H386.455Z" fill="white"/>
<path d="M395.282 107.516L392.218 107.419" stroke="black" stroke-width="4.13" stroke-miterlimit="10"/>
<path d="M399.612 308.815L393.483 345.362L386.843 344.394C385.405 344.173 384.114 343.411 383.249 342.272C382.384 341.132 382.014 339.707 382.219 338.304L382.712 334.384L387.232 302.132C394.591 306.329 399.612 308.815 399.612 308.815Z" fill="#32FFDA"/>
<path d="M369.288 356.05L346.462 368.81L335.162 375.141L331.699 377.082C331.706 377.017 331.706 376.952 331.699 376.888L328.987 378.393L325.498 371.868C324.683 370.361 324.51 368.603 325.017 366.973C325.523 365.343 326.669 363.974 328.205 363.16L367.755 342.08L367.791 342.432L369.288 356.05Z" fill="#32FFDA"/>
<path d="M335.907 265.735C335.659 265.41 335.41 265.093 335.157 264.816C333.724 263.139 332.319 262.013 331.369 260.108C330.613 258.557 330.394 256.808 330.747 255.126C331.1 253.443 332.006 251.918 333.326 250.78C333.873 250.321 334.481 249.938 335.134 249.64" stroke="black" stroke-width="4.13" stroke-miterlimit="10"/>
<path d="M384.041 324.356L382.712 334.375L382.201 338.295C381.996 339.698 382.366 341.123 383.231 342.263C384.096 343.402 385.387 344.165 386.825 344.385L393.465 345.353L399.594 308.807C399.594 308.807 394.572 306.321 387.223 302.114C381.966 299.105 375.471 295.211 368.808 290.723" stroke="black" stroke-width="4.13" stroke-miterlimit="10"/>
<path d="M382.911 333.011C382.911 333.011 375.742 329.249 366.639 323.833" stroke="black" stroke-width="4.13" stroke-miterlimit="10"/>
<g opacity="0.68">
<path d="M335.157 164.223V268.221C333.177 275.34 332.233 282.741 331.731 290.186V164.487C332.843 165.895 333.986 162.876 335.157 164.223Z" fill="#D7E8F0"/>
<path d="M335.157 374.992V380.971C335.155 387.989 332.29 394.719 327.193 399.681C322.096 404.644 315.183 407.434 307.974 407.437H178.566C171.356 407.435 164.442 404.646 159.344 399.683C154.246 394.72 151.381 387.99 151.378 380.971V106.081C151.376 102.604 152.077 99.1604 153.443 95.9471C154.808 92.7338 156.81 89.8139 159.335 87.354C161.86 84.8942 164.858 82.9428 168.157 81.6111C171.457 80.2795 174.994 79.5938 178.566 79.5933H195.86C196.653 79.5955 197.445 79.6721 198.224 79.8221C198.744 79.9284 199.258 80.0665 199.76 80.2357C199.982 80.3193 200.212 80.4029 200.42 80.4909C200.773 80.6334 201.117 80.795 201.451 80.9749C201.853 81.1859 202.241 81.4211 202.613 81.6789C202.861 81.8461 203.096 82.0177 203.322 82.1981C203.548 82.3785 203.896 82.6865 204.158 82.9373L205.966 85.2077C206.132 85.4783 206.283 85.7573 206.418 86.0437L207.078 87.6673C207.169 87.9621 207.255 88.2525 207.318 88.5473L207.481 89.4669C207.503 89.5901 207.517 89.7221 207.53 89.8453C207.535 89.9053 207.535 89.9656 207.53 90.0257C207.557 90.3161 207.58 90.5977 207.58 90.9057V91.0245C207.58 91.2093 207.58 91.3765 207.58 91.5481C207.568 91.5203 207.552 91.495 207.53 91.4733C207.021 90.532 206.365 89.6728 205.587 88.9257C203.469 86.8624 200.596 85.7023 197.6 85.7005H180.971C177.531 85.7022 174.125 86.3638 170.948 87.6475C167.771 88.9312 164.885 90.8119 162.455 93.1819C160.025 95.5519 158.098 98.3649 156.786 101.46C155.473 104.555 154.8 107.872 154.805 111.22V375.854C154.805 382.611 157.561 389.091 162.468 393.87C167.374 398.649 174.03 401.335 180.971 401.339H305.569C312.288 401.337 318.748 398.82 323.612 394.308C328.476 389.796 331.37 383.636 331.695 377.104C331.701 377.039 331.701 376.974 331.695 376.91L335.157 374.992Z" fill="#D7E8F0"/>
<path d="M277.617 96.269C277.617 96.4362 277.617 96.5946 277.617 96.7662C277.601 99.6729 276.403 102.455 274.285 104.505C272.168 106.554 269.303 107.705 266.317 107.705H219.929C213.678 107.705 208.954 102.733 208.927 96.643C208.927 96.5462 208.927 96.4626 208.927 96.3658C209.86 98.1995 211.303 99.742 213.091 100.818C214.879 101.895 216.941 102.462 219.043 102.455H267.19C268.734 102.458 270.263 102.163 271.689 101.588C273.116 101.014 274.411 100.171 275.502 99.107C276.356 98.2747 277.069 97.317 277.617 96.269Z" fill="#D7E8F0"/>
</g>
<path d="M346.462 209.129C362.539 205.948 378.147 202.661 386.446 202.771" stroke="black" stroke-width="4.13" stroke-miterlimit="10"/>
<path d="M331.261 299.8C306.889 280.682 284.773 256.161 294.278 234.799C299.996 221.92 316.919 214.902 335.157 211.096" stroke="black" stroke-width="4.13" stroke-miterlimit="10"/>
<path d="M384.226 193.346C384.624 194.741 386.446 202.775 386.893 204.227C388.547 209.468 367.493 223.332 363.927 226.447C357.527 232.005 351.47 238.261 346.462 245.235C343.131 249.786 340.327 254.681 338.1 259.83C336.936 262.563 335.954 265.366 335.157 268.221C333.177 275.34 332.233 282.741 331.731 290.186C331.333 295.827 331.184 301.489 331.021 307.02C330.687 317.633 330.859 328.307 331.573 338.885C331.622 339.554 331.672 340.205 331.731 340.874C332.294 347.156 333.387 353.382 334.999 359.49V359.53" stroke="black" stroke-width="4.13" stroke-miterlimit="10"/>
<path d="M381.112 168.557C381.794 147.952 391.404 136.952 399.96 131.157C401.625 130.046 403.411 129.118 405.285 128.389" stroke="black" stroke-width="4.13" stroke-miterlimit="10"/>
<path d="M428.771 128.253C429.169 128.398 429.553 128.557 429.941 128.715L430.366 128.895C431.305 129.294 432.219 129.743 433.105 130.242C436.164 131.939 438.836 134.225 440.957 136.961C441.039 137.038 441.106 137.129 441.156 137.229C441.526 137.739 441.888 138.259 442.24 138.795C445.368 143.635 448.284 150.169 450.512 157.715C451.661 161.587 452.58 165.52 453.265 169.494" stroke="black" stroke-width="4.13" stroke-miterlimit="10"/>
<path d="M453.265 169.49C455.43 178.457 459.557 197.786 462.305 207.198C463.269 210.458 463.076 213.939 461.758 217.08C460.879 219.141 459.546 220.988 457.851 222.491C456.157 223.994 454.143 225.115 451.954 225.775L443.777 227.702C442.922 227.907 442.166 228.396 441.639 229.083C439.784 231.47 437.726 233.701 435.488 235.754C400.114 268.173 357.549 234.614 367.755 342.089L367.791 342.441C368.204 346.744 368.703 351.28 369.288 356.05L346.462 368.722L335.162 374.992L331.713 376.91L329.001 378.415L325.511 371.89C324.688 370.383 324.509 368.62 325.014 366.986C325.518 365.351 326.665 363.976 328.205 363.16L331.731 361.255L334.999 359.495L335.157 359.411L346.457 353.322L348.862 352.002" stroke="black" stroke-width="4.13" stroke-miterlimit="10"/>
<path d="M346.466 368.722V387.083C346.465 396.292 342.706 405.123 336.016 411.634C329.327 418.145 320.254 421.803 310.794 421.803H175.741C171.057 421.804 166.418 420.906 162.091 419.162C157.763 417.417 153.83 414.86 150.518 411.635C147.205 408.411 144.578 404.584 142.785 400.371C140.992 396.158 140.069 391.643 140.069 387.083V100.973C140.069 96.4129 140.992 91.8977 142.785 87.6849C144.578 83.4721 147.205 79.6444 150.518 76.4203C153.83 73.1961 157.763 70.6387 162.091 68.8941C166.418 67.1495 171.057 66.2519 175.741 66.2524H327.202" stroke="black" stroke-width="4.13" stroke-miterlimit="10"/>
<path d="M346.462 100.973C346.465 98.5905 346.218 96.2139 345.725 93.8802C345.725 93.8802 345.065 89.995 344.432 88.917" stroke="black" stroke-width="4.13" stroke-miterlimit="10"/>
<path d="M346.462 245.222V209.138V171.505" stroke="black" stroke-width="4.13" stroke-miterlimit="10"/>
<path d="M346.462 100.977V121.336V145.514" stroke="black" stroke-width="4.13" stroke-miterlimit="10"/>
<path d="M382.712 156.36V156.329C378.85 154.643 375.208 152.515 371.864 149.989C357.907 139.536 348.753 124.143 346.394 107.155C346.334 106.735 346.279 106.313 346.231 105.888" stroke="black" stroke-width="4.13" stroke-miterlimit="10"/>
<path d="M335.166 258.101V164.188" stroke="black" stroke-width="4.13" stroke-miterlimit="10"/>
<path d="M335.166 137.801V106.086C335.166 100.308 334.646 93.4621 331.451 89.1017C331.451 89.1017 323.699 79.5845 315.821 79.5845H290.68" stroke="black" stroke-width="4.13" stroke-miterlimit="10"/>
<path d="M300.81 79.5845H290.68C287.563 79.5845 284.574 80.7898 282.37 82.9352C280.166 85.0806 278.928 87.9904 278.928 91.0245C278.928 94.0585 277.69 96.9684 275.486 99.1138C273.282 101.259 270.293 102.464 267.176 102.464H219.346C216.229 102.464 213.24 101.259 211.036 99.1138C208.832 96.9684 207.594 94.0585 207.594 91.0245C207.594 87.9904 206.355 85.0806 204.152 82.9352C201.948 80.7898 198.958 79.5845 195.842 79.5845H178.566C171.35 79.5891 164.431 82.3836 159.331 87.3532C154.231 92.3229 151.367 99.061 151.369 106.086V380.971C151.373 387.991 154.24 394.723 159.339 399.686C164.439 404.65 171.355 407.439 178.566 407.442H307.969C315.181 407.439 322.096 404.65 327.196 399.686C332.296 394.723 335.163 387.991 335.166 380.971V374.996" stroke="black" stroke-width="4.13" stroke-miterlimit="10"/>
<path d="M343.682 67.8848C348.604 69.9352 353.201 76.7156 355.434 81.252C359.574 89.6692 363.186 96.1108 368.09 104.132C372.289 111.009 376.14 118.458 382.744 123.492C386.239 126.195 390.494 127.801 394.948 128.099" stroke="black" stroke-width="4.13" stroke-miterlimit="10"/>
<path d="M210.048 79.5933C210.044 89.0956 207.396 98.4193 202.385 106.574C197.374 114.729 190.187 121.41 181.589 125.908C172.99 130.405 163.3 132.552 153.549 132.119C143.798 131.686 134.349 128.689 126.207 123.448C115.655 114.804 108.898 102.559 107.322 89.2215C105.746 75.8844 109.469 62.4655 117.729 51.7146C125.989 40.9636 138.16 33.6949 151.747 31.3978C165.335 29.1007 179.311 31.9492 190.811 39.3597C196.843 44.2903 201.691 50.4479 205.015 57.3991C208.338 64.3503 210.056 71.9261 210.048 79.5933Z" fill="#32FFDA"/>
<path d="M204.172 79.8C204.17 88.2163 201.825 96.4749 197.388 103.698C192.951 110.922 186.586 116.84 178.97 120.824C171.354 124.808 162.772 126.71 154.135 126.327C145.498 125.943 137.129 123.29 129.917 118.648C120.595 110.985 114.632 100.146 113.246 88.3459C111.861 76.5458 115.158 64.6762 122.463 55.1637C129.769 45.6512 140.531 39.2143 152.549 37.169C164.568 35.1237 176.935 37.6244 187.123 44.16C192.466 48.5275 196.762 53.9818 199.708 60.1393C202.653 66.2967 204.177 73.0076 204.172 79.8Z" fill="#32FFDA"/>
<path d="M262.331 194.244L222.953 200.021C221.997 200.259 220.999 200.282 220.034 200.087C219.068 199.892 218.161 199.484 217.383 198.896C216.604 198.307 215.973 197.553 215.539 196.692C215.106 195.83 214.88 194.883 214.88 193.923L218.998 160.984H277.726C278.205 160.984 278.665 161.17 279.004 161.5C279.343 161.83 279.534 162.278 279.534 162.744L273.916 183.38C273.117 186.013 271.63 188.399 269.599 190.303C267.568 192.208 265.063 193.566 262.331 194.244Z" fill="#2FDE9F"/>
<path d="M228.716 219.795C232.423 219.795 235.428 216.869 235.428 213.261C235.428 209.652 232.423 206.727 228.716 206.727C225.009 206.727 222.003 209.652 222.003 213.261C222.003 216.869 225.009 219.795 228.716 219.795Z" fill="#2FDE9F"/>
<path d="M254.199 219.795C257.906 219.795 260.912 216.869 260.912 213.261C260.912 209.652 257.906 206.727 254.199 206.727C250.492 206.727 247.487 209.652 247.487 213.261C247.487 216.869 250.492 219.795 254.199 219.795Z" fill="#2FDE9F"/>
<path d="M224.327 167.888L218.211 167.092L219.929 154.569C220.038 153.789 219.971 152.996 219.734 152.244C219.497 151.492 219.095 150.799 218.555 150.213C218.016 149.627 217.352 149.162 216.609 148.851C215.867 148.539 215.064 148.389 214.256 148.409L208.986 148.541C208.168 148.561 207.375 148.264 206.782 147.716C206.188 147.167 205.843 146.411 205.822 145.615C205.811 145.221 205.88 144.829 206.025 144.461C206.17 144.092 206.388 143.756 206.667 143.47C206.946 143.184 207.279 142.954 207.649 142.794C208.019 142.633 208.418 142.545 208.823 142.535L214.098 142.403C215.939 142.346 217.767 142.716 219.433 143.481C221.099 144.246 222.554 145.384 223.68 146.803C224.656 148.07 225.362 149.512 225.759 151.047C226.155 152.582 226.234 154.179 225.99 155.744L224.327 167.888Z" fill="#2FDE9F"/>
<path d="M291.322 238.935H195.218C189.886 238.935 185.563 243.142 185.563 248.333V272.59C185.563 277.781 189.886 281.989 195.218 281.989H291.322C296.654 281.989 300.977 277.781 300.977 272.59V248.333C300.977 243.142 296.654 238.935 291.322 238.935Z" fill="#2FDE9F"/>
<path d="M149.584 307.557C162.059 304.037 172.763 290.745 157.783 279.745C157.236 279.358 156.726 279.006 156.237 278.724C157.059 277.941 158.067 277.369 159.171 277.058C160.275 276.747 161.442 276.707 162.565 276.942C162.602 276.942 162.651 276.942 162.687 276.969C162.765 276.977 162.841 276.996 162.913 277.026C164.545 277.391 166.367 278.253 168.396 279.745C183.353 290.745 162.669 305.023 149.584 307.557Z" fill="#32FFDA"/>
<path d="M211.264 249.108C213.675 248.754 216.112 248.586 218.55 248.606C221.836 248.606 223.82 248.839 225.601 249.706C226.531 250.094 227.322 250.74 227.876 251.563C228.43 252.387 228.722 253.351 228.716 254.335C228.716 256.2 227.653 258.035 224.95 259.034V259.1C227.757 259.866 229.47 261.898 229.47 264.565C229.472 265.529 229.236 266.479 228.783 267.337C228.33 268.194 227.673 268.933 226.867 269.493C225.154 270.76 222.284 271.495 217.375 271.495C215.337 271.536 213.3 271.402 211.286 271.094L211.264 249.108ZM217.388 257.402H218.636C221.271 257.402 222.541 256.522 222.541 255.07C222.541 253.75 221.511 252.94 219.427 252.94C218.751 252.928 218.075 252.972 217.407 253.072L217.388 257.402ZM217.388 267.033C217.98 267.091 218.575 267.112 219.169 267.095C221.221 267.095 222.966 266.294 222.966 264.301C222.966 262.4 221.185 261.661 218.857 261.661H217.388V267.033Z" fill="white"/>
<path d="M239.026 248.76V261.52C239.026 264.917 240.228 266.8 242.642 266.8C245.055 266.8 246.303 265.066 246.303 261.52V248.76H252.536V261.168C252.536 268.098 248.974 271.591 242.506 271.591C236.21 271.591 232.856 268.23 232.856 261.031V248.76H239.026Z" fill="white"/>
<path d="M262.109 271.226V262.167L254.855 248.76H261.938L263.886 253.824C264.505 255.391 264.948 256.521 265.463 257.987H265.531C265.983 256.623 266.435 255.347 267.005 253.824L268.885 248.76H275.864L268.302 261.92V271.213L262.109 271.226Z" fill="white"/>
<path d="M162.588 276.942C161.464 276.707 160.298 276.746 159.194 277.057C158.089 277.368 157.081 277.941 156.26 278.724C148.648 285.385 148.3 307.557 148.3 307.557H146.28C146.28 307.557 141.398 281.747 148.635 277.426H148.662C148.784 277.377 149.299 277.157 150.018 276.915C150.018 276.915 150.054 276.915 150.068 276.915C151.005 276.601 151.973 276.381 152.956 276.26C156.183 275.978 159.436 276.208 162.588 276.942Z" fill="#D7E8F0"/>
<path d="M210.048 79.5933C210.047 91.5667 205.848 103.181 198.147 112.517C190.445 121.852 179.701 128.35 167.692 130.936C155.682 133.522 143.125 132.041 132.098 126.737C121.07 121.434 112.231 112.627 107.043 101.771C101.855 90.9145 100.628 78.66 103.564 67.0328C106.501 55.4057 113.425 45.1021 123.193 37.8254C132.961 30.5487 144.987 26.7346 157.284 27.0136C169.58 27.2925 181.411 31.6479 190.82 39.3597C196.844 44.2962 201.686 50.4552 205.008 57.4052C208.329 64.3552 210.049 71.928 210.048 79.5933Z" stroke="black" stroke-width="4.13" stroke-miterlimit="10"/>
<path d="M136.476 352.362V375.242H83.592C82.9707 375.243 82.3556 375.123 81.7826 374.889C81.2096 374.656 80.6903 374.313 80.2551 373.882C79.8198 373.45 79.4774 372.938 79.2478 372.377C79.0183 371.815 78.9063 371.214 78.9183 370.609L79.1804 356.842C79.203 355.65 79.7054 354.514 80.5796 353.68C81.4538 352.845 82.6297 352.379 83.8541 352.38L136.476 352.362Z" fill="#D7E8F0"/>
<path d="M220.372 356.908V370.675C220.372 371.882 219.879 373.039 219.003 373.892C218.126 374.745 216.938 375.225 215.698 375.225H136.476V352.345H215.698C216.313 352.345 216.922 352.463 217.49 352.692C218.058 352.922 218.573 353.258 219.008 353.682C219.442 354.106 219.786 354.609 220.02 355.162C220.254 355.716 220.373 356.309 220.372 356.908Z" fill="#32FFDA"/>
<path d="M144.44 375.225V421.799H93.7665C91.6068 421.794 89.5364 420.959 88.0059 419.476C86.4753 417.993 85.6086 415.981 85.5943 413.879V375.247L144.44 375.225Z" fill="#D7E8F0"/>
<path d="M211.273 375.225V413.857C211.259 415.959 210.392 417.971 208.861 419.454C207.331 420.937 205.26 421.772 203.101 421.777H144.44V375.225H211.273Z" fill="#32FFDA"/>
<path d="M144.002 61.8482C150.009 61.8482 153.263 66.0898 153.263 71.2554C153.263 77.8334 148.657 81.3754 143.703 81.3754C138.392 81.3754 134.338 77.5738 134.338 71.823C134.338 66.4154 137.895 61.8306 143.952 61.8306L144.002 61.8482ZM143.803 66.5298C141.751 66.5298 140.946 68.7694 140.946 71.647C140.946 74.6654 141.9 76.7158 143.902 76.7158C145.71 76.7158 146.655 75.0086 146.655 71.647C146.655 68.721 145.905 66.5298 143.853 66.5298H143.803ZM144.404 94.6018L162.936 61.9494H167.56L149.082 94.6018H144.404ZM168.437 75.0086C174.444 75.0086 177.698 79.2458 177.698 84.4158C177.698 90.9938 173.092 94.5358 168.134 94.5358C162.828 94.5358 158.773 90.7342 158.773 84.935C158.773 79.5714 162.326 74.991 168.387 74.991L168.437 75.0086ZM168.233 79.6902C166.181 79.6902 165.381 81.9298 165.381 84.8074C165.381 87.8258 166.335 89.8762 168.337 89.8762C170.145 89.8762 171.09 88.1162 171.09 84.7546C171.09 81.833 170.34 79.6902 168.288 79.6902H168.233Z" fill="white"/>
<path d="M143.333 307.315C135.256 307.315 120.281 300.896 128.204 292.298C129.041 291.321 130.081 290.527 131.255 289.97L131.319 289.931H131.346C133.241 289.07 135.269 288.52 137.348 288.303C138.018 288.249 138.691 288.269 139.355 288.364C138.298 288.316 137.064 288.875 135.604 290.234C135.346 290.463 135.07 290.754 134.785 291.057C126.88 299.637 135.17 306.624 143.333 307.315Z" fill="#D7E8F0"/>
<path d="M145.412 306.923L144.155 307.157C144.155 307.157 141.163 293.464 135.604 290.225C137.064 288.866 138.316 288.307 139.355 288.355C139.376 288.36 139.398 288.36 139.418 288.355L139.87 288.417L140.029 288.452C145.213 290.005 145.412 306.923 145.412 306.923Z" fill="#3FBDF1"/>
<path d="M144.436 352.358H83.8677C82.6421 352.358 81.4655 352.826 80.5913 353.662C79.7171 354.498 79.2153 355.635 79.194 356.828L78.9409 370.596C78.9295 371.2 79.0419 371.801 79.2717 372.363C79.5014 372.924 79.8439 373.436 80.279 373.867C80.7142 374.298 81.2332 374.641 81.806 374.875C82.3787 375.109 82.9935 375.229 83.6146 375.229H215.693C216.308 375.229 216.916 375.111 217.483 374.882C218.05 374.653 218.566 374.318 219 373.895C219.434 373.472 219.778 372.97 220.013 372.418C220.247 371.865 220.368 371.273 220.367 370.675V356.907C220.367 355.701 219.875 354.544 218.998 353.69C218.122 352.837 216.933 352.358 215.693 352.358H128.263" stroke="black" stroke-width="4.13" stroke-miterlimit="10"/>
<path d="M203.101 421.803H93.762C91.5972 421.796 89.5232 420.956 87.9929 419.465C86.4626 417.975 85.6003 415.955 85.5943 413.848V375.229H211.25V413.848C211.243 415.952 210.383 417.968 208.857 419.458C207.331 420.947 205.262 421.79 203.101 421.803Z" stroke="black" stroke-width="4.13" stroke-miterlimit="10"/>
<path d="M195.435 310.492V319.371C195.435 320.149 195.117 320.896 194.552 321.446C193.986 321.997 193.22 322.306 192.42 322.306H141.299V307.557H192.42C193.22 307.557 193.986 307.866 194.552 308.417C195.117 308.967 195.435 309.714 195.435 310.492Z" fill="#32FFDA"/>
<path d="M141.299 307.557V322.306H107.195C106.795 322.305 106.4 322.227 106.031 322.077C105.662 321.926 105.328 321.706 105.047 321.428C104.767 321.15 104.546 320.821 104.397 320.46C104.248 320.099 104.175 319.712 104.181 319.323L104.343 310.43C104.359 309.662 104.683 308.931 105.247 308.394C105.811 307.856 106.569 307.556 107.358 307.557H141.299Z" fill="#D7E8F0"/>
<path d="M189.568 322.306V347.232C189.563 348.594 189.004 349.898 188.014 350.859C187.024 351.821 185.683 352.361 184.284 352.363H146.443V322.306H189.568Z" fill="#32FFDA"/>
<path d="M146.443 322.306V352.363H113.772C112.375 352.359 111.037 351.817 110.049 350.856C109.062 349.895 108.505 348.592 108.502 347.232V322.306H146.443Z" fill="#D7E8F0"/>
<path d="M136.471 352.358V375.229" stroke="black" stroke-width="4.13" stroke-miterlimit="10"/>
<path d="M144.436 375.229V421.803" stroke="black" stroke-width="4.13" stroke-miterlimit="10"/>
<path d="M195.435 310.492V319.371C195.435 320.149 195.117 320.896 194.552 321.446C193.986 321.997 193.22 322.306 192.42 322.306H141.299V307.557H192.42C193.22 307.557 193.986 307.866 194.552 308.417C195.117 308.967 195.435 309.714 195.435 310.492Z" stroke="black" stroke-width="4.13" stroke-miterlimit="10"/>
<path d="M141.299 307.557V322.306H107.195C106.795 322.305 106.4 322.227 106.031 322.077C105.662 321.926 105.328 321.706 105.047 321.428C104.767 321.15 104.546 320.821 104.397 320.46C104.248 320.099 104.175 319.712 104.181 319.323L104.343 310.43C104.359 309.662 104.683 308.931 105.247 308.394C105.811 307.856 106.569 307.556 107.358 307.557H141.299Z" stroke="black" stroke-width="4.13" stroke-miterlimit="10"/>
<path d="M189.568 322.306V347.232C189.563 348.594 189.004 349.898 188.014 350.859C187.024 351.821 185.683 352.361 184.284 352.363H146.443V322.306H189.568Z" stroke="black" stroke-width="4.13" stroke-miterlimit="10"/>
<path d="M146.443 322.306V352.363H113.772C112.375 352.359 111.037 351.817 110.049 350.856C109.062 349.895 108.505 348.592 108.502 347.232V322.306H146.443Z" stroke="black" stroke-width="4.13" stroke-miterlimit="10"/>
<path d="M151.767 307.553C164.265 304.033 183.498 290.749 168.545 279.749C166.935 278.476 165.067 277.548 163.063 277.025C162.991 276.995 162.915 276.977 162.837 276.973C161.696 276.712 160.507 276.737 159.379 277.045C158.251 277.352 157.222 277.933 156.387 278.733" stroke="black" stroke-width="4.13" stroke-miterlimit="10"/>
<path d="M156.387 278.724C148.77 285.39 148.427 307.553 148.427 307.553H146.402C146.402 307.553 138.867 267.751 156.387 278.724Z" stroke="black" stroke-width="4.13" stroke-miterlimit="10"/>
<path d="M149.738 307.553H148.427C148.427 307.553 148.77 285.39 156.387 278.724C156.918 279.04 157.432 279.383 157.928 279.749C172.907 290.749 162.208 304.055 149.738 307.553Z" stroke="black" stroke-width="4.13" stroke-miterlimit="10"/>
<path d="M148.978 277.193C150.302 276.726 151.676 276.404 153.073 276.234C156.417 275.951 159.786 276.218 163.04 277.021" stroke="black" stroke-width="4.13" stroke-miterlimit="10"/>
<path d="M142.248 307.553C134.062 306.866 120.475 300.891 128.372 292.302C129.21 291.321 130.253 290.525 131.432 289.966C131.472 289.939 131.516 289.918 131.563 289.904C132.237 289.608 132.976 289.482 133.714 289.538C134.451 289.595 135.162 289.831 135.78 290.226" stroke="black" stroke-width="4.13" stroke-miterlimit="10"/>
<path d="M135.757 290.226C141.317 293.455 144.296 307.161 144.296 307.161L145.552 306.919C145.552 306.919 145.249 281.346 135.757 290.226Z" stroke="black" stroke-width="4.13" stroke-miterlimit="10"/>
<path d="M143.482 307.315L144.296 307.161C144.296 307.161 141.317 293.455 135.757 290.226C135.495 290.454 135.219 290.74 134.93 291.044C127.02 299.637 135.314 306.62 143.482 307.315Z" stroke="black" stroke-width="4.13" stroke-miterlimit="10"/>
<path d="M140.164 288.4C139.284 288.266 138.391 288.229 137.502 288.29C135.389 288.511 133.329 289.076 131.409 289.962" stroke="black" stroke-width="4.13" stroke-miterlimit="10"/>
<path d="M408.024 128.64L409.791 131.72C409.791 131.72 407.206 137.317 414.135 138.285C421.064 139.253 430.186 132.622 430.434 128.244C441.079 132.248 446.706 142.324 446.806 153.113C446.986 179.821 411.685 196.013 388.095 193.593C376.239 192.383 365.043 187.292 355.696 180.107C354.448 179.165 353.251 178.175 352.08 177.155C349.711 175.052 347.491 172.795 345.436 170.401C344.372 169.169 343.335 167.909 342.326 166.621" stroke="black" stroke-width="3.77" stroke-miterlimit="10"/>
<path d="M423.152 116.109L429.941 128.715" stroke="black" stroke-width="4.13" stroke-miterlimit="10"/>
<path d="M70.6919 421.799H463.308" stroke="black" stroke-width="4.13" stroke-miterlimit="10"/>
<path d="M341.58 67.1323H341.521C339.334 67.4931 336.703 69.3895 335.338 71.8447C333.774 74.6211 333.593 78.0047 333.259 79.4391C333.223 79.6019 333.186 79.7603 333.168 79.9055C333.13 80.0281 333.099 80.153 333.078 80.2795L333.019 80.4951C332.81 81.1897 332.342 81.7833 331.706 82.1594C331.071 82.5354 330.314 82.667 329.584 82.5282C328.855 82.3894 328.204 81.9903 327.761 81.4091C327.318 80.8279 327.114 80.1065 327.188 79.3863L327.315 78.3831C327.356 78.0223 327.41 77.6835 327.482 77.3447C327.628 76.3619 327.851 75.3911 328.147 74.4407C328.186 74.2915 328.234 74.1446 328.291 74.0007C328.346 73.7736 328.42 73.5514 328.513 73.3363C328.556 73.2208 328.606 73.1077 328.662 72.9975" stroke="black" stroke-width="4.13" stroke-miterlimit="10"/>
<path d="M347.131 87.1746C345.763 88.4506 344.455 89.0871 343.207 89.0842C342.678 89.0849 342.156 88.969 341.679 88.7454C341.231 88.5499 340.828 88.2703 340.491 87.9226C339.361 86.7918 339.406 84.8954 339.944 83.6238C340.333 82.7985 340.86 82.0417 341.503 81.3842C341.707 81.1598 341.905 80.9442 342.082 80.711C342.677 80.0517 343.126 79.2804 343.402 78.445C343.402 78.3966 343.402 78.3526 343.424 78.3042" stroke="black" stroke-width="4.13" stroke-miterlimit="10"/>
<path d="M336.4 65.9004C337.245 66.0544 338.059 66.2436 338.891 66.4284C339.722 66.6132 340.644 66.8684 341.512 67.1324C343.501 67.7046 345.363 68.631 347.004 69.8648C351.461 73.0724 352.396 78.5416 349.183 82.5764" stroke="black" stroke-width="4.13" stroke-miterlimit="10"/>
<path d="M333.259 79.439C333.259 79.4786 333.259 79.5138 333.236 79.5622C333.225 79.71 333.203 79.857 333.173 80.0022L333.073 81.0054C333.014 81.5474 333.114 82.0946 333.36 82.5842C333.606 83.0738 333.988 83.486 334.464 83.7735C334.94 84.0611 335.489 84.2123 336.049 84.2098C336.609 84.2074 337.157 84.0514 337.63 83.7598C337.97 83.5545 338.263 83.2827 338.49 82.9616C338.717 82.6405 338.874 82.277 338.949 81.8942C339.035 81.5202 339.108 81.1154 339.207 80.7326C339.569 79.2454 339.704 77.9166 340.843 76.7726C341.164 76.4488 341.546 76.1888 341.969 76.007C342.075 75.9626 342.185 75.9287 342.299 75.9058" stroke="black" stroke-width="4.13" stroke-miterlimit="10"/>
<path d="M321.177 76.8082V76.6938C321.37 74.7909 321.886 72.9323 322.704 71.1938C323.211 70.1072 323.89 69.105 324.716 68.2238C326.011 66.8024 327.764 65.8526 329.688 65.531C330.244 65.4518 330.791 65.399 331.351 65.3726C333.041 65.3493 334.727 65.5266 336.373 65.9006C335.017 66.0018 332.694 67.4142 331.017 69.1918C330.345 69.8656 329.784 70.6358 329.353 71.4754C329.141 71.9154 328.901 72.3994 328.734 72.8658C328.562 73.2442 328.413 73.627 328.282 74.001C327.889 75.0834 327.55 76.1526 327.292 77.1382C327.175 77.5782 327.066 78.0182 326.98 78.4142C326.84 79.1477 326.428 79.8054 325.822 80.2621C325.216 80.7189 324.459 80.9429 323.694 80.8914C322.916 80.803 322.205 80.4193 321.716 79.8236C321.227 79.228 320.999 78.4686 321.082 77.7102L321.172 76.8082" stroke="black" stroke-width="4.13" stroke-miterlimit="10"/>
<path d="M317.624 153.857C316.856 152.356 316.358 150.711 317.1 149.276C318.777 146.02 324.169 147.745 327.324 145.756C330.036 144.062 329.76 142.051 331.243 139.543C332.974 136.609 336.093 137.783 338.475 139.244C341.517 141.097 348.161 147.604 358.815 154.015C362.129 156.021 365.3 158.242 368.307 160.663C376.682 167.382 397.547 179.025 415.685 147.705" stroke="black" stroke-width="3.84" stroke-miterlimit="10"/>
<path d="M342.764 167.144C341.277 165.67 339.659 164.113 337.571 163.743C335.342 163.343 333.119 164.368 330.863 164.474C325.308 164.72 321.186 159.682 318.325 155.04C318.09 154.666 317.873 154.266 317.642 153.865" stroke="black" stroke-width="3.84" stroke-miterlimit="10"/>
<path d="M329.512 159.959C329.512 159.959 324.201 162.735 321.941 159.88" stroke="black" stroke-width="3.84" stroke-miterlimit="10"/>
<path d="M318.79 155.819C318.79 155.819 323.107 158.679 326.135 156.294" stroke="black" stroke-width="3.84" stroke-miterlimit="10"/>
<path d="M316.788 152.039C316.788 152.039 320.544 154.279 322.158 152.673" stroke="black" stroke-width="3.84" stroke-miterlimit="10"/>
</svg>
