<svg width="1700" height="552" viewBox="0 0 1700 552" fill="none" xmlns="http://www.w3.org/2000/svg">
<g filter="url(#filter0_d_257_8)">
<rect x="4" y="47" width="1441" height="457" rx="228.5" fill="white"/>
</g>
<path d="M1154.61 341.908L1154.61 341.906C1135.72 324.148 1125.5 300.77 1125.5 275.994C1125.5 251.225 1135.72 227.846 1154.61 210.081C1154.61 210.081 1154.61 210.08 1154.61 210.08L1335.29 40.1812L1335.29 40.1811C1354.2 22.3967 1379.44 12.5 1406.5 12.5C1433.56 12.5 1458.8 22.3917 1477.71 40.1749C1477.71 40.1749 1477.71 40.175 1477.71 40.175L1658.39 210.086L1658.39 210.088C1677.28 227.846 1687.5 251.225 1687.5 275.994C1687.5 300.764 1677.28 324.148 1658.39 341.906L1658.39 341.908L1477.71 511.819C1477.71 511.819 1477.71 511.819 1477.71 511.819C1458.79 529.609 1433.56 539.5 1406.5 539.5C1379.44 539.5 1354.21 529.609 1335.29 511.819L1154.61 341.908Z" fill="#30E1A1" stroke="#044334" stroke-width="25"/>
<path d="M308.452 163.818H323.68V182.114C323.68 183.932 323.992 185.419 324.617 186.574C325.261 187.729 326.331 188.581 327.827 189.131C329.343 189.68 331.407 189.955 334.021 189.955C334.494 189.955 335.261 189.945 336.322 189.926C337.401 189.888 338.566 189.841 339.816 189.784C341.066 189.708 342.212 189.623 343.254 189.528C344.314 189.415 345.062 189.292 345.498 189.159V201.091C345.005 201.261 344.191 201.413 343.055 201.545C341.918 201.659 340.697 201.763 339.39 201.858C338.102 201.934 336.947 202 335.924 202.057C334.901 202.095 334.267 202.114 334.021 202.114C328.907 202.114 324.428 201.384 320.583 199.926C316.738 198.468 313.755 196.261 311.634 193.307C309.513 190.352 308.452 186.621 308.452 182.114V163.818ZM342.543 163.818H357.884V222H342.543V163.818ZM367.167 176.545V163.818H417.735V176.545H400.235V222H384.667V176.545H367.167ZM477.309 192.909C477.309 199.386 476.049 204.85 473.531 209.301C471.012 213.733 467.612 217.095 463.332 219.386C459.051 221.659 454.279 222.795 449.013 222.795C443.71 222.795 438.919 221.65 434.638 219.358C430.377 217.047 426.987 213.676 424.468 209.244C421.968 204.794 420.718 199.348 420.718 192.909C420.718 186.432 421.968 180.977 424.468 176.545C426.987 172.095 430.377 168.733 434.638 166.46C438.919 164.169 443.71 163.023 449.013 163.023C454.279 163.023 459.051 164.169 463.332 166.46C467.612 168.733 471.012 172.095 473.531 176.545C476.049 180.977 477.309 186.432 477.309 192.909ZM461.059 192.909C461.059 189.424 460.595 186.489 459.667 184.102C458.758 181.697 457.404 179.879 455.604 178.648C453.824 177.398 451.627 176.773 449.013 176.773C446.4 176.773 444.193 177.398 442.394 178.648C440.614 179.879 439.26 181.697 438.332 184.102C437.423 186.489 436.968 189.424 436.968 192.909C436.968 196.394 437.423 199.339 438.332 201.744C439.26 204.131 440.614 205.949 442.394 207.199C444.193 208.43 446.4 209.045 449.013 209.045C451.627 209.045 453.824 208.43 455.604 207.199C457.404 205.949 458.758 204.131 459.667 201.744C460.595 199.339 461.059 196.394 461.059 192.909ZM500.555 222V163.818H525.782C530.214 163.818 533.935 164.415 536.947 165.608C539.977 166.801 542.259 168.487 543.793 170.665C545.346 172.843 546.123 175.409 546.123 178.364C546.123 180.504 545.649 182.455 544.702 184.216C543.774 185.977 542.468 187.455 540.782 188.648C539.096 189.822 537.127 190.636 534.873 191.091V191.659C537.373 191.754 539.646 192.388 541.691 193.562C543.737 194.718 545.365 196.318 546.577 198.364C547.79 200.39 548.396 202.777 548.396 205.523C548.396 208.705 547.562 211.536 545.896 214.017C544.248 216.498 541.899 218.449 538.85 219.869C535.801 221.29 532.165 222 527.941 222H500.555ZM516.35 209.386H523.737C526.388 209.386 528.377 208.894 529.702 207.909C531.028 206.905 531.691 205.428 531.691 203.477C531.691 202.114 531.379 200.958 530.754 200.011C530.129 199.064 529.238 198.345 528.083 197.852C526.947 197.36 525.574 197.114 523.964 197.114H516.35V209.386ZM516.35 187.341H522.827C524.21 187.341 525.432 187.123 526.492 186.688C527.553 186.252 528.377 185.627 528.964 184.812C529.57 183.979 529.873 182.966 529.873 181.773C529.873 179.973 529.229 178.6 527.941 177.653C526.653 176.688 525.024 176.205 523.055 176.205H516.35V187.341ZM563.992 183.364H576.038C580.943 183.364 585.223 184.15 588.879 185.722C592.553 187.294 595.403 189.509 597.43 192.369C599.475 195.229 600.488 198.591 600.469 202.455C600.488 206.318 599.475 209.718 597.43 212.653C595.403 215.589 592.553 217.881 588.879 219.528C585.223 221.176 580.943 222 576.038 222H554.333V163.818H570.129V209.614H576.038C577.951 209.614 579.551 209.301 580.839 208.676C582.146 208.051 583.13 207.189 583.793 206.091C584.475 204.992 584.807 203.742 584.788 202.341C584.807 200.352 584.068 198.705 582.572 197.398C581.076 196.072 578.897 195.409 576.038 195.409H563.992V183.364ZM620.356 163.818V222H604.56V163.818H620.356ZM643.758 163.818H663.417L676.94 196.773H677.621L691.144 163.818H710.803V222H695.349V188.364H694.894L681.94 221.545H672.621L659.667 188.136H659.212V222H643.758V163.818ZM774.653 192.909C774.653 199.386 773.393 204.85 770.874 209.301C768.355 213.733 764.956 217.095 760.675 219.386C756.395 221.659 751.622 222.795 746.357 222.795C741.054 222.795 736.263 221.65 731.982 219.358C727.721 217.047 724.331 213.676 721.812 209.244C719.312 204.794 718.062 199.348 718.062 192.909C718.062 186.432 719.312 180.977 721.812 176.545C724.331 172.095 727.721 168.733 731.982 166.46C736.263 164.169 741.054 163.023 746.357 163.023C751.622 163.023 756.395 164.169 760.675 166.46C764.956 168.733 768.355 172.095 770.874 176.545C773.393 180.977 774.653 186.432 774.653 192.909ZM758.403 192.909C758.403 189.424 757.939 186.489 757.011 184.102C756.102 181.697 754.747 179.879 752.948 178.648C751.168 177.398 748.971 176.773 746.357 176.773C743.744 176.773 741.537 177.398 739.738 178.648C737.958 179.879 736.603 181.697 735.675 184.102C734.766 186.489 734.312 189.424 734.312 192.909C734.312 196.394 734.766 199.339 735.675 201.744C736.603 204.131 737.958 205.949 739.738 207.199C741.537 208.43 743.744 209.045 746.357 209.045C748.971 209.045 751.168 208.43 752.948 207.199C754.747 205.949 756.102 204.131 757.011 201.744C757.939 199.339 758.403 196.394 758.403 192.909ZM828.964 163.818V222H813.737V163.818H828.964ZM776.691 222L794.532 191.091L776.918 163.818H796.464L808.168 186.545H834.987L846.123 163.818H865.555L848.737 190.864L866.009 222H846.918L836.918 201.091H806.123L795.668 222H776.691ZM872.117 222V163.818H914.049V176.545H887.913V186.545H911.89V199.273H887.913V209.273H913.935V222H872.117ZM920.292 176.545V163.818H970.86V176.545H953.36V222H937.792V176.545H920.292ZM976.805 222V163.818H1018.74V176.545H992.6V186.545H1016.58V199.273H992.6V209.273H1018.62V222H976.805ZM274.209 332.977V306.841H278.3C279.663 306.008 280.894 304.833 281.993 303.318C283.11 301.803 284.057 299.634 284.834 296.812C285.629 293.991 286.216 290.212 286.595 285.477L288.527 260.818H329.663V306.841H335.8V332.977H320.572V319H289.436V332.977H274.209ZM296.368 306.841H314.436V273.545H302.732L301.822 285.477C301.557 289.038 301.15 292.153 300.601 294.824C300.071 297.475 299.436 299.786 298.697 301.756C297.978 303.706 297.201 305.402 296.368 306.841ZM341.141 319V260.818H383.072V273.545H356.936V283.545H380.913V296.273H356.936V306.273H382.959V319H341.141ZM388.974 319V306.841L390.565 306.614C392.497 306.311 394.098 305.477 395.366 304.114C396.654 302.731 397.639 300.544 398.321 297.551C399.022 294.54 399.467 290.439 399.656 285.25L400.565 260.818H442.724V319H427.497V273.091H415.111L414.202 291.386C413.861 298.167 412.952 303.574 411.474 307.608C409.997 311.642 407.753 314.549 404.741 316.33C401.73 318.11 397.762 319 392.838 319H388.974ZM465.317 319H448.271L467.476 260.818H489.067L508.271 319H491.226L478.499 276.841H478.044L465.317 319ZM462.135 296.045H494.18V307.864H462.135V296.045ZM504.94 273.545V260.818H555.509V273.545H538.009V319H522.44V273.545H504.94ZM571.453 280.364H583.499C588.404 280.364 592.684 281.15 596.339 282.722C600.014 284.294 602.864 286.509 604.891 289.369C606.936 292.229 607.949 295.591 607.93 299.455C607.949 303.318 606.936 306.718 604.891 309.653C602.864 312.589 600.014 314.881 596.339 316.528C592.684 318.176 588.404 319 583.499 319H561.794V260.818H577.589V306.614H583.499C585.411 306.614 587.012 306.301 588.3 305.676C589.607 305.051 590.591 304.189 591.254 303.091C591.936 301.992 592.268 300.742 592.249 299.341C592.268 297.352 591.529 295.705 590.033 294.398C588.536 293.072 586.358 292.409 583.499 292.409H571.453V280.364ZM687.178 282.636H671.155C671.041 281.311 670.738 280.108 670.246 279.028C669.772 277.949 669.109 277.021 668.257 276.244C667.424 275.449 666.411 274.843 665.217 274.426C664.024 273.991 662.67 273.773 661.155 273.773C658.503 273.773 656.259 274.417 654.422 275.705C652.604 276.992 651.221 278.839 650.274 281.244C649.346 283.65 648.882 286.538 648.882 289.909C648.882 293.47 649.356 296.453 650.303 298.858C651.268 301.244 652.661 303.044 654.479 304.256C656.297 305.449 658.484 306.045 661.041 306.045C662.5 306.045 663.806 305.866 664.962 305.506C666.117 305.127 667.121 304.587 667.973 303.886C668.825 303.186 669.517 302.343 670.047 301.358C670.596 300.354 670.965 299.227 671.155 297.977L687.178 298.091C686.988 300.553 686.297 303.062 685.104 305.619C683.911 308.157 682.215 310.506 680.018 312.665C677.84 314.805 675.142 316.528 671.922 317.835C668.702 319.142 664.962 319.795 660.7 319.795C655.359 319.795 650.568 318.65 646.325 316.358C642.102 314.066 638.759 310.695 636.297 306.244C633.854 301.794 632.632 296.348 632.632 289.909C632.632 283.432 633.882 277.977 636.382 273.545C638.882 269.095 642.253 265.733 646.496 263.46C650.738 261.169 655.473 260.023 660.7 260.023C664.375 260.023 667.755 260.525 670.842 261.528C673.929 262.532 676.638 264 678.967 265.932C681.297 267.845 683.172 270.203 684.592 273.006C686.013 275.809 686.875 279.019 687.178 282.636ZM710.281 319V260.818H726.077V283.545H746.986V260.818H762.781V319H746.986V296.273H726.077V319H710.281ZM785.395 319H768.349L787.554 260.818H809.145L828.349 319H811.304L798.577 276.841H798.122L785.395 319ZM782.213 296.045H814.259V307.864H782.213V296.045ZM837.817 260.818H853.158V306.841H867.362V260.818H882.589V306.841H896.453V260.818H911.68V319H837.817V260.818ZM923.016 260.818H938.811V291.273H939.266L959.947 260.818H973.357V319H957.561V288.432H957.22L936.197 319H923.016V260.818ZM980.828 260.818H1000.49L1014.01 293.773H1014.69L1028.21 260.818H1047.87V319H1032.42V285.364H1031.96L1019.01 318.545H1009.69L996.737 285.136H996.283V319H980.828V260.818ZM458.74 379.636H442.717C442.604 378.311 442.301 377.108 441.808 376.028C441.335 374.949 440.672 374.021 439.82 373.244C438.986 372.449 437.973 371.843 436.78 371.426C435.587 370.991 434.232 370.773 432.717 370.773C430.066 370.773 427.821 371.417 425.984 372.705C424.166 373.992 422.784 375.839 421.837 378.244C420.909 380.65 420.445 383.538 420.445 386.909C420.445 390.47 420.918 393.453 421.865 395.858C422.831 398.244 424.223 400.044 426.041 401.256C427.859 402.449 430.047 403.045 432.604 403.045C434.062 403.045 435.369 402.866 436.524 402.506C437.679 402.127 438.683 401.587 439.536 400.886C440.388 400.186 441.079 399.343 441.609 398.358C442.159 397.354 442.528 396.227 442.717 394.977L458.74 395.091C458.551 397.553 457.859 400.062 456.666 402.619C455.473 405.157 453.778 407.506 451.581 409.665C449.403 411.805 446.704 413.528 443.484 414.835C440.265 416.142 436.524 416.795 432.263 416.795C426.922 416.795 422.13 415.65 417.888 413.358C413.664 411.066 410.321 407.695 407.859 403.244C405.416 398.794 404.195 393.348 404.195 386.909C404.195 380.432 405.445 374.977 407.945 370.545C410.445 366.095 413.816 362.733 418.058 360.46C422.301 358.169 427.036 357.023 432.263 357.023C435.937 357.023 439.318 357.525 442.405 358.528C445.492 359.532 448.2 361 450.53 362.932C452.859 364.845 454.734 367.203 456.155 370.006C457.575 372.809 458.437 376.019 458.74 379.636ZM465.906 416V357.818H507.838V370.545H481.702V380.545H505.679V393.273H481.702V403.273H507.724V416H465.906ZM515.672 416V357.818H540.786C545.104 357.818 548.882 358.67 552.121 360.375C555.359 362.08 557.878 364.475 559.678 367.562C561.477 370.65 562.376 374.258 562.376 378.386C562.376 382.553 561.448 386.161 559.592 389.21C557.755 392.259 555.17 394.608 551.837 396.256C548.522 397.903 544.649 398.727 540.217 398.727H525.217V386.455H537.036C538.892 386.455 540.473 386.133 541.78 385.489C543.106 384.826 544.119 383.888 544.82 382.676C545.539 381.464 545.899 380.034 545.899 378.386C545.899 376.72 545.539 375.299 544.82 374.125C544.119 372.932 543.106 372.023 541.78 371.398C540.473 370.754 538.892 370.432 537.036 370.432H531.467V416H515.672ZM568.172 416V357.818H593.399C597.831 357.818 601.553 358.415 604.564 359.608C607.594 360.801 609.876 362.487 611.411 364.665C612.964 366.843 613.74 369.409 613.74 372.364C613.74 374.504 613.267 376.455 612.32 378.216C611.392 379.977 610.085 381.455 608.399 382.648C606.714 383.822 604.744 384.636 602.49 385.091V385.659C604.99 385.754 607.263 386.388 609.308 387.562C611.354 388.718 612.982 390.318 614.195 392.364C615.407 394.39 616.013 396.777 616.013 399.523C616.013 402.705 615.179 405.536 613.513 408.017C611.865 410.498 609.517 412.449 606.467 413.869C603.418 415.29 599.782 416 595.558 416H568.172ZM583.967 403.386H591.354C594.005 403.386 595.994 402.894 597.32 401.909C598.645 400.905 599.308 399.428 599.308 397.477C599.308 396.114 598.996 394.958 598.371 394.011C597.746 393.064 596.856 392.345 595.7 391.852C594.564 391.36 593.191 391.114 591.581 391.114H583.967V403.386ZM583.967 381.341H590.445C591.827 381.341 593.049 381.123 594.109 380.688C595.17 380.252 595.994 379.627 596.581 378.812C597.187 377.979 597.49 376.966 597.49 375.773C597.49 373.973 596.846 372.6 595.558 371.653C594.27 370.688 592.642 370.205 590.672 370.205H583.967V381.341ZM621.609 357.818H637.405V388.273H637.859L658.541 357.818H671.95V416H656.155V385.432H655.814L634.791 416H621.609V357.818ZM733.74 379.636H717.717C717.604 378.311 717.301 377.108 716.808 376.028C716.335 374.949 715.672 374.021 714.82 373.244C713.986 372.449 712.973 371.843 711.78 371.426C710.587 370.991 709.232 370.773 707.717 370.773C705.066 370.773 702.821 371.417 700.984 372.705C699.166 373.992 697.784 375.839 696.837 378.244C695.909 380.65 695.445 383.538 695.445 386.909C695.445 390.47 695.918 393.453 696.865 395.858C697.831 398.244 699.223 400.044 701.041 401.256C702.859 402.449 705.047 403.045 707.604 403.045C709.062 403.045 710.369 402.866 711.524 402.506C712.679 402.127 713.683 401.587 714.536 400.886C715.388 400.186 716.079 399.343 716.609 398.358C717.159 397.354 717.528 396.227 717.717 394.977L733.74 395.091C733.551 397.553 732.859 400.062 731.666 402.619C730.473 405.157 728.778 407.506 726.581 409.665C724.403 411.805 721.704 413.528 718.484 414.835C715.265 416.142 711.524 416.795 707.263 416.795C701.922 416.795 697.13 415.65 692.888 413.358C688.664 411.066 685.321 407.695 682.859 403.244C680.416 398.794 679.195 393.348 679.195 386.909C679.195 380.432 680.445 374.977 682.945 370.545C685.445 366.095 688.816 362.733 693.058 360.46C697.301 358.169 702.036 357.023 707.263 357.023C710.937 357.023 714.318 357.525 717.405 358.528C720.492 359.532 723.2 361 725.53 362.932C727.859 364.845 729.734 367.203 731.155 370.006C732.575 372.809 733.437 376.019 733.74 379.636ZM797.27 386.909C797.27 393.386 796.01 398.85 793.491 403.301C790.973 407.733 787.573 411.095 783.293 413.386C779.012 415.659 774.24 416.795 768.974 416.795C763.671 416.795 758.88 415.65 754.599 413.358C750.338 411.047 746.948 407.676 744.429 403.244C741.929 398.794 740.679 393.348 740.679 386.909C740.679 380.432 741.929 374.977 744.429 370.545C746.948 366.095 750.338 362.733 754.599 360.46C758.88 358.169 763.671 357.023 768.974 357.023C774.24 357.023 779.012 358.169 783.293 360.46C787.573 362.733 790.973 366.095 793.491 370.545C796.01 374.977 797.27 380.432 797.27 386.909ZM781.02 386.909C781.02 383.424 780.556 380.489 779.628 378.102C778.719 375.697 777.365 373.879 775.565 372.648C773.785 371.398 771.588 370.773 768.974 370.773C766.361 370.773 764.154 371.398 762.355 372.648C760.575 373.879 759.221 375.697 758.293 378.102C757.384 380.489 756.929 383.424 756.929 386.909C756.929 390.394 757.384 393.339 758.293 395.744C759.221 398.131 760.575 399.949 762.355 401.199C764.154 402.43 766.361 403.045 768.974 403.045C771.588 403.045 773.785 402.43 775.565 401.199C777.365 399.949 778.719 398.131 779.628 395.744C780.556 393.339 781.02 390.394 781.02 386.909ZM804.578 357.818H824.237L837.76 390.773H838.442L851.964 357.818H871.624V416H856.169V382.364H855.714L842.76 415.545H833.442L820.487 382.136H820.033V416H804.578V357.818ZM890.814 397.818V396.455C890.814 393.33 891.06 390.839 891.553 388.983C892.045 387.127 892.774 385.64 893.74 384.523C894.706 383.386 895.89 382.364 897.291 381.455C898.503 380.659 899.583 379.892 900.53 379.153C901.496 378.415 902.253 377.629 902.803 376.795C903.371 375.962 903.655 375.015 903.655 373.955C903.655 373.008 903.428 372.174 902.973 371.455C902.518 370.735 901.903 370.176 901.126 369.778C900.35 369.381 899.488 369.182 898.541 369.182C897.518 369.182 896.571 369.419 895.7 369.892C894.848 370.366 894.157 371.019 893.626 371.852C893.115 372.686 892.859 373.652 892.859 374.75H878.314C878.352 370.583 879.299 367.203 881.155 364.608C883.011 361.994 885.473 360.081 888.541 358.869C891.609 357.638 894.981 357.023 898.655 357.023C902.708 357.023 906.325 357.619 909.507 358.812C912.689 359.987 915.198 361.767 917.036 364.153C918.873 366.521 919.791 369.485 919.791 373.045C919.791 375.337 919.393 377.354 918.598 379.097C917.821 380.82 916.732 382.345 915.331 383.67C913.948 384.977 912.329 386.17 910.473 387.25C909.109 388.045 907.964 388.869 907.036 389.722C906.107 390.555 905.407 391.511 904.933 392.591C904.46 393.652 904.223 394.939 904.223 396.455V397.818H890.814ZM897.746 416.909C895.549 416.909 893.664 416.142 892.092 414.608C890.539 413.055 889.772 411.17 889.791 408.955C889.772 406.795 890.539 404.949 892.092 403.415C893.664 401.881 895.549 401.114 897.746 401.114C899.829 401.114 901.666 401.881 903.257 403.415C904.867 404.949 905.681 406.795 905.7 408.955C905.681 410.432 905.293 411.777 904.536 412.989C903.797 414.182 902.831 415.138 901.638 415.858C900.445 416.559 899.147 416.909 897.746 416.909Z" fill="black"/>
<path d="M1382.1 293.079C1396.9 268.937 1425.36 254.695 1441.89 233.332C1459.39 210.926 1449.58 169.068 1399.98 169.068C1367.48 169.068 1351.53 191.3 1344.8 209.711L1295 190.779C1308.65 153.784 1345.76 122 1399.78 122C1444.97 122 1475.92 140.584 1491.69 163.858C1505.15 183.832 1513.03 221.174 1492.26 248.963C1469.19 279.705 1447.08 289.084 1435.16 308.884C1430.35 316.874 1428.43 322.084 1428.43 347.789H1372.87C1372.68 334.242 1370.37 312.184 1382.1 293.079ZM1438.43 417.263C1438.43 436.368 1421.13 452 1399.98 452C1378.83 452 1361.52 436.368 1361.52 417.263C1361.52 398.158 1378.83 382.526 1399.98 382.526C1421.13 382.526 1438.43 398.158 1438.43 417.263Z" fill="#044334"/>
<defs>
<filter id="filter0_d_257_8" x="0" y="47" width="1449" height="465" filterUnits="userSpaceOnUse" color-interpolation-filters="sRGB">
<feFlood flood-opacity="0" result="BackgroundImageFix"/>
<feColorMatrix in="SourceAlpha" type="matrix" values="0 0 0 0 0 0 0 0 0 0 0 0 0 0 0 0 0 0 127 0" result="hardAlpha"/>
<feOffset dy="4"/>
<feGaussianBlur stdDeviation="2"/>
<feComposite in2="hardAlpha" operator="out"/>
<feColorMatrix type="matrix" values="0 0 0 0 0 0 0 0 0 0 0 0 0 0 0 0 0 0 0.25 0"/>
<feBlend mode="normal" in2="BackgroundImageFix" result="effect1_dropShadow_257_8"/>
<feBlend mode="normal" in="SourceGraphic" in2="effect1_dropShadow_257_8" result="shape"/>
</filter>
</defs>
</svg>
