<svg width="191" height="194" viewBox="0 0 191 194" fill="none" xmlns="http://www.w3.org/2000/svg">
<g filter="url(#filter0_d_193_38)">
<path d="M77.5939 5.96875C66.5166 5.98129 55.8967 10.3873 48.0639 18.22C40.2311 26.0528 35.8251 36.6728 35.8126 47.75V77.4748C35.8163 82.4674 37.0689 87.3801 39.4565 91.7652L49.6985 110.542L22.5321 128.2C18.357 130.903 14.9263 134.61 12.5541 138.98C10.1819 143.352 8.94379 148.249 8.95318 153.223V185.031H116.391V173.094H20.8907V153.223C20.8851 150.238 21.628 147.3 23.0514 144.677C24.4748 142.055 26.5332 139.83 29.0384 138.208L65.4702 114.528L49.9365 86.0495C48.504 83.4185 47.7524 80.4707 47.7501 77.4748V47.75C47.7501 39.835 50.8943 32.2441 56.4911 26.6473C62.0879 21.0505 69.6788 17.9062 77.5939 17.9062C85.5091 17.9062 93.0997 21.0505 98.6968 26.6473C104.293 32.2441 107.437 39.835 107.437 47.75V77.4748C107.435 80.4707 106.684 83.4185 105.251 86.0495L89.7182 114.528L116.391 131.866V117.628L105.489 110.54L115.731 91.7636C118.118 87.3785 119.371 82.4666 119.375 77.4748V47.75C119.362 36.6728 114.957 26.0528 107.124 18.22C99.2913 10.3873 88.6709 5.98129 77.5939 5.96875Z" fill="#D3FFF7"/>
<path d="M158.172 149.219V125.344H146.234V149.219H122.359V161.156H146.234V185.031H158.172V161.156H182.047V149.219H158.172Z" fill="#D3FFF7"/>
</g>
<defs>
<filter id="filter0_d_193_38" x="-4" y="0" width="199" height="199" filterUnits="userSpaceOnUse" color-interpolation-filters="sRGB">
<feFlood flood-opacity="0" result="BackgroundImageFix"/>
<feColorMatrix in="SourceAlpha" type="matrix" values="0 0 0 0 0 0 0 0 0 0 0 0 0 0 0 0 0 0 127 0" result="hardAlpha"/>
<feOffset dy="4"/>
<feGaussianBlur stdDeviation="2"/>
<feComposite in2="hardAlpha" operator="out"/>
<feColorMatrix type="matrix" values="0 0 0 0 0 0 0 0 0 0 0 0 0 0 0 0 0 0 0.25 0"/>
<feBlend mode="normal" in2="BackgroundImageFix" result="effect1_dropShadow_193_38"/>
<feBlend mode="normal" in="SourceGraphic" in2="effect1_dropShadow_193_38" result="shape"/>
</filter>
</defs>
</svg>
