<svg width="115" height="67" viewBox="0 0 115 67" fill="none" xmlns="http://www.w3.org/2000/svg">
<path d="M12.3214 67H102.679C104.886 66.9897 107.05 66.4039 108.938 65.3053L68.347 38.6748C65.2498 41.3042 61.3436 42.8927 57.2207 43.1993C53.2871 42.7195 49.5986 41.103 46.6448 38.5645L5.65553 65.0965C7.63852 66.337 9.95425 66.9983 12.3214 67Z" fill="white" fill-opacity="0.75"/>
<path d="M114.199 59.2518C114.717 57.95 114.988 56.5699 115 55.1766V11.8237C114.991 10.9163 114.873 10.013 114.647 9.13184L75.7234 33.9612L114.199 59.2518Z" fill="white" fill-opacity="0.75"/>
<path d="M102.679 0H12.3214C10.203 0.0131115 8.12472 0.556504 6.29214 1.57647L54.7564 34.3789C55.4702 34.915 56.3386 35.2275 57.2437 35.274C58.1489 35.3205 59.047 35.0988 59.8164 34.639L110.482 2.75882C108.298 0.99076 105.536 0.0144136 102.679 0Z" fill="white" fill-opacity="0.75"/>
<path d="M0.887143 7.48828C0.307809 8.86638 0.00675076 10.3376 0 11.8236V55.1765C0.0168293 56.4219 0.241461 57.6567 0.665357 58.8339L39.5066 33.6695L0.887143 7.48828Z" fill="white" fill-opacity="0.75"/>
</svg>
