<svg width="58" height="54" viewBox="0 0 58 54" fill="none" xmlns="http://www.w3.org/2000/svg">
<g clip-path="url(#clip0_187_55)">
<path d="M58 30.5011V22.1934H49.9471C49.3832 19.7246 48.3274 17.4255 46.8793 15.3889L52.2739 10.3663L45.9643 4.49185L40.5141 9.56619C38.2304 8.21263 35.6518 7.2519 32.8879 6.78655V0H23.9648V7.04006C21.2489 7.65969 18.7373 8.76272 16.5408 10.2461L11.2617 5.33116L4.95218 11.2055L10.5583 16.425C9.25323 18.5303 8.35111 20.8791 7.94906 23.3802H0V31.6879H8.4926C9.18044 33.9894 10.3021 36.1223 11.77 38.0065L5.85354 43.515L12.163 49.3895L18.4065 43.5766C20.488 44.695 22.7912 45.4958 25.2396 45.9081V54H34.1626V45.6544C36.5731 45.1045 38.8227 44.1738 40.8338 42.9343L46.8658 48.5503L53.1754 42.6758L47.0878 37.008C48.4294 35.0461 49.4108 32.8503 49.9472 30.5011H58ZM29.0637 36.7319C22.9134 36.7319 17.9099 32.0734 17.9099 26.3473C17.9099 20.6211 22.9134 15.9626 29.0637 15.9626C35.214 15.9626 40.2176 20.6211 40.2176 26.3473C40.2176 32.0734 35.214 36.7319 29.0637 36.7319Z" fill="white" fill-opacity="0.64"/>
</g>
<defs>
<clipPath id="clip0_187_55">
<rect width="58" height="54" fill="white"/>
</clipPath>
</defs>
</svg>
