<svg width="84" height="84" viewBox="0 0 84 84" fill="none" xmlns="http://www.w3.org/2000/svg">
<path d="M1.48373 40.5006L20.839 47.7246L28.3307 71.8177C28.8101 73.3608 30.697 73.9312 31.9494 72.9072L42.7384 64.1119C43.8693 63.1904 45.4801 63.1445 46.662 64.0024L66.1215 78.1303C67.4613 79.1042 69.3594 78.37 69.6954 76.7511L83.9505 8.18158C84.3173 6.4131 82.5796 4.93778 80.8957 5.58906L1.46105 36.2325C-0.499226 36.9885 -0.482146 39.7639 1.48373 40.5006ZM27.1233 43.8791L64.9508 20.5811C65.6306 20.1636 66.3301 21.0829 65.7463 21.6244L34.5277 50.6436C33.4303 51.665 32.7225 53.032 32.522 54.5157L31.4586 62.3966C31.3177 63.4488 29.8396 63.5533 29.5493 62.5349L25.4593 48.1639C24.9909 46.5248 25.6735 44.7739 27.1233 43.8791Z" fill="white" fill-opacity="0.75"/>
</svg>
