<svg width="56" height="55" viewBox="0 0 56 55" fill="none" xmlns="http://www.w3.org/2000/svg">
<path d="M24.5292 3.38382C36.1526 3.38382 45.6112 12.687 45.6112 24.1029C45.6112 29.192 43.7242 33.8505 40.6107 37.46L52.0199 48.6655C52.1872 48.8244 52.3206 49.0145 52.4123 49.2246C52.5039 49.4347 52.552 49.6607 52.5537 49.8893C52.5553 50.1179 52.5105 50.3444 52.4219 50.5558C52.3333 50.7672 52.2027 50.959 52.0377 51.1202C51.8727 51.2814 51.6765 51.4086 51.4608 51.4945C51.2451 51.5803 51.0142 51.6231 50.7814 51.6202C50.5487 51.6173 50.3189 51.5688 50.1055 51.4776C49.892 51.3865 49.6993 51.2545 49.5384 51.0893L38.1361 39.8905C34.4602 42.951 29.7134 44.8083 24.5292 44.8083C12.9057 44.8083 3.44712 35.5188 3.44712 24.1029C3.44712 12.687 12.9057 3.38382 24.5292 3.38382ZM24.5292 6.9994C14.8896 6.9994 7.1146 14.6355 7.1146 24.1029C7.1146 33.5703 14.8896 41.203 24.5292 41.203C34.1687 41.203 41.9437 33.5703 41.9437 24.1029C41.9437 14.6355 34.1687 6.9994 24.5292 6.9994Z" fill="white" fill-opacity="0.64"/>
</svg>
